<?xml version="1.0" encoding="UTF-8" standalone="no"?>
<!-- Generator: Adobe Illustrator 24.0.1, SVG Export Plug-In . SVG Version: 6.00 Build 0)  -->

<svg
   xmlns:dc="http://purl.org/dc/elements/1.1/"
   xmlns:cc="http://creativecommons.org/ns#"
   xmlns:rdf="http://www.w3.org/1999/02/22-rdf-syntax-ns#"
   xmlns:svg="http://www.w3.org/2000/svg"
   xmlns="http://www.w3.org/2000/svg"
   xmlns:sodipodi="http://sodipodi.sourceforge.net/DTD/sodipodi-0.dtd"
   xmlns:inkscape="http://www.inkscape.org/namespaces/inkscape"
   version="1.1"
   x="0px"
   y="0px"
   viewBox="0 0 679.6532 333.13849"
   xml:space="preserve"
   id="svg173"
   sodipodi:docname="2020map.svg"
   inkscape:version="0.92.4 (unknown)"
   width="679.6532"
   height="333.13849"><metadata
   id="metadata179"><rdf:RDF><cc:Work
       rdf:about=""><dc:format>image/svg+xml</dc:format><dc:type
         rdf:resource="http://purl.org/dc/dcmitype/StillImage" /><dc:title /></cc:Work></rdf:RDF></metadata><defs
   id="defs177" /><sodipodi:namedview
   pagecolor="#ffffff"
   bordercolor="#666666"
   borderopacity="1"
   objecttolerance="10"
   gridtolerance="10"
   guidetolerance="10"
   inkscape:pageopacity="0"
   inkscape:pageshadow="2"
   inkscape:window-width="2560"
   inkscape:window-height="1375"
   id="namedview175"
   showgrid="false"
   inkscape:zoom="1.0718954"
   inkscape:cx="224.40353"
   inkscape:cy="94.074977"
   inkscape:window-x="1280"
   inkscape:window-y="0"
   inkscape:window-maximized="1"
   inkscape:current-layer="svg173" />
<style
   type="text/css"
   id="style2">
	.st0{fill-rule:evenodd;clip-rule:evenodd;}
	.st1{font-family:'Times-Roman';}
	.st2{font-size:18px;}
	.st3{enable-background:new    ;}
	.st4{fill-rule:evenodd;clip-rule:evenodd;fill:#FFFFFF;}
</style>


<g
   id="B2"
   style="stroke:#ffcc00"
   transform="translate(-128.38,-66.936478)">
	<text
   transform="rotate(90,-42.26415,173.91115)"
   class="st1 st2"
   id="text79"
   style="font-size:18px;font-family:Times-Roman;stroke:#ffcc00">B2</text>






</g>
<g
   id="R2"
   style="stroke:#ffcc00"
   transform="translate(-128.38,-66.936478)">
	<text
   transform="rotate(-90,529.083,-278.4502)"
   class="st1 st2"
   id="text82"
   style="font-size:18px;font-family:Times-Roman;stroke:#ffcc00">R2</text>






</g>
<g
   id="R1"
   style="stroke:#ffcc00"
   transform="translate(-128.38,-66.936478)">
	<text
   transform="matrix(0.3415,-0.9399,0.9399,0.3415,791.4126,378.3218)"
   class="st1 st2"
   id="text85"
   style="font-size:18px;font-family:Times-Roman;stroke:#ffcc00">R1</text>






</g>
<g
   id="R3"
   style="stroke:#ffcc00"
   transform="translate(-128.38,-66.936478)">
	<text
   transform="rotate(-109.93171,436.89047,-225.83722)"
   class="st1 st2"
   id="text88"
   style="font-size:18px;font-family:Times-Roman;stroke:#ffcc00">R3</text>






</g>
<g
   id="B3"
   style="stroke:#ffcc00"
   transform="translate(-128.38,-66.936478)">
	<text
   transform="matrix(0.3385,0.941,-0.941,0.3385,141.9395,358.9518)"
   class="st1 st2"
   id="text91"
   style="font-size:18px;font-family:Times-Roman;stroke:#ffcc00">B3</text>






</g>
<g
   id="B1"
   style="stroke:#ffcc00"
   transform="translate(-128.38,-66.936478)">
	<text
   transform="matrix(-0.3412,0.94,-0.94,-0.3412,148.7245,88.6163)"
   class="st1 st2"
   id="text94"
   style="font-size:18px;font-family:Times-Roman;stroke:#ffcc00">B1</text>






</g>
<g
   id="Corner_1_"
   style="stroke:#ffcc00"
   transform="translate(-128.38,-66.936478)">
	<g
   id="Shape_20"
   style="stroke:#ffcc00">
		<g
   id="g99"
   style="stroke:#ffcc00">
			
				<rect
   x="416.70999"
   y="327.35999"
   transform="matrix(0.9312,-0.3644,0.3644,0.9312,-90.667,176.5988)"
   class="st0"
   width="11.86"
   height="2.4000001"
   id="rect97"
   style="clip-rule:evenodd;fill-rule:evenodd;stroke:#ffcc00" />
		</g>
	</g>
	<g
   id="Shape_20_copy"
   style="stroke:#ffcc00">
		<g
   id="g104"
   style="stroke:#ffcc00">
			<polygon
   class="st0"
   points="430.03,337.2 432.24,336.32 427.97,325.2 425.76,326.08 "
   id="polygon102"
   style="clip-rule:evenodd;fill-rule:evenodd;stroke:#ffcc00" />
		</g>
	</g>
</g>
<g
   id="Corner_copy_2_1_"
   style="stroke:#ffcc00"
   transform="translate(-128.38,-66.936478)">
	<g
   id="Shape_20_1_"
   style="stroke:#ffcc00">
		<g
   id="g110"
   style="stroke:#ffcc00">
			
				<rect
   x="370.94"
   y="187.13"
   transform="matrix(0.9363,-0.3513,0.3513,0.9363,-44.1019,143.0394)"
   class="st0"
   width="2.4000001"
   height="11.86"
   id="rect108"
   style="clip-rule:evenodd;fill-rule:evenodd;stroke:#ffcc00" />
		</g>
	</g>
	<g
   id="Shape_20_copy_1_"
   style="stroke:#ffcc00">
		<g
   id="g115"
   style="stroke:#ffcc00">
			<polygon
   class="st0"
   points="364.24,202.8 375.23,198.22 374.29,196.03 363.29,200.62 "
   id="polygon113"
   style="clip-rule:evenodd;fill-rule:evenodd;stroke:#ffcc00" />
		</g>
	</g>
</g>
<g
   id="Corner_copy_3_1_"
   style="stroke:#ffcc00"
   transform="translate(-128.38,-66.936478)">
	<g
   id="Shape_20_2_"
   style="stroke:#ffcc00">
		<g
   id="g121"
   style="stroke:#ffcc00">
			
				<rect
   x="511.64001"
   y="137.2"
   transform="matrix(0.9312,-0.3644,0.3644,0.9312,-14.847,198.1167)"
   class="st0"
   width="11.86"
   height="2.4000001"
   id="rect119"
   style="clip-rule:evenodd;fill-rule:evenodd;stroke:#ffcc00" />
		</g>
	</g>
	<g
   id="Shape_20_copy_2_"
   style="stroke:#ffcc00">
		<g
   id="g126"
   style="stroke:#ffcc00">
			<polygon
   class="st0"
   points="512.23,141.52 514.44,140.64 510.17,129.52 507.96,130.4 "
   id="polygon124"
   style="clip-rule:evenodd;fill-rule:evenodd;stroke:#ffcc00" />
		</g>
	</g>
</g>
<g
   id="Corner_copy_1_"
   style="stroke:#ffcc00"
   transform="translate(-128.38,-66.936478)">
	<g
   id="Shape_20_3_"
   style="stroke:#ffcc00">
		<g
   id="g132"
   style="stroke:#ffcc00">
			
				<rect
   x="567.02002"
   y="267.57001"
   transform="matrix(0.9182,-0.3962,0.3962,0.9182,-61.8603,247.5005)"
   class="st0"
   width="2.4000001"
   height="11.86"
   id="rect130"
   style="clip-rule:evenodd;fill-rule:evenodd;stroke:#ffcc00" />
		</g>
	</g>
	<g
   id="Shape_20_copy_3_"
   style="stroke:#ffcc00">
		<g
   id="g137"
   style="stroke:#ffcc00">
			<polygon
   class="st0"
   points="565.74,270.38 576.86,266.11 575.98,263.9 564.86,268.17 "
   id="polygon135"
   style="clip-rule:evenodd;fill-rule:evenodd;stroke:#ffcc00" />
		</g>
	</g>
</g>

<g
   id="Shape_22_1_"
   class="st3"
   style="stroke:#ffcc00;enable-background:new"
   transform="translate(-128.38,-66.936478)">
	<g
   id="Shape_22"
   style="stroke:#ffcc00">
		<g
   id="g149"
   style="stroke:#ffcc00">
			<rect
   x="128.88"
   y="326.16"
   class="st0"
   width="14.4"
   height="2.4000001"
   id="rect147"
   style="clip-rule:evenodd;fill-rule:evenodd;stroke:#ffcc00" />
		</g>
	</g>
</g>


<path
   style="fill:none;stroke:#ffcc00;stroke-width:1px;stroke-linecap:butt;stroke-linejoin:miter;stroke-opacity:1"
   d="M 47.682015,329.99375 21.852555,259.88523 21.325425,70.644922 46.100615,1.0635217 H 636.48822 l 27.93798,72.7441903 -1.05426,187.658908 -25.82946,71.16279 z"
   id="path3886"
   inkscape:connector-curvature="0" /><path
   style="fill:none;stroke:#ffcc00;stroke-width:1px;stroke-linecap:butt;stroke-linejoin:miter;stroke-opacity:1"
   d="M 231.12388,123.88523 390.84481,61.156542 449.88357,205.59065 293.32543,271.48212 228.48822,123.35809 Z"
   id="path3890"
   inkscape:connector-curvature="0" /><path
   style="fill:none;stroke:#ffcc00;stroke-width:1px;stroke-linecap:butt;stroke-linejoin:miter;stroke-opacity:1"
   d="M 664.4262,73.807712 663.37194,261.46662 637.54248,332.62941 47.682015,329.99375 21.852555,259.88523 21.325425,70.644922 46.100615,1.0635217 H 636.48822 L 664.4262,73.807712"
   id="path3820"
   inkscape:connector-curvature="0" /><path
   style="fill:none;stroke:#ffcc00;stroke-width:1px;stroke-linecap:butt;stroke-linejoin:miter;stroke-opacity:1"
   d="M 145.2014,1.0635217 144.14713,331.04802"
   id="path3822"
   inkscape:connector-curvature="0" /><path
   style="fill:none;stroke:#ffcc00;stroke-width:1px;stroke-linecap:butt;stroke-linejoin:miter;stroke-opacity:1"
   d="M 240.568,121.00152 303.86,269.38352 441.10765,212.48331 381.79,62.583522 Z"
   id="path3824"
   inkscape:connector-curvature="0" /><path
   style="fill:none;stroke:#ffcc00;stroke-width:1px;stroke-linecap:butt;stroke-linejoin:miter;stroke-opacity:1"
   d="m 240.568,121.00152 -9.44412,2.88371 62.20155,147.59689 10.53457,-2.0986 z"
   id="path3826"
   inkscape:connector-curvature="0" /><path
   style="fill:none;stroke:#ffcc00;stroke-width:1px;stroke-linecap:butt;stroke-linejoin:miter;stroke-opacity:1"
   d="m 234.91,133.68352 160.21644,-63.271188 -4.28163,-9.25579 -9.05481,1.42698 59.31765,149.899788 8.77592,-6.89266 -2.28357,-8.62713 -11.19128,4.62995"
   id="path3828"
   inkscape:connector-curvature="0" /><path
   style="fill:none;stroke:#ffcc00;stroke-width:1px;stroke-linecap:butt;stroke-linejoin:miter;stroke-opacity:1"
   d="M 300.2019,260.56391 438.61242,200.64258"
   id="path3830"
   inkscape:connector-curvature="0" /><path
   style="fill:none;stroke:#ffcc00;stroke-width:1px;stroke-linecap:butt;stroke-linejoin:miter;stroke-opacity:1"
   d="m 373.44946,1.5906467 -1.05426,53.7674453 28.99225,0.52713 0.52713,-53.7674433 z"
   id="path3832"
   inkscape:connector-curvature="0" /><path
   style="fill:none;stroke:#ffcc00;stroke-width:1px;stroke-linecap:butt;stroke-linejoin:miter;stroke-opacity:1"
   d="m 281.2014,275.69918 0.52713,56.4031 28.99225,0.52713 0.52713,-55.87597 z"
   id="path3854"
   inkscape:connector-curvature="0" /><path
   style="fill:none;stroke:#ffcc00;stroke-width:1px;stroke-linecap:butt;stroke-linejoin:miter;stroke-opacity:1"
   d="m 269.73,193.02352 141.76,-58.46 2.1,5.1 -141.76,58.46 z"
   id="path3856"
   inkscape:connector-curvature="0" /><path
   style="fill:none;stroke:#ffcc00;stroke-width:1px;stroke-linecap:butt;stroke-linejoin:miter;stroke-opacity:1"
   d="M 300.16628,219.50011 303.23,226.82352 416.90156,179.21025 413.85,171.92352 Z"
   id="path3858"
   inkscape:connector-curvature="0" /><path
   style="fill:none;stroke:#ffcc00;stroke-width:1px;stroke-linecap:butt;stroke-linejoin:miter;stroke-opacity:1"
   d="m 266.80554,153.26246 3.06446,7.32106 113.67081,-47.61094 -3.0587,-7.30541 z"
   id="path3860"
   inkscape:connector-curvature="0" /><path
   style="fill:none;stroke:#ffcc00;stroke-width:1px;stroke-linecap:butt;stroke-linejoin:miter;stroke-opacity:1"
   d="m 313.88357,102.27282 53.76744,129.67442 2.63566,-1.5814 -53.76744,-130.20155 z"
   id="path3862"
   inkscape:connector-curvature="0" /><path
   style="fill:none;stroke:#ffcc00;stroke-width:1px;stroke-linecap:butt;stroke-linejoin:miter;stroke-opacity:1"
   d="m 21.460855,74.667582 29.0736,23.85526 -29.0736,23.109788 -0.37274,77.5296 27.95539,29.0736 -26.83717,26.83717"
   id="path130"
   inkscape:connector-curvature="0" /><path
   style="fill:none;stroke:#ffcc00;stroke-width:1px;stroke-linecap:butt;stroke-linejoin:miter;stroke-opacity:1"
   d="m 664.4262,73.807712 -30.92879,31.051688 29.44634,30.19181 -0.37274,75.66591 -29.81907,23.85526 30.19181,22.36431"
   id="path132"
   inkscape:connector-curvature="0" /><path
   style="fill:none;stroke:#ffcc00;stroke-width:1px;stroke-linecap:butt;stroke-linejoin:miter;stroke-opacity:1"
   d="m 47.682015,329.99375 589.860465,2.63566 25.82946,-71.16279 -0.80093,-50.7495 0.37274,-75.66591 L 664.4262,73.807712 636.48822,1.0635217 H 46.100615 L 21.325425,70.644922 V 256.78913 Z"
   id="path363"
   inkscape:connector-curvature="0" /><path
   style="fill:none;stroke:#ffcc00;stroke-width:1px;stroke-linecap:butt;stroke-linejoin:miter;stroke-opacity:1"
   d="m 145.2014,1.0635217 c 0,328.9446783 -1.05427,329.9844983 -1.05427,329.9844983"
   id="path365"
   inkscape:connector-curvature="0" /><path
   style="fill:none;stroke:#ffcc00;stroke-width:1px;stroke-linecap:butt;stroke-linejoin:miter;stroke-opacity:1"
   d="m 539.49597,0.53638973 c 0,332.11053027 0,329.47181027 0,329.47181027"
   id="path367"
   inkscape:connector-curvature="0" /><path
   style="fill:none;stroke:#ffcc00;stroke-width:1px;stroke-linecap:butt;stroke-linejoin:miter;stroke-opacity:1"
   d="M 232.17814,0.00925773 C 232.70527,58.520882 232.70527,58.520882 232.70527,58.520882 L 450.4107,56.939492 449.35643,0.00925773"
   id="path373"
   inkscape:connector-curvature="0" /><path
   style="fill:none;stroke:#ffcc00;stroke-width:1px;stroke-linecap:butt;stroke-linejoin:miter;stroke-opacity:1"
   d="m 233.12403,330.66788 c -0.32984,-55.74286 -0.32984,-55.74286 -0.32984,-55.74286 h 217.69403 l 0.32984,55.74286 v -0.98952 0 -0.65968 0 0 l -0.32984,2.30888"
   id="path379"
   inkscape:connector-curvature="0" /><path
   style="fill:none;stroke:#ffcc00;stroke-width:1px;stroke-linecap:butt;stroke-linejoin:miter;stroke-opacity:1"
   d="M 232.17814,0.00925773 V 56.571302 H 450.81806 V 1.4881177"
   id="path381"
   inkscape:connector-curvature="0" /><path
   style="fill:none;stroke:#ffcc00;stroke-width:1px;stroke-linecap:butt;stroke-linejoin:miter;stroke-opacity:1"
   d="M 449.88357,205.59065 C 390.84481,61.156542 390.84481,61.156542 390.84481,61.156542 l -156.31627,64.556368 -3.40466,-1.82768 159.43667,-65.109818 61.57317,148.568598 z"
   id="path383"
   inkscape:connector-curvature="0" /><path
   style="fill:none;stroke:#ffcc00;stroke-width:1px;stroke-linecap:butt;stroke-linejoin:miter;stroke-opacity:1"
   d="M 452.13372,207.34401 Z"
   id="path385"
   inkscape:connector-curvature="0" /><path
   style="fill:none;stroke:#ffcc00;stroke-width:1px;stroke-linecap:butt;stroke-linejoin:miter;stroke-opacity:1"
   d="M 449.88357,205.59065 C 390.84481,61.156542 390.84481,61.156542 390.84481,61.156542 v 0 l -156.31627,64.556368 2.79878,6.99695 157.79912,-62.297528 -9.06644,3.29119 -3.42933,-8.86409 58.47698,147.643878 11.02607,-5.1393 -4.53372,-10.38049 -43.97848,19.24329"
   id="path387"
   inkscape:connector-curvature="0" /><path
   style="fill:none;stroke:#ffcc00;stroke-width:1px;stroke-linecap:butt;stroke-linejoin:miter;stroke-opacity:1"
   d="m 272.43677,293.58156 v -0.47415 l 0.12369,-0.45352 0.20615,-0.49476 0.32984,-0.6803 0.32984,-0.43291 0.30922,-0.28861 0.49476,-0.55661 0.45353,-0.20615 0.6803,-0.28861 0.72152,0.0206 h 0.72152 l 0.70091,0.12369 0.61845,0.20615 0.61845,0.22676 0.32984,0.4123 0.4123,0.4123 0.32984,0.39169 0.47414,0.65968 0.0412,0.43291 0.0618,0.72152 -0.0618,0.61845 -0.0618,0.49476 -0.14431,0.61845 -0.22676,0.57722 -0.45353,0.43291 -0.32984,0.37107 -0.43292,0.4123 -0.57721,0.24738 -0.47415,0.18554 h -1.05136 -0.61845 l -0.47415,-0.0206 -0.49475,-0.10307 -0.43292,-0.20615 -0.51537,-0.49476 -0.61845,-0.6803 -0.47415,-0.68029 -0.12369,-0.68029 -0.18553,-0.35046 z"
   id="path711"
   inkscape:connector-curvature="0" /><path
   style="fill:none;stroke:#ffcc00;stroke-width:1px;stroke-linecap:butt;stroke-linejoin:miter;stroke-opacity:1"
   d="m 272.47222,312.3342 v -0.47415 l 0.12369,-0.45352 0.20615,-0.49476 0.32984,-0.6803 0.32984,-0.43291 0.30922,-0.28861 0.49476,-0.55661 0.45353,-0.20615 0.6803,-0.28861 0.72152,0.0206 h 0.72152 l 0.70091,0.12369 0.61845,0.20615 0.61845,0.22676 0.32984,0.4123 0.4123,0.4123 0.32984,0.39169 0.47414,0.65968 0.0412,0.43291 0.0618,0.72152 -0.0618,0.61845 -0.0618,0.49476 -0.14431,0.61845 -0.22676,0.57722 -0.45353,0.43291 -0.32984,0.37107 -0.43292,0.4123 -0.57721,0.24738 -0.47415,0.18554 h -1.05136 -0.61845 l -0.47415,-0.0206 -0.49475,-0.10307 -0.43292,-0.20615 -0.51537,-0.49476 -0.61845,-0.6803 -0.47415,-0.68029 -0.12369,-0.68029 -0.18553,-0.35046 z"
   id="path711-3"
   inkscape:connector-curvature="0" /><path
   style="fill:none;stroke:#ffcc00;stroke-width:1px;stroke-linecap:butt;stroke-linejoin:miter;stroke-opacity:1"
   d="m 337.71879,302.94663 v -0.47415 l 0.12369,-0.45352 0.20615,-0.49476 0.32984,-0.6803 0.32984,-0.43291 0.30922,-0.28861 0.49476,-0.55661 0.45353,-0.20615 0.6803,-0.28861 0.72152,0.0206 h 0.72152 l 0.70091,0.12369 0.61845,0.20615 0.61845,0.22676 0.32984,0.4123 0.4123,0.4123 0.32984,0.39169 0.47414,0.65968 0.0412,0.43291 0.0618,0.72152 -0.0618,0.61845 -0.0618,0.49476 -0.14431,0.61845 -0.22676,0.57722 -0.45353,0.43291 -0.32984,0.37107 -0.43292,0.4123 -0.57721,0.24738 -0.47415,0.18554 h -1.05136 -0.61845 l -0.47415,-0.0206 -0.49475,-0.10307 -0.43292,-0.20615 -0.51537,-0.49476 -0.61845,-0.6803 -0.47415,-0.68029 -0.12369,-0.68029 -0.18553,-0.35046 z"
   id="path711-35"
   inkscape:connector-curvature="0" /><path
   style="fill:none;stroke:#ffcc00;stroke-width:1px;stroke-linecap:butt;stroke-linejoin:miter;stroke-opacity:1"
   d="m 373.63647,302.94663 v -0.47415 l 0.12369,-0.45352 0.20615,-0.49476 0.32984,-0.6803 0.32984,-0.43291 0.30922,-0.28861 0.49476,-0.55661 0.45353,-0.20615 0.6803,-0.28861 0.72152,0.0206 h 0.72152 l 0.70091,0.12369 0.61845,0.20615 0.61845,0.22676 0.32984,0.4123 0.4123,0.4123 0.32984,0.39169 0.47414,0.65968 0.0412,0.43291 0.0618,0.72152 -0.0618,0.61845 -0.0618,0.49476 -0.14431,0.61845 -0.22676,0.57722 -0.45353,0.43291 -0.32984,0.37107 -0.43292,0.4123 -0.57721,0.24738 -0.47415,0.18554 h -1.05136 -0.61845 l -0.47415,-0.0206 -0.49475,-0.10307 -0.43292,-0.20615 -0.51537,-0.49476 -0.61845,-0.6803 -0.47415,-0.68029 -0.12369,-0.68029 -0.18553,-0.35046 z"
   id="path711-6"
   inkscape:connector-curvature="0" /><path
   style="fill:none;stroke:#ffcc00;stroke-width:1px;stroke-linecap:butt;stroke-linejoin:miter;stroke-opacity:1"
   d="m 410.83693,302.83001 v -0.47415 l 0.12369,-0.45352 0.20615,-0.49476 0.32984,-0.6803 0.32984,-0.43291 0.30922,-0.28861 0.49476,-0.55661 0.45353,-0.20615 0.6803,-0.28861 0.72152,0.0206 h 0.72152 l 0.70091,0.12369 0.61845,0.20615 0.61845,0.22676 0.32984,0.4123 0.4123,0.4123 0.32984,0.39169 0.47414,0.65968 0.0412,0.43291 0.0618,0.72152 -0.0618,0.61845 -0.0618,0.49476 -0.14431,0.61845 -0.22676,0.57722 -0.45353,0.43291 -0.32984,0.37107 -0.43292,0.4123 -0.57721,0.24738 -0.47415,0.18554 h -1.05136 -0.61845 l -0.47415,-0.0206 -0.49475,-0.10307 -0.43292,-0.20615 -0.51537,-0.49476 -0.61845,-0.6803 -0.47415,-0.68029 -0.12369,-0.68029 -0.18553,-0.35046 z"
   id="path711-2"
   inkscape:connector-curvature="0" /><path
   style="fill:none;stroke:#ffcc00;stroke-width:1px;stroke-linecap:butt;stroke-linejoin:miter;stroke-opacity:1"
   d="m 262.15172,180.96645 v -0.47415 l 0.12369,-0.45352 0.20615,-0.49476 0.32984,-0.6803 0.32984,-0.43291 0.30922,-0.28861 0.49476,-0.55661 0.45353,-0.20615 0.6803,-0.28861 0.72152,0.0206 h 0.72152 l 0.70091,0.12369 0.61845,0.20615 0.61845,0.22676 0.32984,0.4123 0.4123,0.4123 0.32984,0.39169 0.47414,0.65968 0.0412,0.43291 0.0618,0.72152 -0.0618,0.61845 -0.0618,0.49476 -0.14431,0.61845 -0.22676,0.57722 -0.45353,0.43291 -0.32984,0.37107 -0.43292,0.4123 -0.57721,0.24738 -0.47415,0.18554 h -1.05136 -0.61845 l -0.47415,-0.0206 -0.49475,-0.10307 -0.43292,-0.20615 -0.51537,-0.49476 -0.61845,-0.6803 -0.47415,-0.68029 -0.12369,-0.68029 -0.18553,-0.35046 z"
   id="path711-9"
   inkscape:connector-curvature="0" /><path
   style="fill:none;stroke:#ffcc00;stroke-width:1px;stroke-linecap:butt;stroke-linejoin:miter;stroke-opacity:1"
   d="m 255.85446,165.10669 v -0.47415 l 0.12369,-0.45352 0.20615,-0.49476 0.32984,-0.6803 0.32984,-0.43291 0.30922,-0.28861 0.49476,-0.55661 0.45353,-0.20615 0.6803,-0.28861 0.72152,0.0206 h 0.72152 l 0.70091,0.12369 0.61845,0.20615 0.61845,0.22676 0.32984,0.4123 0.4123,0.4123 0.32984,0.39169 0.47414,0.65968 0.0412,0.43291 0.0618,0.72152 -0.0618,0.61845 -0.0618,0.49476 -0.14431,0.61845 -0.22676,0.57722 -0.45353,0.43291 -0.32984,0.37107 -0.43292,0.4123 -0.57721,0.24738 -0.47415,0.18554 h -1.05136 -0.61845 l -0.47415,-0.0206 -0.49475,-0.10307 -0.43292,-0.20615 -0.51537,-0.49476 -0.61845,-0.6803 -0.47415,-0.68029 -0.12369,-0.68029 -0.18553,-0.35046 z"
   id="path711-22"
   inkscape:connector-curvature="0" /><path
   style="fill:none;stroke:#ffcc00;stroke-width:1.01296914px;stroke-linecap:butt;stroke-linejoin:miter;stroke-opacity:1"
   d="m 249.09074,149.96692 v -0.48653 l 0.12369,-0.46536 0.20615,-0.50768 0.32984,-0.69806 0.32984,-0.44421 0.30922,-0.29615 0.49476,-0.57114 0.45353,-0.21153 0.6803,-0.29614 0.72152,0.0211 h 0.72152 l 0.70091,0.12692 0.61845,0.21153 0.61845,0.23268 0.32984,0.42307 0.4123,0.42306 0.32984,0.40192 0.47414,0.6769 0.0412,0.44421 0.0618,0.74036 -0.0618,0.63459 -0.0618,0.50768 -0.14431,0.6346 -0.22676,0.59229 -0.45353,0.44421 -0.32984,0.38075 -0.43292,0.42307 -0.57721,0.25384 -0.47415,0.19038 h -1.05136 -0.61845 l -0.47415,-0.0211 -0.49475,-0.10576 -0.43292,-0.21153 -0.51537,-0.50768 -0.61845,-0.69806 -0.47415,-0.69805 -0.12369,-0.69805 -0.18553,-0.35961 z"
   id="path711-8"
   inkscape:connector-curvature="0" /><path
   style="fill:none;stroke:#ffcc00;stroke-width:1px;stroke-linecap:butt;stroke-linejoin:miter;stroke-opacity:1"
   d="m 256.78739,124.99083 v -0.47415 l 0.12369,-0.45352 0.20615,-0.49476 0.32984,-0.6803 0.32984,-0.43291 0.30922,-0.28861 0.49476,-0.55661 0.45353,-0.20615 0.6803,-0.28861 0.72152,0.0206 h 0.72152 l 0.70091,0.12369 0.61845,0.20615 0.61845,0.22676 0.32984,0.4123 0.4123,0.4123 0.32984,0.39169 0.47414,0.65968 0.0412,0.43291 0.0618,0.72152 -0.0618,0.61845 -0.0618,0.49476 -0.14431,0.61845 -0.22676,0.57722 -0.45353,0.43291 -0.32984,0.37107 -0.43292,0.4123 -0.57721,0.24738 -0.47415,0.18554 h -1.05136 -0.61845 l -0.47415,-0.0206 -0.49475,-0.10307 -0.43292,-0.20615 -0.51537,-0.49476 -0.61845,-0.6803 -0.47415,-0.68029 -0.12369,-0.68029 -0.18553,-0.35046 z"
   id="path711-97"
   inkscape:connector-curvature="0" /><path
   style="fill:none;stroke:#ffcc00;stroke-width:1px;stroke-linecap:butt;stroke-linejoin:miter;stroke-opacity:1"
   d="m 272.41391,118.69358 v -0.47415 l 0.12369,-0.45352 0.20615,-0.49476 0.32984,-0.6803 0.32984,-0.43291 0.30922,-0.28861 0.49476,-0.55661 0.45353,-0.20615 0.6803,-0.28861 0.72152,0.0206 h 0.72152 l 0.70091,0.12369 0.61845,0.20615 0.61845,0.22676 0.32984,0.4123 0.4123,0.4123 0.32984,0.39169 0.47414,0.65968 0.0412,0.43291 0.0618,0.72152 -0.0618,0.61845 -0.0618,0.49476 -0.14431,0.61845 -0.22676,0.57722 -0.45353,0.43291 -0.32984,0.37107 -0.43292,0.4123 -0.57721,0.24738 -0.47415,0.18554 h -1.05136 -0.61845 l -0.47415,-0.0206 -0.49475,-0.10307 -0.43292,-0.20615 -0.51537,-0.49476 -0.61845,-0.6803 -0.47415,-0.68029 -0.12369,-0.68029 -0.18553,-0.35046 z"
   id="path711-36"
   inkscape:connector-curvature="0" /><path
   style="fill:none;stroke:#ffcc00;stroke-width:1px;stroke-linecap:butt;stroke-linejoin:miter;stroke-opacity:1"
   d="m 403.02367,214.43519 v -0.47415 l 0.12369,-0.45352 0.20615,-0.49476 0.32984,-0.6803 0.32984,-0.43291 0.30922,-0.28861 0.49476,-0.55661 0.45353,-0.20615 0.6803,-0.28861 0.72152,0.0206 h 0.72152 l 0.70091,0.12369 0.61845,0.20615 0.61845,0.22676 0.32984,0.4123 0.4123,0.4123 0.32984,0.39169 0.47414,0.65968 0.0412,0.43291 0.0618,0.72152 -0.0618,0.61845 -0.0618,0.49476 -0.14431,0.61845 -0.22676,0.57722 -0.45353,0.43291 -0.32984,0.37107 -0.43292,0.4123 -0.57721,0.24738 -0.47415,0.18554 h -1.05136 -0.61845 l -0.47415,-0.0206 -0.49475,-0.10307 -0.43292,-0.20615 -0.51537,-0.49476 -0.61845,-0.6803 -0.47415,-0.68029 -0.12369,-0.68029 -0.18553,-0.35046 z"
   id="path711-1"
   inkscape:connector-curvature="0" /><path
   style="fill:none;stroke:#ffcc00;stroke-width:1px;stroke-linecap:butt;stroke-linejoin:miter;stroke-opacity:1"
   d="m 418.76681,207.90471 v -0.47415 l 0.12369,-0.45352 0.20615,-0.49476 0.32984,-0.6803 0.32984,-0.43291 0.30922,-0.28861 0.49476,-0.55661 0.45353,-0.20615 0.6803,-0.28861 0.72152,0.0206 h 0.72152 l 0.70091,0.12369 0.61845,0.20615 0.61845,0.22676 0.32984,0.4123 0.4123,0.4123 0.32984,0.39169 0.47414,0.65968 0.0412,0.43291 0.0618,0.72152 -0.0618,0.61845 -0.0618,0.49476 -0.14431,0.61845 -0.22676,0.57722 -0.45353,0.43291 -0.32984,0.37107 -0.43292,0.4123 -0.57721,0.24738 -0.47415,0.18554 h -1.05136 -0.61845 l -0.47415,-0.0206 -0.49475,-0.10307 -0.43292,-0.20615 -0.51537,-0.49476 -0.61845,-0.6803 -0.47415,-0.68029 -0.12369,-0.68029 -0.18553,-0.35046 z"
   id="path711-29"
   inkscape:connector-curvature="0" /><path
   style="fill:none;stroke:#ffcc00;stroke-width:1px;stroke-linecap:butt;stroke-linejoin:miter;stroke-opacity:1"
   d="m 426.11361,183.29876 v -0.47415 l 0.12369,-0.45352 0.20615,-0.49476 0.32984,-0.6803 0.32984,-0.43291 0.30922,-0.28861 0.49476,-0.55661 0.45353,-0.20615 0.6803,-0.28861 0.72152,0.0206 h 0.72152 l 0.70091,0.12369 0.61845,0.20615 0.61845,0.22676 0.32984,0.4123 0.4123,0.4123 0.32984,0.39169 0.47414,0.65968 0.0412,0.43291 0.0618,0.72152 -0.0618,0.61845 -0.0618,0.49476 -0.14431,0.61845 -0.22676,0.57722 -0.45353,0.43291 -0.32984,0.37107 -0.43292,0.4123 -0.57721,0.24738 -0.47415,0.18554 h -1.05136 -0.61845 l -0.47415,-0.0206 -0.49475,-0.10307 -0.43292,-0.20615 -0.51537,-0.49476 -0.61845,-0.6803 -0.47415,-0.68029 -0.12369,-0.68029 -0.18553,-0.35046 z"
   id="path711-31"
   inkscape:connector-curvature="0" /><path
   style="fill:none;stroke:#ffcc00;stroke-width:1px;stroke-linecap:butt;stroke-linejoin:miter;stroke-opacity:1"
   d="m 419.81635,167.78885 v -0.47415 l 0.12369,-0.45352 0.20615,-0.49476 0.32984,-0.6803 0.32984,-0.43291 0.30922,-0.28861 0.49476,-0.55661 0.45353,-0.20615 0.6803,-0.28861 0.72152,0.0206 h 0.72152 l 0.70091,0.12369 0.61845,0.20615 0.61845,0.22676 0.32984,0.4123 0.4123,0.4123 0.32984,0.39169 0.47414,0.65968 0.0412,0.43291 0.0618,0.72152 -0.0618,0.61845 -0.0618,0.49476 -0.14431,0.61845 -0.22676,0.57722 -0.45353,0.43291 -0.32984,0.37107 -0.43292,0.4123 -0.57721,0.24738 -0.47415,0.18554 h -1.05136 -0.61845 l -0.47415,-0.0206 -0.49475,-0.10307 -0.43292,-0.20615 -0.51537,-0.49476 -0.61845,-0.6803 -0.47415,-0.68029 -0.12369,-0.68029 -0.18553,-0.35046 z"
   id="path711-94"
   inkscape:connector-curvature="0" /><path
   style="fill:none;stroke:#ffcc00;stroke-width:1px;stroke-linecap:butt;stroke-linejoin:miter;stroke-opacity:1"
   d="m 413.05263,152.27894 v -0.47415 l 0.12369,-0.45352 0.20615,-0.49476 0.32984,-0.6803 0.32984,-0.43291 0.30922,-0.28861 0.49476,-0.55661 0.45353,-0.20615 0.6803,-0.28861 0.72152,0.0206 h 0.72152 l 0.70091,0.12369 0.61845,0.20615 0.61845,0.22676 0.32984,0.4123 0.4123,0.4123 0.32984,0.39169 0.47414,0.65968 0.0412,0.43291 0.0618,0.72152 -0.0618,0.61845 -0.0618,0.49476 -0.14431,0.61845 -0.22676,0.57722 -0.45353,0.43291 -0.32984,0.37107 -0.43292,0.4123 -0.57721,0.24738 -0.47415,0.18554 h -1.05136 -0.61845 l -0.47415,-0.0206 -0.49475,-0.10307 -0.43292,-0.20615 -0.51537,-0.49476 -0.61845,-0.6803 -0.47415,-0.68029 -0.12369,-0.68029 -0.18553,-0.35046 z"
   id="path711-7"
   inkscape:connector-curvature="0" /><path
   style="fill:none;stroke:#ffcc00;stroke-width:1px;stroke-linecap:butt;stroke-linejoin:miter;stroke-opacity:1"
   d="m 264.41229,30.424672 v -0.47415 l 0.12369,-0.45352 0.20615,-0.49476 0.32984,-0.6803 0.32984,-0.43291 0.30922,-0.28861 0.49476,-0.55661 0.45353,-0.20615 0.6803,-0.28861 0.72152,0.0206 h 0.72152 l 0.70091,0.12369 0.61845,0.20615 0.61845,0.22676 0.32984,0.4123 0.4123,0.4123 0.32984,0.39169 0.47414,0.65968 0.0412,0.43291 0.0618,0.72152 -0.0618,0.618454 -0.0618,0.49476 -0.14431,0.61845 -0.22676,0.57722 -0.45353,0.43291 -0.32984,0.371066 -0.43292,0.4123 -0.57721,0.24738 -0.47415,0.18554 h -1.05136 -0.61845 l -0.47415,-0.0206 -0.49475,-0.10307 -0.43292,-0.20615 -0.51537,-0.49476 -0.61845,-0.680296 -0.47415,-0.68029 -0.12369,-0.68029 -0.18553,-0.35046 z"
   id="path711-84"
   inkscape:connector-curvature="0" /><path
   style="fill:none;stroke:#ffcc00;stroke-width:1px;stroke-linecap:butt;stroke-linejoin:miter;stroke-opacity:1"
   d="m 301.31706,30.507132 v -0.47415 l 0.12369,-0.45352 0.20615,-0.49476 0.32984,-0.6803 0.32984,-0.43291 0.30922,-0.28861 0.49476,-0.55661 0.45353,-0.20615 0.6803,-0.28861 0.72152,0.0206 h 0.72152 l 0.70091,0.12369 0.61845,0.20615 0.61845,0.22676 0.32984,0.4123 0.4123,0.4123 0.32984,0.39169 0.47414,0.65968 0.0412,0.43291 0.0618,0.72152 -0.0618,0.618454 -0.0618,0.49476 -0.14431,0.61845 -0.22676,0.57722 -0.45353,0.43291 -0.32984,0.371066 -0.43292,0.4123 -0.57721,0.24738 -0.47415,0.18554 h -1.05136 -0.61845 l -0.47415,-0.0206 -0.49475,-0.10307 -0.43292,-0.20615 -0.51537,-0.49476 -0.61845,-0.680296 -0.47415,-0.68029 -0.12369,-0.68029 -0.18553,-0.35046 z"
   id="path711-5"
   inkscape:connector-curvature="0" /><path
   style="fill:none;stroke:#ffcc00;stroke-width:1px;stroke-linecap:butt;stroke-linejoin:miter;stroke-opacity:1"
   d="m 337.48555,30.531995 v -0.47415 l 0.12369,-0.45352 0.20615,-0.49476 0.32984,-0.6803 0.32984,-0.43291 0.30922,-0.28861 0.49476,-0.55661 0.45353,-0.20615 0.6803,-0.28861 0.72152,0.0206 h 0.72152 l 0.70091,0.12369 0.61845,0.20615 0.61845,0.22676 0.32984,0.4123 0.4123,0.4123 0.32984,0.39169 0.47414,0.65968 0.0412,0.43291 0.0618,0.72152 -0.0618,0.61845 -0.0618,0.49476 -0.14431,0.61845 -0.22676,0.57722 -0.45353,0.43291 -0.32984,0.371067 -0.43292,0.4123 -0.57721,0.24738 -0.47415,0.18554 h -1.05136 -0.61845 l -0.47415,-0.0206 -0.49475,-0.10307 -0.43292,-0.20615 -0.51537,-0.49476 -0.61845,-0.680297 -0.47415,-0.68029 -0.12369,-0.68029 -0.18553,-0.35046 z"
   id="path711-0"
   inkscape:connector-curvature="0" /><path
   style="fill:none;stroke:#ffcc00;stroke-width:1px;stroke-linecap:butt;stroke-linejoin:miter;stroke-opacity:1"
   d="m 402.67382,20.852879 v -0.47415 l 0.12369,-0.45352 0.20615,-0.49476 0.32984,-0.6803 0.32984,-0.43291 0.30922,-0.28861 0.49476,-0.55661 0.45353,-0.20615 0.6803,-0.28861 0.72152,0.0206 h 0.72152 l 0.70091,0.12369 0.61845,0.20615 0.61845,0.22676 0.32984,0.4123 0.4123,0.4123 0.32984,0.39169 0.47414,0.65968 0.0412,0.43291 0.0618,0.72152 -0.0618,0.61845 -0.0618,0.49476 -0.14431,0.61845 -0.22676,0.57722 -0.45353,0.43291 -0.32984,0.37107 -0.43292,0.4123 -0.57721,0.24738 -0.47415,0.18554 h -1.05136 -0.61845 l -0.47415,-0.0206 -0.49475,-0.10307 -0.43292,-0.20615 -0.51537,-0.49476 -0.61845,-0.6803 -0.47415,-0.68029 -0.12369,-0.68029 -0.18553,-0.35046 z"
   id="path711-361"
   inkscape:connector-curvature="0" /><path
   style="fill:none;stroke:#ffcc00;stroke-width:1px;stroke-linecap:butt;stroke-linejoin:miter;stroke-opacity:1"
   d="m 402.67382,39.511412 v -0.47415 l 0.12369,-0.45352 0.20615,-0.49476 0.32984,-0.6803 0.32984,-0.43291 0.30922,-0.28861 0.49476,-0.55661 0.45353,-0.20615 0.6803,-0.28861 0.72152,0.0206 h 0.72152 l 0.70091,0.12369 0.61845,0.20615 0.61845,0.22676 0.32984,0.4123 0.4123,0.4123 0.32984,0.39169 0.47414,0.65968 0.0412,0.43291 0.0618,0.72152 -0.0618,0.61845 -0.0618,0.49476 -0.14431,0.61845 -0.22676,0.57722 -0.45353,0.43291 -0.32984,0.37107 -0.43292,0.4123 -0.57721,0.24738 -0.47415,0.18554 h -1.05136 -0.61845 l -0.47415,-0.0206 -0.49475,-0.10307 -0.43292,-0.20615 -0.51537,-0.49476 -0.61845,-0.6803 -0.47415,-0.68029 -0.12369,-0.68029 -0.18553,-0.35046 z"
   id="path711-06"
   inkscape:connector-curvature="0" /></svg>