<?xml version="1.0" encoding="UTF-8" standalone="no"?>
<!-- Generator: Adobe Illustrator 24.0.1, SVG Export Plug-In . SVG Version: 6.00 Build 0)  -->

<svg
   xmlns:dc="http://purl.org/dc/elements/1.1/"
   xmlns:cc="http://creativecommons.org/ns#"
   xmlns:rdf="http://www.w3.org/1999/02/22-rdf-syntax-ns#"
   xmlns:svg="http://www.w3.org/2000/svg"
   xmlns="http://www.w3.org/2000/svg"
   xmlns:sodipodi="http://sodipodi.sourceforge.net/DTD/sodipodi-0.dtd"
   xmlns:inkscape="http://www.inkscape.org/namespaces/inkscape"
   version="1.1"
   x="0px"
   y="0px"
   viewBox="0 0 678.6532 333.63528"
   xml:space="preserve"
   id="svg173"
   sodipodi:docname="2020map.svg"
   inkscape:version="0.92.4 (unknown)"
   width="678.6532"
   height="333.63528"><metadata
   id="metadata179"><rdf:RDF><cc:Work
       rdf:about=""><dc:format>image/svg+xml</dc:format><dc:type
         rdf:resource="http://purl.org/dc/dcmitype/StillImage" /></cc:Work></rdf:RDF></metadata><defs
   id="defs177" /><sodipodi:namedview
   pagecolor="#ffffff"
   bordercolor="#666666"
   borderopacity="1"
   objecttolerance="10"
   gridtolerance="10"
   guidetolerance="10"
   inkscape:pageopacity="0"
   inkscape:pageshadow="2"
   inkscape:window-width="2188"
   inkscape:window-height="1274"
   id="namedview175"
   showgrid="false"
   inkscape:zoom="1.7843137"
   inkscape:cx="339.12"
   inkscape:cy="112.86754"
   inkscape:window-x="1448"
   inkscape:window-y="65"
   inkscape:window-maximized="0"
   inkscape:current-layer="svg173" />
<style
   type="text/css"
   id="style2">
	.st0{fill-rule:evenodd;clip-rule:evenodd;}
	.st1{font-family:'Times-Roman';}
	.st2{font-size:18px;}
	.st3{enable-background:new    ;}
	.st4{fill-rule:evenodd;clip-rule:evenodd;fill:#FFFFFF;}
</style>


<g
   id="B2"
   transform="translate(-128.88,-66.439694)">
	<text
   transform="rotate(90,-42.26415,173.91115)"
   class="st1 st2"
   id="text79"
   style="font-size:18px;font-family:Times-Roman">B2</text>




</g>
<g
   id="R2"
   transform="translate(-128.88,-66.439694)">
	<text
   transform="rotate(-90,529.083,-278.4502)"
   class="st1 st2"
   id="text82"
   style="font-size:18px;font-family:Times-Roman">R2</text>




</g>
<g
   id="R1"
   transform="translate(-128.88,-66.439694)">
	<text
   transform="matrix(0.3415,-0.9399,0.9399,0.3415,791.4126,378.3218)"
   class="st1 st2"
   id="text85"
   style="font-size:18px;font-family:Times-Roman">R1</text>




</g>
<g
   id="R3"
   transform="translate(-128.88,-66.439694)">
	<text
   transform="rotate(-109.93171,436.89047,-225.83722)"
   class="st1 st2"
   id="text88"
   style="font-size:18px;font-family:Times-Roman">R3</text>




</g>
<g
   id="B3"
   transform="translate(-128.88,-66.439694)">
	<text
   transform="matrix(0.3385,0.941,-0.941,0.3385,141.9395,358.9518)"
   class="st1 st2"
   id="text91"
   style="font-size:18px;font-family:Times-Roman">B3</text>




</g>
<g
   id="B1"
   transform="translate(-128.88,-66.439694)">
	<text
   transform="matrix(-0.3412,0.94,-0.94,-0.3412,148.7245,88.6163)"
   class="st1 st2"
   id="text94"
   style="font-size:18px;font-family:Times-Roman">B1</text>




</g>
<g
   id="Corner_1_"
   transform="translate(-128.88,-66.439694)">
	<g
   id="Shape_20">
		<g
   id="g99">
			
				<rect
   x="416.70999"
   y="327.35999"
   transform="matrix(0.9312,-0.3644,0.3644,0.9312,-90.667,176.5988)"
   class="st0"
   width="11.86"
   height="2.4000001"
   id="rect97"
   style="clip-rule:evenodd;fill-rule:evenodd" />
		</g>
	</g>
	<g
   id="Shape_20_copy">
		<g
   id="g104">
			<polygon
   class="st0"
   points="430.03,337.2 432.24,336.32 427.97,325.2 425.76,326.08 "
   id="polygon102"
   style="clip-rule:evenodd;fill-rule:evenodd" />
		</g>
	</g>
</g>
<g
   id="Corner_copy_2_1_"
   transform="translate(-128.88,-66.439694)">
	<g
   id="Shape_20_1_">
		<g
   id="g110">
			
				<rect
   x="370.94"
   y="187.13"
   transform="matrix(0.9363,-0.3513,0.3513,0.9363,-44.1019,143.0394)"
   class="st0"
   width="2.4000001"
   height="11.86"
   id="rect108"
   style="clip-rule:evenodd;fill-rule:evenodd" />
		</g>
	</g>
	<g
   id="Shape_20_copy_1_">
		<g
   id="g115">
			<polygon
   class="st0"
   points="364.24,202.8 375.23,198.22 374.29,196.03 363.29,200.62 "
   id="polygon113"
   style="clip-rule:evenodd;fill-rule:evenodd" />
		</g>
	</g>
</g>
<g
   id="Corner_copy_3_1_"
   transform="translate(-128.88,-66.439694)">
	<g
   id="Shape_20_2_">
		<g
   id="g121">
			
				<rect
   x="511.64001"
   y="137.2"
   transform="matrix(0.9312,-0.3644,0.3644,0.9312,-14.847,198.1167)"
   class="st0"
   width="11.86"
   height="2.4000001"
   id="rect119"
   style="clip-rule:evenodd;fill-rule:evenodd" />
		</g>
	</g>
	<g
   id="Shape_20_copy_2_">
		<g
   id="g126">
			<polygon
   class="st0"
   points="512.23,141.52 514.44,140.64 510.17,129.52 507.96,130.4 "
   id="polygon124"
   style="clip-rule:evenodd;fill-rule:evenodd" />
		</g>
	</g>
</g>
<g
   id="Corner_copy_1_"
   transform="translate(-128.88,-66.439694)">
	<g
   id="Shape_20_3_">
		<g
   id="g132">
			
				<rect
   x="567.02002"
   y="267.57001"
   transform="matrix(0.9182,-0.3962,0.3962,0.9182,-61.8603,247.5005)"
   class="st0"
   width="2.4000001"
   height="11.86"
   id="rect130"
   style="clip-rule:evenodd;fill-rule:evenodd" />
		</g>
	</g>
	<g
   id="Shape_20_copy_3_">
		<g
   id="g137">
			<polygon
   class="st0"
   points="565.74,270.38 576.86,266.11 575.98,263.9 564.86,268.17 "
   id="polygon135"
   style="clip-rule:evenodd;fill-rule:evenodd" />
		</g>
	</g>
</g>

<g
   id="Shape_22_1_"
   class="st3"
   style="enable-background:new"
   transform="translate(-128.88,-66.439694)">
	<g
   id="Shape_22">
		<g
   id="g149">
			<rect
   x="128.88"
   y="326.16"
   class="st0"
   width="14.4"
   height="2.4000001"
   id="rect147"
   style="clip-rule:evenodd;fill-rule:evenodd" />
		</g>
	</g>
</g>


<path
   style="fill:none;stroke:#000000;stroke-width:1px;stroke-linecap:butt;stroke-linejoin:miter;stroke-opacity:1"
   d="M 47.182015,330.49054 21.352555,260.38202 20.825425,71.141706 45.600615,1.5603063 H 635.98822 L 663.9262,74.304496 662.87194,261.96341 637.04248,333.1262 Z"
   id="path3886"
   inkscape:connector-curvature="0" /><path
   style="fill:none;stroke:#000000;stroke-width:1px;stroke-linecap:butt;stroke-linejoin:miter;stroke-opacity:1"
   d="m 144.7014,1.5603063 -1.05427,329.9845037 88.03101,-0.52714 -1.05426,-54.8217 h 218.23255 l 1.05427,55.34884 88.03101,1.05426 L 538.99597,1.0331743 448.85643,0.50604232 449.9107,57.436276 232.20527,59.017666 231.67814,0.50604232 Z"
   id="path3888"
   inkscape:connector-curvature="0" /><path
   style="fill:none;stroke:#000000;stroke-width:1px;stroke-linecap:butt;stroke-linejoin:miter;stroke-opacity:1"
   d="M 230.62388,124.38202 390.34481,61.653326 449.38357,206.08744 292.82543,271.97891 227.98822,123.85488 Z"
   id="path3890"
   inkscape:connector-curvature="0" /><path
   style="fill:none;stroke:#000000;stroke-width:1px;stroke-linecap:butt;stroke-linejoin:miter;stroke-opacity:1"
   d="M 663.9262,74.304496 662.87194,261.96341 637.04248,333.1262 47.182015,330.49054 21.352555,260.38202 20.825425,71.141706 45.600615,1.5603063 H 635.98822 L 663.9262,74.304496"
   id="path3820"
   inkscape:connector-curvature="0" /><path
   style="fill:none;stroke:#000000;stroke-width:1px;stroke-linecap:butt;stroke-linejoin:miter;stroke-opacity:1"
   d="M 144.7014,1.5603063 143.64713,331.54481"
   id="path3822"
   inkscape:connector-curvature="0" /><path
   style="fill:none;stroke:#000000;stroke-width:1px;stroke-linecap:butt;stroke-linejoin:miter;stroke-opacity:1"
   d="M 240.068,121.49831 303.36,269.88031 440.60765,212.9801 381.29,63.080306 Z"
   id="path3824"
   inkscape:connector-curvature="0" /><path
   style="fill:none;stroke:#000000;stroke-width:1px;stroke-linecap:butt;stroke-linejoin:miter;stroke-opacity:1"
   d="m 240.068,121.49831 -9.44412,2.88371 62.20155,147.59689 10.53457,-2.0986 z"
   id="path3826"
   inkscape:connector-curvature="0" /><path
   style="fill:none;stroke:#000000;stroke-width:1px;stroke-linecap:butt;stroke-linejoin:miter;stroke-opacity:1"
   d="m 234.41,134.18031 160.21644,-63.271194 -4.28163,-9.25579 -9.05481,1.42698 59.31765,149.899794 8.77592,-6.89266 -2.28357,-8.62713 -11.19128,4.62995"
   id="path3828"
   inkscape:connector-curvature="0" /><path
   style="fill:none;stroke:#000000;stroke-width:1px;stroke-linecap:butt;stroke-linejoin:miter;stroke-opacity:1"
   d="M 299.7019,261.0607 438.11242,201.13937"
   id="path3830"
   inkscape:connector-curvature="0" /><path
   style="fill:none;stroke:#000000;stroke-width:1px;stroke-linecap:butt;stroke-linejoin:miter;stroke-opacity:1"
   d="m 372.94946,2.0874313 -1.05426,53.7674447 28.99225,0.52713 0.52713,-53.7674427 z"
   id="path3832"
   inkscape:connector-curvature="0" /><path
   style="fill:none;stroke:#000000;stroke-width:1px;stroke-linecap:butt;stroke-linejoin:miter;stroke-opacity:1"
   d="m 280.7014,276.19597 0.52713,56.4031 28.99225,0.52713 0.52713,-55.87597 z"
   id="path3854"
   inkscape:connector-curvature="0" /><path
   style="fill:none;stroke:#000000;stroke-width:1px;stroke-linecap:butt;stroke-linejoin:miter;stroke-opacity:1"
   d="m 269.23,193.52031 141.76,-58.46 2.1,5.1 -141.76,58.46 z"
   id="path3856"
   inkscape:connector-curvature="0" /><path
   style="fill:none;stroke:#000000;stroke-width:1px;stroke-linecap:butt;stroke-linejoin:miter;stroke-opacity:1"
   d="M 299.66628,219.9969 302.73,227.32031 416.40156,179.70704 413.35,172.42031 Z"
   id="path3858"
   inkscape:connector-curvature="0" /><path
   style="fill:none;stroke:#000000;stroke-width:1px;stroke-linecap:butt;stroke-linejoin:miter;stroke-opacity:1"
   d="m 266.30554,153.75925 3.06446,7.32106 113.67081,-47.61094 -3.0587,-7.30541 z"
   id="path3860"
   inkscape:connector-curvature="0" /><path
   style="fill:none;stroke:#000000;stroke-width:1px;stroke-linecap:butt;stroke-linejoin:miter;stroke-opacity:1"
   d="m 313.38357,102.76961 53.76744,129.67442 2.63566,-1.5814 -53.76744,-130.20155 z"
   id="path3862"
   inkscape:connector-curvature="0" /><path
   style="fill:none;stroke:#000000;stroke-width:1px;stroke-linecap:butt;stroke-linejoin:miter;stroke-opacity:1"
   d="m 20.960855,75.164366 29.0736,23.85526 -29.0736,23.109794 -0.37274,77.5296 27.95539,29.0736 -26.83717,26.83717"
   id="path130"
   inkscape:connector-curvature="0" /><path
   style="fill:none;stroke:#000000;stroke-width:1px;stroke-linecap:butt;stroke-linejoin:miter;stroke-opacity:1"
   d="m 663.9262,74.304496 -30.92879,31.051694 29.44634,30.19181 -0.37274,75.66591 -29.81907,23.85526 30.19181,22.36431"
   id="path132"
   inkscape:connector-curvature="0" /></svg>