<?xml version="1.0" encoding="UTF-8" standalone="no"?>
<!-- Created with Inkscape (http://www.inkscape.org/) -->

<svg
   xmlns:dc="http://purl.org/dc/elements/1.1/"
   xmlns:cc="http://creativecommons.org/ns#"
   xmlns:rdf="http://www.w3.org/1999/02/22-rdf-syntax-ns#"
   xmlns:svg="http://www.w3.org/2000/svg"
   xmlns="http://www.w3.org/2000/svg"
   xmlns:sodipodi="http://sodipodi.sourceforge.net/DTD/sodipodi-0.dtd"
   xmlns:inkscape="http://www.inkscape.org/namespaces/inkscape"
   version="1.1"
   id="svg2"
   width="3819.5427"
   height="1893.1554"
   viewBox="0 0 3819.5428 1893.1554"
   sodipodi:docname="2019map.svg"
   inkscape:version="0.92.4 (unknown)">
  <metadata
     id="metadata8">
    <rdf:RDF>
      <cc:Work
         rdf:about="">
        <dc:format>image/svg+xml</dc:format>
        <dc:type
           rdf:resource="http://purl.org/dc/dcmitype/StillImage" />
        <dc:title />
      </cc:Work>
    </rdf:RDF>
  </metadata>
  <defs
     id="defs6" />
  <sodipodi:namedview
     pagecolor="#ffffff"
     bordercolor="#666666"
     borderopacity="1"
     objecttolerance="10"
     gridtolerance="10"
     guidetolerance="10"
     inkscape:pageopacity="0"
     inkscape:pageshadow="2"
     inkscape:window-width="2560"
     inkscape:window-height="1375"
     id="namedview4"
     showgrid="false"
     inkscape:zoom="0.40905814"
     inkscape:cx="1910.8552"
     inkscape:cy="947.79903"
     inkscape:window-x="1280"
     inkscape:window-y="0"
     inkscape:window-maximized="1"
     inkscape:current-layer="svg2" />
  <path
     style="fill:none;stroke:#000000;stroke-width:1px;stroke-linecap:butt;stroke-linejoin:miter;stroke-opacity:1"
     d="M 15.172687,5.3921233 3804.365,10.281403 3806.8097,1892.6544 12.728047,1887.7651 Z"
     id="path12"
     inkscape:connector-curvature="0" />
  <path
     style="fill:none;stroke:#000000;stroke-width:1px;stroke-linecap:butt;stroke-linejoin:miter;stroke-opacity:1"
     d="M 574.99532,7.8367633 572.55062,1887.7651 v 0 l 1298.10398,2.4447 -7.3339,-1889.70695669 z"
     id="path14"
     inkscape:connector-curvature="0" />
  <path
     style="fill:none;stroke:#000000;stroke-width:1px;stroke-linecap:butt;stroke-linejoin:miter;stroke-opacity:1"
     d="M 1961.1063,10.281403 V 1890.2098 l 1295.6593,2.4446 V 2.9474833 Z"
     id="path16"
     inkscape:connector-curvature="0" />
  <path
     style="fill:none;stroke:#000000;stroke-width:1px;stroke-linecap:butt;stroke-linejoin:miter;stroke-opacity:1"
     d="m 1513.7371,49.395653 -78.2284,132.010567 -156.457,7.33392 -92.8964,-127.121287 v -51.33745 l 327.5818,-4.8892797 z"
     id="path18"
     inkscape:connector-curvature="0" />
  <path
     style="fill:none;stroke:#000000;stroke-width:1px;stroke-linecap:butt;stroke-linejoin:miter;stroke-opacity:1"
     d="m 2391.363,193.62942 -83.1178,-127.121287 7.3339,-56.22673 317.8033,4.88928 v 39.11425 L 2547.82,193.62942 Z"
     id="path20"
     inkscape:connector-curvature="0" />
  <path
     style="fill:none;stroke:#000000;stroke-width:1px;stroke-linecap:butt;stroke-linejoin:miter;stroke-opacity:1"
     d="m 2315.5791,1887.7651 v -44.0035 l 75.7839,-136.8999 156.457,-2.4446 88.007,134.4552 -2.4446,41.5589 z"
     id="path22"
     inkscape:connector-curvature="0" />
  <path
     style="fill:none;stroke:#000000;stroke-width:1px;stroke-linecap:butt;stroke-linejoin:miter;stroke-opacity:1"
     d="m 1518.6264,1885.3205 -4.8893,-39.1143 -88.007,-141.7891 -146.6784,-2.4446 -85.5624,136.8998 -7.334,41.5589 z"
     id="path24"
     inkscape:connector-curvature="0" />
  <path
     style="fill:none;stroke:#000000;stroke-width:1px;stroke-linecap:butt;stroke-linejoin:miter;stroke-opacity:1"
     d="m 1467.289,1085.9231 -158.9016,-9.7785 4.8892,-261.57651 151.5677,-2.4447 12.2232,-7.3339 860.5134,-2.4446 24.4464,26.891 h 127.1213 l 12.2232,239.57471 -141.7891,4.8893 -4.8893,14.6679 z"
     id="path26"
     inkscape:connector-curvature="0" />
  <path
     style="fill:none;stroke:#000000;stroke-width:1px;stroke-linecap:butt;stroke-linejoin:miter;stroke-opacity:1"
     d="m 1599.2995,799.90019 v 276.24441 l 119.7874,12.2232 4.8893,-290.91221 z"
     id="path28"
     inkscape:connector-curvature="0" />
  <path
     style="fill:none;stroke:#000000;stroke-width:1px;stroke-linecap:butt;stroke-linejoin:miter;stroke-opacity:1"
     d="m 2090.6722,1090.8124 4.8893,-290.91221 127.1213,-2.4446 4.8893,290.91221 z"
     id="path30"
     inkscape:connector-curvature="0" />
  <path
     style="fill:none;stroke:#000000;stroke-width:1px;stroke-linecap:butt;stroke-linejoin:miter;stroke-opacity:1"
     d="m 1846.2082,802.34489 -2.4446,278.68891 132.0105,2.4447 -2.4446,-276.24441 z"
     id="path32"
     inkscape:connector-curvature="0" />
  <path
     style="fill:none;stroke:#000000;stroke-width:1px;stroke-linecap:butt;stroke-linejoin:miter;stroke-opacity:1"
     d="m 3251.8764,1386.6139 9.7785,-870.29201 268.9104,2.4447 v -92.89635 l 286.0229,4.88928 2.4447,1041.41678 -290.9122,-4.8893 -2.4446,-75.7839 z"
     id="path34"
     inkscape:connector-curvature="0" />
  <path
     style="fill:none;stroke:#000000;stroke-width:1px;stroke-linecap:butt;stroke-linejoin:miter;stroke-opacity:1"
     d="m 3528.1207,1467.287 2.4446,-1041.41676 v 0 0"
     id="path36"
     inkscape:connector-curvature="0" />
  <path
     style="fill:none;stroke:#000000;stroke-width:1px;stroke-linecap:butt;stroke-linejoin:miter;stroke-opacity:1"
     d="m 3804.365,804.78949 -268.9104,7.3339 2.4447,273.79971 271.355,2.4447 z"
     id="path38"
     inkscape:connector-curvature="0" />
  <path
     style="fill:none;stroke:#000000;stroke-width:1px;stroke-linecap:butt;stroke-linejoin:miter;stroke-opacity:1"
     d="m 3533.01,577.43789 268.9104,2.4447 17.1125,892.29371 -290.9122,-4.8893 z"
     id="path40"
     inkscape:connector-curvature="0" />
  <path
     style="fill:none;stroke:#000000;stroke-width:1px;stroke-linecap:butt;stroke-linejoin:miter;stroke-opacity:1"
     d="m 288.9724,1384.1692 h 286.02292 l 4.8893,-872.73651 H 296.30632 V 430.75952 L 10.283407,428.31488 0.50484739,1477.0656 286.52776,1467.287 Z"
     id="path66"
     inkscape:connector-curvature="0" />
  <path
     style="fill:none;stroke:#000000;stroke-width:1px;stroke-linecap:butt;stroke-linejoin:miter;stroke-opacity:1"
     d="M 293.86168,587.21649 276.7492,1320.6086 15.172687,1327.9425 5.3941274,565.21469 Z"
     id="path68"
     inkscape:connector-curvature="0" />
  <path
     style="fill:none;stroke:#000000;stroke-width:1px;stroke-linecap:butt;stroke-linejoin:miter;stroke-opacity:1"
     d="m 22.506607,1098.1463 256.687233,-7.3339 V 790.12159 l -268.910433,2.4447 z"
     id="path70"
     inkscape:connector-curvature="0" />
</svg>
