<?xml version="1.0" encoding="UTF-8" standalone="no"?>
<!-- Generator: Adobe Illustrator 24.0.1, SVG Export Plug-In . SVG Version: 6.00 Build 0)  -->

<svg
   xmlns:dc="http://purl.org/dc/elements/1.1/"
   xmlns:cc="http://creativecommons.org/ns#"
   xmlns:rdf="http://www.w3.org/1999/02/22-rdf-syntax-ns#"
   xmlns:svg="http://www.w3.org/2000/svg"
   xmlns="http://www.w3.org/2000/svg"
   xmlns:sodipodi="http://sodipodi.sourceforge.net/DTD/sodipodi-0.dtd"
   xmlns:inkscape="http://www.inkscape.org/namespaces/inkscape"
   version="1.1"
   x="0px"
   y="0px"
   viewBox="0 0 679.6532 333.13849"
   xml:space="preserve"
   id="svg173"
   sodipodi:docname="2020map.svg"
   inkscape:version="0.92.4 (unknown)"
   width="679.6532"
   height="333.13849"><metadata
   id="metadata179"><rdf:RDF><cc:Work
       rdf:about=""><dc:format>image/svg+xml</dc:format><dc:type
         rdf:resource="http://purl.org/dc/dcmitype/StillImage" /><dc:title /></cc:Work></rdf:RDF></metadata><defs
   id="defs177" /><sodipodi:namedview
   pagecolor="#ffffff"
   bordercolor="#666666"
   borderopacity="1"
   objecttolerance="10"
   gridtolerance="10"
   guidetolerance="10"
   inkscape:pageopacity="0"
   inkscape:pageshadow="2"
   inkscape:window-width="2560"
   inkscape:window-height="1375"
   id="namedview175"
   showgrid="false"
   inkscape:zoom="1.0718954"
   inkscape:cx="73.735844"
   inkscape:cy="94.074977"
   inkscape:window-x="1280"
   inkscape:window-y="0"
   inkscape:window-maximized="1"
   inkscape:current-layer="svg173" />
<style
   type="text/css"
   id="style2">
	.st0{fill-rule:evenodd;clip-rule:evenodd;}
	.st1{font-family:'Times-Roman';}
	.st2{font-size:18px;}
	.st3{enable-background:new    ;}
	.st4{fill-rule:evenodd;clip-rule:evenodd;fill:#FFFFFF;}
</style>


<g
   id="B2"
   style="stroke:#ffcc00"
   transform="matrix(1,0,0,-1,-128.38,400.07497)">
	<text
   transform="rotate(90,-42.26415,173.91115)"
   class="st1 st2"
   id="text79"
   style="font-size:18px;font-family:Times-Roman;stroke:#ffcc00">B2</text>







</g>
<g
   id="R2"
   style="stroke:#ffcc00"
   transform="matrix(1,0,0,-1,-128.38,400.07497)">
	<text
   transform="rotate(-90,529.083,-278.4502)"
   class="st1 st2"
   id="text82"
   style="font-size:18px;font-family:Times-Roman;stroke:#ffcc00">R2</text>







</g>
<g
   id="R1"
   style="stroke:#ffcc00"
   transform="matrix(1,0,0,-1,-128.38,400.07497)">
	<text
   transform="matrix(0.3415,-0.9399,0.9399,0.3415,791.4126,378.3218)"
   class="st1 st2"
   id="text85"
   style="font-size:18px;font-family:Times-Roman;stroke:#ffcc00">R1</text>







</g>
<g
   id="R3"
   style="stroke:#ffcc00"
   transform="matrix(1,0,0,-1,-128.38,400.07497)">
	<text
   transform="rotate(-109.93171,436.89047,-225.83722)"
   class="st1 st2"
   id="text88"
   style="font-size:18px;font-family:Times-Roman;stroke:#ffcc00">R3</text>







</g>
<g
   id="B3"
   style="stroke:#ffcc00"
   transform="matrix(1,0,0,-1,-128.38,400.07497)">
	<text
   transform="matrix(0.3385,0.941,-0.941,0.3385,141.9395,358.9518)"
   class="st1 st2"
   id="text91"
   style="font-size:18px;font-family:Times-Roman;stroke:#ffcc00">B3</text>







</g>
<g
   id="B1"
   style="stroke:#ffcc00"
   transform="matrix(1,0,0,-1,-128.38,400.07497)">
	<text
   transform="matrix(-0.3412,0.94,-0.94,-0.3412,148.7245,88.6163)"
   class="st1 st2"
   id="text94"
   style="font-size:18px;font-family:Times-Roman;stroke:#ffcc00">B1</text>







</g>
<g
   id="Corner_1_"
   style="stroke:#ffcc00"
   transform="matrix(1,0,0,-1,-128.38,400.07497)">
	<g
   id="Shape_20"
   style="stroke:#ffcc00">
		<g
   id="g99"
   style="stroke:#ffcc00">
			
				<rect
   x="416.70999"
   y="327.35999"
   transform="matrix(0.9312,-0.3644,0.3644,0.9312,-90.667,176.5988)"
   class="st0"
   width="11.86"
   height="2.4000001"
   id="rect97"
   style="clip-rule:evenodd;fill-rule:evenodd;stroke:#ffcc00" />
		</g>
	</g>
	<g
   id="Shape_20_copy"
   style="stroke:#ffcc00">
		<g
   id="g104"
   style="stroke:#ffcc00">
			<polygon
   class="st0"
   points="432.24,336.32 427.97,325.2 425.76,326.08 430.03,337.2 "
   id="polygon102"
   style="clip-rule:evenodd;fill-rule:evenodd;stroke:#ffcc00" />
		</g>
	</g>
</g>
<g
   id="Corner_copy_2_1_"
   style="stroke:#ffcc00"
   transform="matrix(1,0,0,-1,-128.38,400.07497)">
	<g
   id="Shape_20_1_"
   style="stroke:#ffcc00">
		<g
   id="g110"
   style="stroke:#ffcc00">
			
				<rect
   x="370.94"
   y="187.13"
   transform="matrix(0.9363,-0.3513,0.3513,0.9363,-44.1019,143.0394)"
   class="st0"
   width="2.4000001"
   height="11.86"
   id="rect108"
   style="clip-rule:evenodd;fill-rule:evenodd;stroke:#ffcc00" />
		</g>
	</g>
	<g
   id="Shape_20_copy_1_"
   style="stroke:#ffcc00">
		<g
   id="g115"
   style="stroke:#ffcc00">
			<polygon
   class="st0"
   points="375.23,198.22 374.29,196.03 363.29,200.62 364.24,202.8 "
   id="polygon113"
   style="clip-rule:evenodd;fill-rule:evenodd;stroke:#ffcc00" />
		</g>
	</g>
</g>
<g
   id="Corner_copy_3_1_"
   style="stroke:#ffcc00"
   transform="matrix(1,0,0,-1,-128.38,400.07497)">
	<g
   id="Shape_20_2_"
   style="stroke:#ffcc00">
		<g
   id="g121"
   style="stroke:#ffcc00">
			
				<rect
   x="511.64001"
   y="137.2"
   transform="matrix(0.9312,-0.3644,0.3644,0.9312,-14.847,198.1167)"
   class="st0"
   width="11.86"
   height="2.4000001"
   id="rect119"
   style="clip-rule:evenodd;fill-rule:evenodd;stroke:#ffcc00" />
		</g>
	</g>
	<g
   id="Shape_20_copy_2_"
   style="stroke:#ffcc00">
		<g
   id="g126"
   style="stroke:#ffcc00">
			<polygon
   class="st0"
   points="514.44,140.64 510.17,129.52 507.96,130.4 512.23,141.52 "
   id="polygon124"
   style="clip-rule:evenodd;fill-rule:evenodd;stroke:#ffcc00" />
		</g>
	</g>
</g>
<g
   id="Corner_copy_1_"
   style="stroke:#ffcc00"
   transform="matrix(1,0,0,-1,-128.38,400.07497)">
	<g
   id="Shape_20_3_"
   style="stroke:#ffcc00">
		<g
   id="g132"
   style="stroke:#ffcc00">
			
				<rect
   x="567.02002"
   y="267.57001"
   transform="matrix(0.9182,-0.3962,0.3962,0.9182,-61.8603,247.5005)"
   class="st0"
   width="2.4000001"
   height="11.86"
   id="rect130"
   style="clip-rule:evenodd;fill-rule:evenodd;stroke:#ffcc00" />
		</g>
	</g>
	<g
   id="Shape_20_copy_3_"
   style="stroke:#ffcc00">
		<g
   id="g137"
   style="stroke:#ffcc00">
			<polygon
   class="st0"
   points="576.86,266.11 575.98,263.9 564.86,268.17 565.74,270.38 "
   id="polygon135"
   style="clip-rule:evenodd;fill-rule:evenodd;stroke:#ffcc00" />
		</g>
	</g>
</g>

<g
   id="Shape_22_1_"
   class="st3"
   style="stroke:#ffcc00;enable-background:new"
   transform="matrix(1,0,0,-1,-128.38,400.07497)">
	<g
   id="Shape_22"
   style="stroke:#ffcc00">
		<g
   id="g149"
   style="stroke:#ffcc00">
			<rect
   x="128.88"
   y="326.16"
   class="st0"
   width="14.4"
   height="2.4000001"
   id="rect147"
   style="clip-rule:evenodd;fill-rule:evenodd;stroke:#ffcc00" />
		</g>
	</g>
</g>


<path
   style="fill:none;stroke:#ffcc00;stroke-width:1px;stroke-linecap:butt;stroke-linejoin:miter;stroke-opacity:1"
   d="m 47.682015,3.1447466 -25.82946,70.1085204 -0.52713,189.240303 24.77519,69.5814 H 636.48822 L 664.4262,259.33078 663.37194,71.671877 637.54248,0.5090866 Z"
   id="path3886"
   inkscape:connector-curvature="0" /><path
   style="fill:none;stroke:#ffcc00;stroke-width:1px;stroke-linecap:butt;stroke-linejoin:miter;stroke-opacity:1"
   d="M 231.12388,209.25327 390.84481,271.98195 449.88357,127.54785 293.32543,61.656377 228.48822,209.78041 Z"
   id="path3890"
   inkscape:connector-curvature="0" /><path
   style="fill:none;stroke:#ffcc00;stroke-width:1px;stroke-linecap:butt;stroke-linejoin:miter;stroke-opacity:1"
   d="M 664.4262,259.33078 663.37194,71.671877 637.54248,0.5090866 47.682015,3.1447466 21.852555,73.253267 l -0.52713,189.240303 24.77519,69.5814 H 636.48822 l 27.93798,-72.74419"
   id="path3820"
   inkscape:connector-curvature="0" /><path
   style="fill:none;stroke:#ffcc00;stroke-width:1px;stroke-linecap:butt;stroke-linejoin:miter;stroke-opacity:1"
   d="M 145.2014,332.07497 144.14713,2.0904766"
   id="path3822"
   inkscape:connector-curvature="0" /><path
   style="fill:none;stroke:#ffcc00;stroke-width:1px;stroke-linecap:butt;stroke-linejoin:miter;stroke-opacity:1"
   d="M 240.568,212.13698 303.86,63.754977 441.10765,120.65519 381.79,270.55497 Z"
   id="path3824"
   inkscape:connector-curvature="0" /><path
   style="fill:none;stroke:#ffcc00;stroke-width:1px;stroke-linecap:butt;stroke-linejoin:miter;stroke-opacity:1"
   d="m 240.568,212.13698 -9.44412,-2.88371 62.20155,-147.596893 10.53457,2.0986 z"
   id="path3826"
   inkscape:connector-curvature="0" /><path
   style="fill:none;stroke:#ffcc00;stroke-width:1px;stroke-linecap:butt;stroke-linejoin:miter;stroke-opacity:1"
   d="m 234.91,199.45498 160.21644,63.27118 -4.28163,9.25579 -9.05481,-1.42698 59.31765,-149.89978 8.77592,6.89266 -2.28357,8.62713 -11.19128,-4.62995"
   id="path3828"
   inkscape:connector-curvature="0" /><path
   style="fill:none;stroke:#ffcc00;stroke-width:1px;stroke-linecap:butt;stroke-linejoin:miter;stroke-opacity:1"
   d="M 300.2019,72.574587 438.61242,132.49592"
   id="path3830"
   inkscape:connector-curvature="0" /><path
   style="fill:none;stroke:#ffcc00;stroke-width:1px;stroke-linecap:butt;stroke-linejoin:miter;stroke-opacity:1"
   d="m 373.44946,331.54785 -1.05426,-53.76745 28.99225,-0.52713 0.52713,53.76745 z"
   id="path3832"
   inkscape:connector-curvature="0" /><path
   style="fill:none;stroke:#ffcc00;stroke-width:1px;stroke-linecap:butt;stroke-linejoin:miter;stroke-opacity:1"
   d="m 281.2014,57.439317 0.52713,-56.4031004 28.99225,-0.52713 0.52713,55.8759704 z"
   id="path3854"
   inkscape:connector-curvature="0" /><path
   style="fill:none;stroke:#ffcc00;stroke-width:1px;stroke-linecap:butt;stroke-linejoin:miter;stroke-opacity:1"
   d="m 269.73,140.11498 141.76,58.46 2.1,-5.1 -141.76,-58.46 z"
   id="path3856"
   inkscape:connector-curvature="0" /><path
   style="fill:none;stroke:#ffcc00;stroke-width:1px;stroke-linecap:butt;stroke-linejoin:miter;stroke-opacity:1"
   d="m 300.16628,113.63839 3.06372,-7.32341 113.67156,47.61327 -3.05156,7.28673 z"
   id="path3858"
   inkscape:connector-curvature="0" /><path
   style="fill:none;stroke:#ffcc00;stroke-width:1px;stroke-linecap:butt;stroke-linejoin:miter;stroke-opacity:1"
   d="m 266.80554,179.87604 3.06446,-7.32106 113.67081,47.61094 -3.0587,7.30541 z"
   id="path3860"
   inkscape:connector-curvature="0" /><path
   style="fill:none;stroke:#ffcc00;stroke-width:1px;stroke-linecap:butt;stroke-linejoin:miter;stroke-opacity:1"
   d="m 313.88357,230.86568 53.76744,-129.67442 2.63566,1.5814 -53.76744,130.20155 z"
   id="path3862"
   inkscape:connector-curvature="0" /><path
   style="fill:none;stroke:#ffcc00;stroke-width:1px;stroke-linecap:butt;stroke-linejoin:miter;stroke-opacity:1"
   d="m 21.460855,258.47091 29.0736,-23.85526 -29.0736,-23.10978 -0.37274,-77.5296 27.95539,-29.0736 -26.83717,-26.837173"
   id="path130"
   inkscape:connector-curvature="0" /><path
   style="fill:none;stroke:#ffcc00;stroke-width:1px;stroke-linecap:butt;stroke-linejoin:miter;stroke-opacity:1"
   d="m 664.4262,259.33078 -30.92879,-31.05168 29.44634,-30.19181 -0.37274,-75.66591 -29.81907,-23.855263 30.19181,-22.36431"
   id="path132"
   inkscape:connector-curvature="0" /><path
   style="fill:none;stroke:#ffcc00;stroke-width:1px;stroke-linecap:butt;stroke-linejoin:miter;stroke-opacity:1"
   d="m 47.682015,3.1447466 589.860465,-2.63566 25.82946,71.1627904 -0.80093,50.749503 0.37274,75.66591 1.48245,61.24349 -27.93798,72.74419 H 46.100615 l -24.77519,-69.5814 V 76.349367 Z"
   id="path363"
   inkscape:connector-curvature="0" /><path
   style="fill:none;stroke:#ffcc00;stroke-width:1px;stroke-linecap:butt;stroke-linejoin:miter;stroke-opacity:1"
   d="M 145.2014,332.07497 C 145.2014,3.1302966 144.14713,2.0904766 144.14713,2.0904766"
   id="path365"
   inkscape:connector-curvature="0" /><path
   style="fill:none;stroke:#ffcc00;stroke-width:1px;stroke-linecap:butt;stroke-linejoin:miter;stroke-opacity:1"
   d="m 539.49597,332.60211 c 0,-332.1105334 0,-329.4718134 0,-329.4718134"
   id="path367"
   inkscape:connector-curvature="0" /><path
   style="fill:none;stroke:#ffcc00;stroke-width:1px;stroke-linecap:butt;stroke-linejoin:miter;stroke-opacity:1"
   d="m 232.17814,333.12924 c 0.52713,-58.51163 0.52713,-58.51163 0.52713,-58.51163 l 217.70543,1.58139 -1.05427,56.93024"
   id="path373"
   inkscape:connector-curvature="0" /><path
   style="fill:none;stroke:#ffcc00;stroke-width:1px;stroke-linecap:butt;stroke-linejoin:miter;stroke-opacity:1"
   d="m 233.12403,2.4706166 c -0.32984,55.7428604 -0.32984,55.7428604 -0.32984,55.7428604 h 217.69403 l 0.32984,-55.7428604 v 0.98952 0 0.65968 0 0 l -0.32984,-2.30888"
   id="path379"
   inkscape:connector-curvature="0" /><path
   style="fill:none;stroke:#ffcc00;stroke-width:1px;stroke-linecap:butt;stroke-linejoin:miter;stroke-opacity:1"
   d="m 232.17814,333.12924 v -56.56205 h 218.63992 v 55.08319"
   id="path381"
   inkscape:connector-curvature="0" /><path
   style="fill:none;stroke:#ffcc00;stroke-width:1px;stroke-linecap:butt;stroke-linejoin:miter;stroke-opacity:1"
   d="m 449.88357,127.54785 c -59.03876,144.4341 -59.03876,144.4341 -59.03876,144.4341 l -156.31627,-64.55636 -3.40466,1.82768 159.43667,65.10981 61.57317,-148.56859 z"
   id="path383"
   inkscape:connector-curvature="0" /><path
   style="fill:none;stroke:#ffcc00;stroke-width:1px;stroke-linecap:butt;stroke-linejoin:miter;stroke-opacity:1"
   d="M 452.13372,125.79449 Z"
   id="path385"
   inkscape:connector-curvature="0" /><path
   style="fill:none;stroke:#ffcc00;stroke-width:1px;stroke-linecap:butt;stroke-linejoin:miter;stroke-opacity:1"
   d="m 449.88357,127.54785 c -59.03876,144.4341 -59.03876,144.4341 -59.03876,144.4341 v 0 l -156.31627,-64.55636 2.79878,-6.99695 157.79912,62.29752 -9.06644,-3.29119 -3.42933,8.86409 58.47698,-147.64387 11.02607,5.1393 -4.53372,10.38049 -43.97848,-19.24329"
   id="path387"
   inkscape:connector-curvature="0" /><path
   style="fill:none;stroke:#ffcc00;stroke-width:1px;stroke-linecap:butt;stroke-linejoin:miter;stroke-opacity:1"
   d="m 272.43677,39.556937 v 0.47415 l 0.12369,0.45352 0.20615,0.49476 0.32984,0.6803 0.32984,0.43291 0.30922,0.28861 0.49476,0.55661 0.45353,0.20615 0.6803,0.28861 0.72152,-0.0206 h 0.72152 l 0.70091,-0.12369 0.61845,-0.20615 0.61845,-0.22676 0.32984,-0.4123 0.4123,-0.4123 0.32984,-0.39169 0.47414,-0.65968 0.0412,-0.43291 0.0618,-0.72152 -0.0618,-0.61845 -0.0618,-0.49476 -0.14431,-0.61845 -0.22676,-0.57722 -0.45353,-0.43291 -0.32984,-0.37107 -0.43292,-0.4123 -0.57721,-0.24738 -0.47415,-0.18554 h -1.05136 -0.61845 l -0.47415,0.0206 -0.49475,0.10307 -0.43292,0.20615 -0.51537,0.49476 -0.61845,0.6803 -0.47415,0.68029 -0.12369,0.68029 -0.18553,0.35046 z"
   id="path711"
   inkscape:connector-curvature="0" /><path
   style="fill:none;stroke:#ffcc00;stroke-width:1px;stroke-linecap:butt;stroke-linejoin:miter;stroke-opacity:1"
   d="m 272.47222,20.804297 v 0.47415 l 0.12369,0.45352 0.20615,0.49476 0.32984,0.6803 0.32984,0.43291 0.30922,0.28861 0.49476,0.55661 0.45353,0.20615 0.6803,0.28861 0.72152,-0.0206 h 0.72152 l 0.70091,-0.12369 0.61845,-0.20615 0.61845,-0.22676 0.32984,-0.4123 0.4123,-0.4123 0.32984,-0.39169 0.47414,-0.65968 0.0412,-0.43291 0.0618,-0.72152 -0.0618,-0.61845 -0.0618,-0.49476 -0.14431,-0.61845 -0.22676,-0.57722 -0.45353,-0.43291 -0.32984,-0.37107 -0.43292,-0.4123 -0.57721,-0.24738 -0.47415,-0.18554 h -1.05136 -0.61845 l -0.47415,0.0206 -0.49475,0.10307 -0.43292,0.20615 -0.51537,0.49476 -0.61845,0.6803 -0.47415,0.68029 -0.12369,0.68029 -0.18553,0.35046 z"
   id="path711-3"
   inkscape:connector-curvature="0" /><path
   style="fill:none;stroke:#ffcc00;stroke-width:1px;stroke-linecap:butt;stroke-linejoin:miter;stroke-opacity:1"
   d="m 337.71879,30.191867 v 0.47415 l 0.12369,0.45352 0.20615,0.49476 0.32984,0.6803 0.32984,0.43291 0.30922,0.28861 0.49476,0.55661 0.45353,0.20615 0.6803,0.28861 0.72152,-0.0206 h 0.72152 l 0.70091,-0.12369 0.61845,-0.20615 0.61845,-0.22676 0.32984,-0.4123 0.4123,-0.4123 0.32984,-0.39169 0.47414,-0.65968 0.0412,-0.43291 0.0618,-0.72152 -0.0618,-0.61845 -0.0618,-0.49476 -0.14431,-0.61845 -0.22676,-0.57722 -0.45353,-0.43291 -0.32984,-0.37107 -0.43292,-0.4123 -0.57721,-0.24738 -0.47415,-0.18554 h -1.05136 -0.61845 l -0.47415,0.0206 -0.49475,0.10307 -0.43292,0.20615 -0.51537,0.49476 -0.61845,0.6803 -0.47415,0.68029 -0.12369,0.68029 -0.18553,0.35046 z"
   id="path711-35"
   inkscape:connector-curvature="0" /><path
   style="fill:none;stroke:#ffcc00;stroke-width:1px;stroke-linecap:butt;stroke-linejoin:miter;stroke-opacity:1"
   d="m 373.63647,30.191867 v 0.47415 l 0.12369,0.45352 0.20615,0.49476 0.32984,0.6803 0.32984,0.43291 0.30922,0.28861 0.49476,0.55661 0.45353,0.20615 0.6803,0.28861 0.72152,-0.0206 h 0.72152 l 0.70091,-0.12369 0.61845,-0.20615 0.61845,-0.22676 0.32984,-0.4123 0.4123,-0.4123 0.32984,-0.39169 0.47414,-0.65968 0.0412,-0.43291 0.0618,-0.72152 -0.0618,-0.61845 -0.0618,-0.49476 -0.14431,-0.61845 -0.22676,-0.57722 -0.45353,-0.43291 -0.32984,-0.37107 -0.43292,-0.4123 -0.57721,-0.24738 -0.47415,-0.18554 h -1.05136 -0.61845 l -0.47415,0.0206 -0.49475,0.10307 -0.43292,0.20615 -0.51537,0.49476 -0.61845,0.6803 -0.47415,0.68029 -0.12369,0.68029 -0.18553,0.35046 z"
   id="path711-6"
   inkscape:connector-curvature="0" /><path
   style="fill:none;stroke:#ffcc00;stroke-width:1px;stroke-linecap:butt;stroke-linejoin:miter;stroke-opacity:1"
   d="m 410.83693,30.308487 v 0.47415 l 0.12369,0.45352 0.20615,0.49476 0.32984,0.6803 0.32984,0.43291 0.30922,0.28861 0.49476,0.55661 0.45353,0.20615 0.6803,0.28861 0.72152,-0.0206 h 0.72152 l 0.70091,-0.12369 0.61845,-0.20615 0.61845,-0.22676 0.32984,-0.4123 0.4123,-0.4123 0.32984,-0.39169 0.47414,-0.65968 0.0412,-0.43291 0.0618,-0.72152 -0.0618,-0.61845 -0.0618,-0.49476 -0.14431,-0.61845 -0.22676,-0.57722 -0.45353,-0.43291 -0.32984,-0.37107 -0.43292,-0.4123 -0.57721,-0.24738 -0.47415,-0.18554 h -1.05136 -0.61845 l -0.47415,0.0206 -0.49475,0.10307 -0.43292,0.20615 -0.51537,0.49476 -0.61845,0.6803 -0.47415,0.68029 -0.12369,0.68029 -0.18553,0.35046 z"
   id="path711-2"
   inkscape:connector-curvature="0" /><path
   style="fill:none;stroke:#ffcc00;stroke-width:1px;stroke-linecap:butt;stroke-linejoin:miter;stroke-opacity:1"
   d="m 262.15172,152.17205 v 0.47415 l 0.12369,0.45352 0.20615,0.49476 0.32984,0.6803 0.32984,0.43291 0.30922,0.28861 0.49476,0.55661 0.45353,0.20615 0.6803,0.28861 0.72152,-0.0206 h 0.72152 l 0.70091,-0.12369 0.61845,-0.20615 0.61845,-0.22676 0.32984,-0.4123 0.4123,-0.4123 0.32984,-0.39169 0.47414,-0.65968 0.0412,-0.43291 0.0618,-0.72152 -0.0618,-0.61845 -0.0618,-0.49476 -0.14431,-0.61845 -0.22676,-0.57722 -0.45353,-0.43291 -0.32984,-0.37107 -0.43292,-0.4123 -0.57721,-0.24738 -0.47415,-0.18554 h -1.05136 -0.61845 l -0.47415,0.0206 -0.49475,0.10307 -0.43292,0.20615 -0.51537,0.49476 -0.61845,0.6803 -0.47415,0.68029 -0.12369,0.68029 -0.18553,0.35046 z"
   id="path711-9"
   inkscape:connector-curvature="0" /><path
   style="fill:none;stroke:#ffcc00;stroke-width:1px;stroke-linecap:butt;stroke-linejoin:miter;stroke-opacity:1"
   d="m 255.85446,168.03181 v 0.47415 l 0.12369,0.45352 0.20615,0.49476 0.32984,0.6803 0.32984,0.43291 0.30922,0.28861 0.49476,0.55661 0.45353,0.20615 0.6803,0.28861 0.72152,-0.0206 h 0.72152 l 0.70091,-0.12369 0.61845,-0.20615 0.61845,-0.22676 0.32984,-0.4123 0.4123,-0.4123 0.32984,-0.39169 0.47414,-0.65968 0.0412,-0.43291 0.0618,-0.72152 -0.0618,-0.61845 -0.0618,-0.49476 -0.14431,-0.61845 -0.22676,-0.57722 -0.45353,-0.43291 -0.32984,-0.37107 -0.43292,-0.4123 -0.57721,-0.24738 -0.47415,-0.18554 h -1.05136 -0.61845 l -0.47415,0.0206 -0.49475,0.10307 -0.43292,0.20615 -0.51537,0.49476 -0.61845,0.6803 -0.47415,0.68029 -0.12369,0.68029 -0.18553,0.35046 z"
   id="path711-22"
   inkscape:connector-curvature="0" /><path
   style="fill:none;stroke:#ffcc00;stroke-width:1.01296914px;stroke-linecap:butt;stroke-linejoin:miter;stroke-opacity:1"
   d="m 249.09074,183.17158 v 0.48653 l 0.12369,0.46536 0.20615,0.50768 0.32984,0.69806 0.32984,0.44421 0.30922,0.29615 0.49476,0.57114 0.45353,0.21153 0.6803,0.29614 0.72152,-0.0211 h 0.72152 l 0.70091,-0.12692 0.61845,-0.21153 0.61845,-0.23268 0.32984,-0.42307 0.4123,-0.42306 0.32984,-0.40192 0.47414,-0.6769 0.0412,-0.44421 0.0618,-0.74036 -0.0618,-0.63459 -0.0618,-0.50768 -0.14431,-0.6346 -0.22676,-0.59229 -0.45353,-0.44421 -0.32984,-0.38075 -0.43292,-0.42307 -0.57721,-0.25384 -0.47415,-0.19038 h -1.05136 -0.61845 l -0.47415,0.0211 -0.49475,0.10576 -0.43292,0.21153 -0.51537,0.50768 -0.61845,0.69806 -0.47415,0.69805 -0.12369,0.69805 -0.18553,0.35961 z"
   id="path711-8"
   inkscape:connector-curvature="0" /><path
   style="fill:none;stroke:#ffcc00;stroke-width:1px;stroke-linecap:butt;stroke-linejoin:miter;stroke-opacity:1"
   d="m 256.78739,208.14767 v 0.47415 l 0.12369,0.45352 0.20615,0.49476 0.32984,0.6803 0.32984,0.43291 0.30922,0.28861 0.49476,0.55661 0.45353,0.20615 0.6803,0.28861 0.72152,-0.0206 h 0.72152 l 0.70091,-0.12369 0.61845,-0.20615 0.61845,-0.22676 0.32984,-0.4123 0.4123,-0.4123 0.32984,-0.39169 0.47414,-0.65968 0.0412,-0.43291 0.0618,-0.72152 -0.0618,-0.61845 -0.0618,-0.49476 -0.14431,-0.61845 -0.22676,-0.57722 -0.45353,-0.43291 -0.32984,-0.37107 -0.43292,-0.4123 -0.57721,-0.24738 -0.47415,-0.18554 h -1.05136 -0.61845 l -0.47415,0.0206 -0.49475,0.10307 -0.43292,0.20615 -0.51537,0.49476 -0.61845,0.6803 -0.47415,0.68029 -0.12369,0.68029 -0.18553,0.35046 z"
   id="path711-97"
   inkscape:connector-curvature="0" /><path
   style="fill:none;stroke:#ffcc00;stroke-width:1px;stroke-linecap:butt;stroke-linejoin:miter;stroke-opacity:1"
   d="m 272.41391,214.44492 v 0.47415 l 0.12369,0.45352 0.20615,0.49476 0.32984,0.6803 0.32984,0.43291 0.30922,0.28861 0.49476,0.55661 0.45353,0.20615 0.6803,0.28861 0.72152,-0.0206 h 0.72152 l 0.70091,-0.12369 0.61845,-0.20615 0.61845,-0.22676 0.32984,-0.4123 0.4123,-0.4123 0.32984,-0.39169 0.47414,-0.65968 0.0412,-0.43291 0.0618,-0.72152 -0.0618,-0.61845 -0.0618,-0.49476 -0.14431,-0.61845 -0.22676,-0.57722 -0.45353,-0.43291 -0.32984,-0.37107 -0.43292,-0.4123 -0.57721,-0.24738 -0.47415,-0.18554 h -1.05136 -0.61845 l -0.47415,0.0206 -0.49475,0.10307 -0.43292,0.20615 -0.51537,0.49476 -0.61845,0.6803 -0.47415,0.68029 -0.12369,0.68029 -0.18553,0.35046 z"
   id="path711-36"
   inkscape:connector-curvature="0" /><path
   style="fill:none;stroke:#ffcc00;stroke-width:1px;stroke-linecap:butt;stroke-linejoin:miter;stroke-opacity:1"
   d="m 403.02367,118.70331 v 0.47415 l 0.12369,0.45352 0.20615,0.49476 0.32984,0.6803 0.32984,0.43291 0.30922,0.28861 0.49476,0.55661 0.45353,0.20615 0.6803,0.28861 0.72152,-0.0206 h 0.72152 l 0.70091,-0.12369 0.61845,-0.20615 0.61845,-0.22676 0.32984,-0.4123 0.4123,-0.4123 0.32984,-0.39169 0.47414,-0.65968 0.0412,-0.43291 0.0618,-0.72152 -0.0618,-0.61845 -0.0618,-0.49476 -0.14431,-0.61845 -0.22676,-0.57722 -0.45353,-0.43291 -0.32984,-0.37107 -0.43292,-0.4123 -0.57721,-0.24738 -0.47415,-0.18554 h -1.05136 -0.61845 l -0.47415,0.0206 -0.49475,0.10307 -0.43292,0.20615 -0.51537,0.49476 -0.61845,0.6803 -0.47415,0.68029 -0.12369,0.68029 -0.18553,0.35046 z"
   id="path711-1"
   inkscape:connector-curvature="0" /><path
   style="fill:none;stroke:#ffcc00;stroke-width:1px;stroke-linecap:butt;stroke-linejoin:miter;stroke-opacity:1"
   d="m 418.76681,125.23379 v 0.47415 l 0.12369,0.45352 0.20615,0.49476 0.32984,0.6803 0.32984,0.43291 0.30922,0.28861 0.49476,0.55661 0.45353,0.20615 0.6803,0.28861 0.72152,-0.0206 h 0.72152 l 0.70091,-0.12369 0.61845,-0.20615 0.61845,-0.22676 0.32984,-0.4123 0.4123,-0.4123 0.32984,-0.39169 0.47414,-0.65968 0.0412,-0.43291 0.0618,-0.72152 -0.0618,-0.61845 -0.0618,-0.49476 -0.14431,-0.61845 -0.22676,-0.57722 -0.45353,-0.43291 -0.32984,-0.37107 -0.43292,-0.4123 -0.57721,-0.24738 -0.47415,-0.18554 h -1.05136 -0.61845 l -0.47415,0.0206 -0.49475,0.10307 -0.43292,0.20615 -0.51537,0.49476 -0.61845,0.6803 -0.47415,0.68029 -0.12369,0.68029 -0.18553,0.35046 z"
   id="path711-29"
   inkscape:connector-curvature="0" /><path
   style="fill:none;stroke:#ffcc00;stroke-width:1px;stroke-linecap:butt;stroke-linejoin:miter;stroke-opacity:1"
   d="m 426.11361,149.83974 v 0.47415 l 0.12369,0.45352 0.20615,0.49476 0.32984,0.6803 0.32984,0.43291 0.30922,0.28861 0.49476,0.55661 0.45353,0.20615 0.6803,0.28861 0.72152,-0.0206 h 0.72152 l 0.70091,-0.12369 0.61845,-0.20615 0.61845,-0.22676 0.32984,-0.4123 0.4123,-0.4123 0.32984,-0.39169 0.47414,-0.65968 0.0412,-0.43291 0.0618,-0.72152 -0.0618,-0.61845 -0.0618,-0.49476 -0.14431,-0.61845 -0.22676,-0.57722 -0.45353,-0.43291 -0.32984,-0.37107 -0.43292,-0.4123 -0.57721,-0.24738 -0.47415,-0.18554 h -1.05136 -0.61845 l -0.47415,0.0206 -0.49475,0.10307 -0.43292,0.20615 -0.51537,0.49476 -0.61845,0.6803 -0.47415,0.68029 -0.12369,0.68029 -0.18553,0.35046 z"
   id="path711-31"
   inkscape:connector-curvature="0" /><path
   style="fill:none;stroke:#ffcc00;stroke-width:1px;stroke-linecap:butt;stroke-linejoin:miter;stroke-opacity:1"
   d="m 419.81635,165.34965 v 0.47415 l 0.12369,0.45352 0.20615,0.49476 0.32984,0.6803 0.32984,0.43291 0.30922,0.28861 0.49476,0.55661 0.45353,0.20615 0.6803,0.28861 0.72152,-0.0206 h 0.72152 l 0.70091,-0.12369 0.61845,-0.20615 0.61845,-0.22676 0.32984,-0.4123 0.4123,-0.4123 0.32984,-0.39169 0.47414,-0.65968 0.0412,-0.43291 0.0618,-0.72152 -0.0618,-0.61845 -0.0618,-0.49476 -0.14431,-0.61845 -0.22676,-0.57722 -0.45353,-0.43291 -0.32984,-0.37107 -0.43292,-0.4123 -0.57721,-0.24738 -0.47415,-0.18554 h -1.05136 -0.61845 l -0.47415,0.0206 -0.49475,0.10307 -0.43292,0.20615 -0.51537,0.49476 -0.61845,0.6803 -0.47415,0.68029 -0.12369,0.68029 -0.18553,0.35046 z"
   id="path711-94"
   inkscape:connector-curvature="0" /><path
   style="fill:none;stroke:#ffcc00;stroke-width:1px;stroke-linecap:butt;stroke-linejoin:miter;stroke-opacity:1"
   d="m 413.05263,180.85956 v 0.47415 l 0.12369,0.45352 0.20615,0.49476 0.32984,0.6803 0.32984,0.43291 0.30922,0.28861 0.49476,0.55661 0.45353,0.20615 0.6803,0.28861 0.72152,-0.0206 h 0.72152 l 0.70091,-0.12369 0.61845,-0.20615 0.61845,-0.22676 0.32984,-0.4123 0.4123,-0.4123 0.32984,-0.39169 0.47414,-0.65968 0.0412,-0.43291 0.0618,-0.72152 -0.0618,-0.61845 -0.0618,-0.49476 -0.14431,-0.61845 -0.22676,-0.57722 -0.45353,-0.43291 -0.32984,-0.37107 -0.43292,-0.4123 -0.57721,-0.24738 -0.47415,-0.18554 h -1.05136 -0.61845 l -0.47415,0.0206 -0.49475,0.10307 -0.43292,0.20615 -0.51537,0.49476 -0.61845,0.6803 -0.47415,0.68029 -0.12369,0.68029 -0.18553,0.35046 z"
   id="path711-7"
   inkscape:connector-curvature="0" /><path
   style="fill:none;stroke:#ffcc00;stroke-width:1px;stroke-linecap:butt;stroke-linejoin:miter;stroke-opacity:1"
   d="m 264.41229,302.71382 v 0.47415 l 0.12369,0.45352 0.20615,0.49476 0.32984,0.6803 0.32984,0.43291 0.30922,0.28861 0.49476,0.55661 0.45353,0.20615 0.6803,0.28861 0.72152,-0.0206 h 0.72152 l 0.70091,-0.12369 0.61845,-0.20615 0.61845,-0.22676 0.32984,-0.4123 0.4123,-0.4123 0.32984,-0.39169 0.47414,-0.65968 0.0412,-0.43291 0.0618,-0.72152 -0.0618,-0.61845 -0.0618,-0.49476 -0.14431,-0.61845 -0.22676,-0.57722 -0.45353,-0.43291 -0.32984,-0.37107 -0.43292,-0.4123 -0.57721,-0.24738 -0.47415,-0.18554 h -1.05136 -0.61845 l -0.47415,0.0206 -0.49475,0.10307 -0.43292,0.20615 -0.51537,0.49476 -0.61845,0.6803 -0.47415,0.68029 -0.12369,0.68029 -0.18553,0.35046 z"
   id="path711-84"
   inkscape:connector-curvature="0" /><path
   style="fill:none;stroke:#ffcc00;stroke-width:1px;stroke-linecap:butt;stroke-linejoin:miter;stroke-opacity:1"
   d="m 301.31706,302.63136 v 0.47415 l 0.12369,0.45352 0.20615,0.49476 0.32984,0.6803 0.32984,0.43291 0.30922,0.28861 0.49476,0.55661 0.45353,0.20615 0.6803,0.28861 0.72152,-0.0206 h 0.72152 l 0.70091,-0.12369 0.61845,-0.20615 0.61845,-0.22676 0.32984,-0.4123 0.4123,-0.4123 0.32984,-0.39169 0.47414,-0.65968 0.0412,-0.43291 0.0618,-0.72152 -0.0618,-0.61845 -0.0618,-0.49476 -0.14431,-0.61845 -0.22676,-0.57722 -0.45353,-0.43291 -0.32984,-0.37107 -0.43292,-0.4123 -0.57721,-0.24738 -0.47415,-0.18554 h -1.05136 -0.61845 l -0.47415,0.0206 -0.49475,0.10307 -0.43292,0.20615 -0.51537,0.49476 -0.61845,0.6803 -0.47415,0.68029 -0.12369,0.68029 -0.18553,0.35046 z"
   id="path711-5"
   inkscape:connector-curvature="0" /><path
   style="fill:none;stroke:#ffcc00;stroke-width:1px;stroke-linecap:butt;stroke-linejoin:miter;stroke-opacity:1"
   d="m 337.48555,302.6065 v 0.47415 l 0.12369,0.45352 0.20615,0.49476 0.32984,0.6803 0.32984,0.43291 0.30922,0.28861 0.49476,0.55661 0.45353,0.20615 0.6803,0.28861 0.72152,-0.0206 h 0.72152 l 0.70091,-0.12369 0.61845,-0.20615 0.61845,-0.22676 0.32984,-0.4123 0.4123,-0.4123 0.32984,-0.39169 0.47414,-0.65968 0.0412,-0.43291 0.0618,-0.72152 -0.0618,-0.61845 -0.0618,-0.49476 -0.14431,-0.61845 -0.22676,-0.57722 -0.45353,-0.43291 -0.32984,-0.37107 -0.43292,-0.4123 -0.57721,-0.24738 -0.47415,-0.18554 h -1.05136 -0.61845 l -0.47415,0.0206 -0.49475,0.10307 -0.43292,0.20615 -0.51537,0.49476 -0.61845,0.6803 -0.47415,0.68029 -0.12369,0.68029 -0.18553,0.35046 z"
   id="path711-0"
   inkscape:connector-curvature="0" /><path
   style="fill:none;stroke:#ffcc00;stroke-width:1px;stroke-linecap:butt;stroke-linejoin:miter;stroke-opacity:1"
   d="m 402.67382,312.28562 v 0.47415 l 0.12369,0.45352 0.20615,0.49476 0.32984,0.6803 0.32984,0.43291 0.30922,0.28861 0.49476,0.55661 0.45353,0.20615 0.6803,0.28861 0.72152,-0.0206 h 0.72152 l 0.70091,-0.12369 0.61845,-0.20615 0.61845,-0.22676 0.32984,-0.4123 0.4123,-0.4123 0.32984,-0.39169 0.47414,-0.65968 0.0412,-0.43291 0.0618,-0.72152 -0.0618,-0.61845 -0.0618,-0.49476 -0.14431,-0.61845 -0.22676,-0.57722 -0.45353,-0.43291 -0.32984,-0.37107 -0.43292,-0.4123 -0.57721,-0.24738 -0.47415,-0.18554 h -1.05136 -0.61845 l -0.47415,0.0206 -0.49475,0.10307 -0.43292,0.20615 -0.51537,0.49476 -0.61845,0.6803 -0.47415,0.68029 -0.12369,0.68029 -0.18553,0.35046 z"
   id="path711-361"
   inkscape:connector-curvature="0" /><path
   style="fill:none;stroke:#ffcc00;stroke-width:1px;stroke-linecap:butt;stroke-linejoin:miter;stroke-opacity:1"
   d="m 402.67382,293.62708 v 0.47415 l 0.12369,0.45352 0.20615,0.49476 0.32984,0.6803 0.32984,0.43291 0.30922,0.28861 0.49476,0.55661 0.45353,0.20615 0.6803,0.28861 0.72152,-0.0206 h 0.72152 l 0.70091,-0.12369 0.61845,-0.20615 0.61845,-0.22676 0.32984,-0.4123 0.4123,-0.4123 0.32984,-0.39169 0.47414,-0.65968 0.0412,-0.43291 0.0618,-0.72152 -0.0618,-0.61845 -0.0618,-0.49476 -0.14431,-0.61845 -0.22676,-0.57722 -0.45353,-0.43291 -0.32984,-0.37107 -0.43292,-0.4123 -0.57721,-0.24738 -0.47415,-0.18554 h -1.05136 -0.61845 l -0.47415,0.0206 -0.49475,0.10307 -0.43292,0.20615 -0.51537,0.49476 -0.61845,0.6803 -0.47415,0.68029 -0.12369,0.68029 -0.18553,0.35046 z"
   id="path711-06"
   inkscape:connector-curvature="0" /></svg>