<?xml version="1.0" encoding="UTF-8" standalone="no"?>
<svg
   xmlns:dc="http://purl.org/dc/elements/1.1/"
   xmlns:cc="http://creativecommons.org/ns#"
   xmlns:rdf="http://www.w3.org/1999/02/22-rdf-syntax-ns#"
   xmlns:svg="http://www.w3.org/2000/svg"
   xmlns="http://www.w3.org/2000/svg"
   xmlns:sodipodi="http://sodipodi.sourceforge.net/DTD/sodipodi-0.dtd"
   xmlns:inkscape="http://www.inkscape.org/namespaces/inkscape"
   version="1.1"
   x="0px"
   y="0px"
   viewBox="0 0 644.3413 333.29455"
   xml:space="preserve"
   id="svg173"
   sodipodi:docname="2020map.svg"
   inkscape:version="1.0beta2 (unknown)"
   width="644.34131"
   height="333.29456"><metadata
   id="metadata179"><rdf:RDF><cc:Work
       rdf:about=""><dc:format>image/svg+xml</dc:format><dc:type
         rdf:resource="http://purl.org/dc/dcmitype/StillImage" /><dc:title /></cc:Work></rdf:RDF></metadata><defs
   id="defs177" /><sodipodi:namedview
   pagecolor="#ffffff"
   bordercolor="#666666"
   borderopacity="1"
   objecttolerance="10"
   gridtolerance="10"
   guidetolerance="10"
   inkscape:pageopacity="0"
   inkscape:pageshadow="2"
   inkscape:window-width="2560"
   inkscape:window-height="1375"
   id="namedview175"
   showgrid="false"
   inkscape:zoom="3.1955114"
   inkscape:cx="322.17065"
   inkscape:cy="166.64728"
   inkscape:window-x="1280"
   inkscape:window-y="0"
   inkscape:window-maximized="1"
   inkscape:current-layer="svg173"
   inkscape:document-rotation="0" />
<style
   type="text/css"
   id="style2">
	.st0{fill-rule:evenodd;clip-rule:evenodd;}
	.st1{font-family:'Times-Roman';}
	.st2{font-size:18px;}
	.st3{enable-background:new    ;}
	.st4{fill-rule:evenodd;clip-rule:evenodd;fill:#FFFFFF;}
</style>








<g
   id="Corner_1_"
   style="stroke:#ffcc00"
   transform="matrix(1,0,0,-1,-148.96715,400.075)">
	<g
   id="Shape_20"
   style="stroke:#ffcc00">
		<g
   id="g99"
   style="stroke:#ffcc00">
			
				<rect
   x="417.72684"
   y="327.33783"
   transform="matrix(0.9312,-0.3644,0.3644,0.9312,-90.667,176.5988)"
   class="st0"
   width="10.843135"
   height="2.4221518"
   id="rect97"
   style="clip-rule:evenodd;fill-rule:evenodd;stroke:#ffcc00" />
		</g>
	</g>
	<g
   id="Shape_20_copy"
   style="stroke:#ffcc00">
		<g
   id="g104"
   style="stroke:#ffcc00">
			<polygon
   class="st0"
   points="425.76,326.08 430.03,337.2 432.24,336.32 427.97,325.2 "
   id="polygon102"
   style="clip-rule:evenodd;fill-rule:evenodd;stroke:#ffcc00" />
		</g>
	</g>
</g>
<g
   id="Corner_copy_2_1_"
   style="stroke:#ffcc00"
   transform="matrix(1,0,0,-1,-148.96715,400.075)">
	<g
   id="Shape_20_1_"
   style="stroke:#ffcc00">
		<g
   id="g110"
   style="stroke:#ffcc00">
			
				<rect
   x="370.94"
   y="187.13"
   transform="matrix(0.9363,-0.3513,0.3513,0.9363,-44.1019,143.0394)"
   class="st0"
   width="2.4000001"
   height="11.86"
   id="rect108"
   style="clip-rule:evenodd;fill-rule:evenodd;stroke:#ffcc00" />
		</g>
	</g>
	<g
   id="Shape_20_copy_1_"
   style="stroke:#ffcc00">
		<g
   id="g115"
   style="stroke:#ffcc00">
			<polygon
   class="st0"
   points="363.29,200.62 364.24,202.8 375.23,198.22 374.29,196.03 "
   id="polygon113"
   style="clip-rule:evenodd;fill-rule:evenodd;stroke:#ffcc00" />
		</g>
	</g>
</g>
<g
   id="Corner_copy_3_1_"
   style="stroke:#ffcc00"
   transform="matrix(1,0,0,-1,-148.96715,400.075)">
	<g
   id="Shape_20_2_"
   style="stroke:#ffcc00">
		<g
   id="g121"
   style="stroke:#ffcc00">
			
				<rect
   x="511.64001"
   y="137.2"
   transform="matrix(0.9312,-0.3644,0.3644,0.9312,-14.847,198.1167)"
   class="st0"
   width="11.86"
   height="2.4000001"
   id="rect119"
   style="clip-rule:evenodd;fill-rule:evenodd;stroke:#ffcc00" />
		</g>
	</g>
	<g
   id="Shape_20_copy_2_"
   style="stroke:#ffcc00">
		<g
   id="g126"
   style="stroke:#ffcc00">
			<polygon
   class="st0"
   points="507.96,130.4 512.23,141.52 514.44,140.64 510.17,129.52 "
   id="polygon124"
   style="clip-rule:evenodd;fill-rule:evenodd;stroke:#ffcc00" />
		</g>
	</g>
</g>
<g
   id="Corner_copy_1_"
   style="stroke:#ffcc00"
   transform="matrix(1,0,0,-1,-148.96715,400.075)">
	<g
   id="Shape_20_3_"
   style="stroke:#ffcc00">
		<g
   id="g132"
   style="stroke:#ffcc00">
			
				<rect
   x="567.02002"
   y="267.57001"
   transform="matrix(0.9182,-0.3962,0.3962,0.9182,-61.8603,247.5005)"
   class="st0"
   width="2.4000001"
   height="11.86"
   id="rect130"
   style="clip-rule:evenodd;fill-rule:evenodd;stroke:#ffcc00" />
		</g>
	</g>
	<g
   id="Shape_20_copy_3_"
   style="stroke:#ffcc00">
		<g
   id="g137"
   style="stroke:#ffcc00">
			<polygon
   class="st0"
   points="564.86,268.17 565.74,270.38 576.86,266.11 575.98,263.9 "
   id="polygon135"
   style="clip-rule:evenodd;fill-rule:evenodd;stroke:#ffcc00" />
		</g>
	</g>
</g>




<path
   style="fill:none;stroke:#ffcc00;stroke-width:1px;stroke-linecap:butt;stroke-linejoin:miter;stroke-opacity:1"
   d="M 27.094869,0.57728397 1.2654091,73.253294 0.73827915,262.4936 25.513469,332.075 H 615.90108 L 643.83906,259.33081 642.7848,71.671904 616.95534,0.50911397 Z"
   id="path3886"
   inkscape:connector-curvature="0"
   sodipodi:nodetypes="ccccccccc" /><path
   sodipodi:nodetypes="cccccc"
   style="fill:none;stroke:#ffcc00;stroke-width:1px;stroke-linecap:butt;stroke-linejoin:miter;stroke-opacity:1"
   d="M 210.53673,209.2533 370.25766,271.98198 429.29642,127.54787 272.73828,61.656404 Z"
   id="path3890"
   inkscape:connector-curvature="0" /><path
   style="fill:none;stroke:#ffcc00;stroke-width:1px;stroke-linecap:butt;stroke-linejoin:miter;stroke-opacity:1"
   d="M 643.83906,259.33081 642.7848,71.671904 616.95534,0.50911397 27.094869,0.57731397 1.2654091,73.253324 0.73827915,262.49363 25.513469,332.07503 H 615.90108 l 27.93798,-72.74419"
   id="path3820"
   inkscape:connector-curvature="0"
   sodipodi:nodetypes="ccccccccc" /><path
   style="fill:none;stroke:#ffcc00;stroke-width:1px;stroke-linecap:butt;stroke-linejoin:miter;stroke-opacity:1"
   d="M 124.61425,332.075 124.49361,1.040164"
   id="path3822"
   inkscape:connector-curvature="0"
   sodipodi:nodetypes="cc" /><path
   sodipodi:nodetypes="ccccc"
   style="fill:none;stroke:#ffcc00;stroke-width:1px;stroke-linecap:butt;stroke-linejoin:miter;stroke-opacity:1"
   d="M 219.98085,212.13701 283.27285,63.755004 420.5205,120.65521 362.03265,268.89539 Z"
   id="path3824"
   inkscape:connector-curvature="0" /><path
   style="fill:none;stroke:#ffcc00;stroke-width:1px;stroke-linecap:butt;stroke-linejoin:miter;stroke-opacity:1"
   d="m 219.98085,212.13701 -9.44412,-2.88371 62.20155,-147.596896 10.53457,2.0986 z"
   id="path3826"
   inkscape:connector-curvature="0" /><path
   sodipodi:nodetypes="cccccccc"
   style="fill:none;stroke:#ffcc00;stroke-width:1px;stroke-linecap:butt;stroke-linejoin:miter;stroke-opacity:1"
   d="m 214.32285,199.45501 160.21644,63.27118 -4.28163,9.25579 -8.22501,-3.08659 57.39256,-145.46285 9.87121,4.11533 -2.28357,8.62713 -11.19128,-4.62995"
   id="path3828"
   inkscape:connector-curvature="0" /><path
   style="fill:none;stroke:#ffcc00;stroke-width:1px;stroke-linecap:butt;stroke-linejoin:miter;stroke-opacity:1"
   d="M 279.61475,72.574614 418.02527,132.49594"
   id="path3830"
   inkscape:connector-curvature="0" /><path
   style="fill:none;stroke:#ffcc00;stroke-width:1px;stroke-linecap:butt;stroke-linejoin:miter;stroke-opacity:1"
   d="m 351.97843,332.43176 -0.17038,-55.53521 28.90386,-0.35036 0.50488,55.52565 z"
   id="path3832"
   inkscape:connector-curvature="0"
   sodipodi:nodetypes="ccccc" /><path
   style="fill:none;stroke:#ffcc00;stroke-width:1px;stroke-linecap:butt;stroke-linejoin:miter;stroke-opacity:1"
   d="m 260.61425,58.065224 0.52713,-57.02898 28.99225,-0.52713003 0.37066,57.44066003 z"
   id="path3854"
   inkscape:connector-curvature="0"
   sodipodi:nodetypes="ccccc" /><path
   style="fill:none;stroke:#ffcc00;stroke-width:1px;stroke-linecap:butt;stroke-linejoin:miter;stroke-opacity:1"
   d="m 249.14285,140.115 141.76,58.46001 2.1,-5.1 -141.76,-58.46001 z"
   id="path3856"
   inkscape:connector-curvature="0" /><path
   style="fill:none;stroke:#ffcc00;stroke-width:1px;stroke-linecap:butt;stroke-linejoin:miter;stroke-opacity:1"
   d="m 279.57913,113.63841 3.06372,-7.32341 113.67156,47.61327 -3.05156,7.28673 z"
   id="path3858"
   inkscape:connector-curvature="0" /><path
   style="fill:none;stroke:#ffcc00;stroke-width:1px;stroke-linecap:butt;stroke-linejoin:miter;stroke-opacity:1"
   d="m 246.21839,179.87607 3.06446,-7.32106 113.67081,47.61094 -3.0587,7.30541 z"
   id="path3860"
   inkscape:connector-curvature="0" /><path
   style="fill:none;stroke:#ffcc00;stroke-width:1px;stroke-linecap:butt;stroke-linejoin:miter;stroke-opacity:1"
   d="m 293.29642,230.86571 53.76744,-129.67443 2.63566,1.5814 -53.76744,130.20156 z"
   id="path3862"
   inkscape:connector-curvature="0" /><path
   style="fill:none;stroke:#ffcc00;stroke-width:1px;stroke-linecap:butt;stroke-linejoin:miter;stroke-opacity:1"
   d="M 0.87370915,258.47094 29.947309,234.61568 0.87370915,211.5059 0.50096915,133.97629 28.456359,104.90269 1.6191891,78.065524"
   id="path130"
   inkscape:connector-curvature="0" /><path
   style="fill:none;stroke:#ffcc00;stroke-width:1px;stroke-linecap:butt;stroke-linejoin:miter;stroke-opacity:1"
   d="m 643.83905,259.33081 -30.92879,-31.05168 29.44634,-30.19181 0.56608,-75.74415 -30.75789,-23.777026 30.19181,-22.36431"
   id="path132"
   inkscape:connector-curvature="0"
   sodipodi:nodetypes="cccccc" /><path
   style="fill:none;stroke:#ffcc00;stroke-width:1px;stroke-linecap:butt;stroke-linejoin:miter;stroke-opacity:1"
   d="m 27.094869,0.57728397 589.860471,-0.0682 26.69004,71.08455003 -0.72269,50.593036 -0.56608,75.90062 1.48245,61.24349 -27.93798,72.74419 L 25.513469,332.79413 0.73827915,262.49357 V 76.349394 Z"
   id="path363"
   inkscape:connector-curvature="0"
   sodipodi:nodetypes="ccccccccccc" /><path
   style="fill:none;stroke:#ffcc00;stroke-width:1px;stroke-linecap:butt;stroke-linejoin:miter;stroke-opacity:1"
   d="m 124.61425,332.075 c 0,-328.944676 -0.12064,-331.034836 -0.12064,-331.034836"
   id="path365"
   inkscape:connector-curvature="0"
   sodipodi:nodetypes="cc" /><path
   style="fill:none;stroke:#ffcc00;stroke-width:1px;stroke-linecap:butt;stroke-linejoin:miter;stroke-opacity:1"
   d="M 518.90882,332.60214 V 0.93975397"
   id="path367"
   inkscape:connector-curvature="0"
   sodipodi:nodetypes="cc" /><path
   style="fill:none;stroke:#ffcc00;stroke-width:1px;stroke-linecap:butt;stroke-linejoin:miter;stroke-opacity:1"
   d="m 211.59099,333.12927 v -56.56205 l 218.23256,-0.36819 0.43938,56.10044"
   id="path373"
   inkscape:connector-curvature="0"
   sodipodi:nodetypes="cccc" /><path
   style="fill:none;stroke:#ffcc00;stroke-width:1px;stroke-linecap:butt;stroke-linejoin:miter;stroke-opacity:1"
   d="m 212.53688,2.470644 -0.32984,55.74286 h 217.69403 l 0.32984,-55.74286 v 0.98952 0 0.65968 0 0 l -0.0169,-3.32593003"
   id="path379"
   inkscape:connector-curvature="0"
   sodipodi:nodetypes="cccccccccc" /><path
   style="fill:none;stroke:#ffcc00;stroke-width:1px;stroke-linecap:butt;stroke-linejoin:miter;stroke-opacity:1"
   d="m 211.59099,333.12927 v -56.56205 h 218.63992 v 55.08319"
   id="path381"
   inkscape:connector-curvature="0" /><path
   sodipodi:nodetypes="ccccccc"
   style="fill:none;stroke:#ffcc00;stroke-width:1px;stroke-linecap:butt;stroke-linejoin:miter;stroke-opacity:1"
   d="m 429.29642,127.54787 -59.03876,144.43411 -156.31627,-64.55636 -3.40466,1.82768 159.72093,62.72868 61.28891,-146.18747 z"
   id="path383"
   inkscape:connector-curvature="0" /><path
   style="fill:none;stroke:#ffcc00;stroke-width:1px;stroke-linecap:butt;stroke-linejoin:miter;stroke-opacity:1"
   d="M 431.54657,125.79451 Z"
   id="path385"
   inkscape:connector-curvature="0" /><path
   sodipodi:nodetypes="cccccccccccc"
   style="fill:none;stroke:#ffcc00;stroke-width:1px;stroke-linecap:butt;stroke-linejoin:miter;stroke-opacity:1"
   d="m 429.29642,127.54787 -59.03876,144.43411 v 0 l -156.31627,-64.55636 2.79878,-6.99695 157.79912,62.29752 -9.06644,-3.29119 -3.42933,8.86409 58.47698,-147.64388 11.02607,5.1393 -4.53372,10.38049 -43.97848,-19.24329"
   id="path387"
   inkscape:connector-curvature="0" /><path
   style="fill:none;stroke:#ffcc00;stroke-width:1px;stroke-linecap:butt;stroke-linejoin:miter;stroke-opacity:1"
   d="m 251.84962,39.556964 v 0.47415 l 0.12369,0.45352 0.20615,0.49476 0.32984,0.6803 0.32984,0.43291 0.30922,0.28861 0.49476,0.55661 0.45353,0.20615 0.6803,0.28861 0.72152,-0.0206 h 0.72152 l 0.70091,-0.12369 0.61845,-0.20615 0.61845,-0.22676 0.32984,-0.4123 0.4123,-0.4123 0.32984,-0.39169 0.47414,-0.65968 0.0412,-0.43291 0.0618,-0.72152 -0.0618,-0.61845 -0.0618,-0.49476 -0.14431,-0.61845 -0.22676,-0.57722 -0.45353,-0.43291 -0.32984,-0.37107 -0.43292,-0.4123 -0.57721,-0.24738 -0.47415,-0.18554 h -1.05136 -0.61845 l -0.47415,0.0206 -0.49475,0.10307 -0.43292,0.20615 -0.51537,0.49476 -0.61845,0.6803 -0.47415,0.68029 -0.12369,0.68029 -0.18553,0.35046 z"
   id="path711"
   inkscape:connector-curvature="0" /><path
   style="fill:none;stroke:#ffcc00;stroke-width:1px;stroke-linecap:butt;stroke-linejoin:miter;stroke-opacity:1"
   d="m 251.88507,20.804324 v 0.47415 l 0.12369,0.45352 0.20615,0.49476 0.32984,0.6803 0.32984,0.43291 0.30922,0.28861 0.49476,0.55661 0.45353,0.20615 0.6803,0.28861 0.72152,-0.0206 h 0.72152 l 0.70091,-0.12369 0.61845,-0.20615 0.61845,-0.22676 0.32984,-0.4123 0.4123,-0.4123 0.32984,-0.39169 0.47414,-0.65968 0.0412,-0.43291 0.0618,-0.72152 -0.0618,-0.61845 -0.0618,-0.49476 -0.14431,-0.61845 -0.22676,-0.57722 -0.45353,-0.43291 -0.32984,-0.37107 -0.43292,-0.4123 -0.57721,-0.24738 -0.47415,-0.18554 h -1.05136 -0.61845 l -0.47415,0.0206 -0.49475,0.10307 -0.43292,0.20615 -0.51537,0.49476 -0.61845,0.6803 -0.47415,0.68029 -0.12369,0.68029 -0.18553,0.35046 z"
   id="path711-3"
   inkscape:connector-curvature="0" /><path
   style="fill:none;stroke:#ffcc00;stroke-width:1px;stroke-linecap:butt;stroke-linejoin:miter;stroke-opacity:1"
   d="m 317.13164,30.191894 v 0.47415 l 0.12369,0.45352 0.20615,0.49476 0.32984,0.6803 0.32984,0.43291 0.30922,0.28861 0.49476,0.55661 0.45353,0.20615 0.6803,0.28861 0.72152,-0.0206 h 0.72152 l 0.70091,-0.12369 0.61845,-0.20615 0.61845,-0.22676 0.32984,-0.4123 0.4123,-0.4123 0.32984,-0.39169 0.47414,-0.65968 0.0412,-0.43291 0.0618,-0.72152 -0.0618,-0.61845 -0.0618,-0.49476 -0.14431,-0.61845 -0.22676,-0.57722 -0.45353,-0.43291 -0.32984,-0.37107 -0.43292,-0.4123 -0.57721,-0.24738 -0.47415,-0.18554 h -1.05136 -0.61845 l -0.47415,0.0206 -0.49475,0.10307 -0.43292,0.20615 -0.51537,0.49476 -0.61845,0.6803 -0.47415,0.68029 -0.12369,0.68029 -0.18553,0.35046 z"
   id="path711-35"
   inkscape:connector-curvature="0" /><path
   style="fill:none;stroke:#ffcc00;stroke-width:1px;stroke-linecap:butt;stroke-linejoin:miter;stroke-opacity:1"
   d="m 353.04932,30.191894 v 0.47415 l 0.12369,0.45352 0.20615,0.49476 0.32984,0.6803 0.32984,0.43291 0.30922,0.28861 0.49476,0.55661 0.45353,0.20615 0.6803,0.28861 0.72152,-0.0206 h 0.72152 l 0.70091,-0.12369 0.61845,-0.20615 0.61845,-0.22676 0.32984,-0.4123 0.4123,-0.4123 0.32984,-0.39169 0.47414,-0.65968 0.0412,-0.43291 0.0618,-0.72152 -0.0618,-0.61845 -0.0618,-0.49476 -0.14431,-0.61845 -0.22676,-0.57722 -0.45353,-0.43291 -0.32984,-0.37107 -0.43292,-0.4123 -0.57721,-0.24738 -0.47415,-0.18554 h -1.05136 -0.61845 l -0.47415,0.0206 -0.49475,0.10307 -0.43292,0.20615 -0.51537,0.49476 -0.61845,0.6803 -0.47415,0.68029 -0.12369,0.68029 -0.18553,0.35046 z"
   id="path711-6"
   inkscape:connector-curvature="0" /><path
   style="fill:none;stroke:#ffcc00;stroke-width:1px;stroke-linecap:butt;stroke-linejoin:miter;stroke-opacity:1"
   d="m 390.24978,30.308514 v 0.47415 l 0.12369,0.45352 0.20615,0.49476 0.32984,0.6803 0.32984,0.43291 0.30922,0.28861 0.49476,0.55661 0.45353,0.20615 0.6803,0.28861 0.72152,-0.0206 h 0.72152 l 0.70091,-0.12369 0.61845,-0.20615 0.61845,-0.22676 0.32984,-0.4123 0.4123,-0.4123 0.32984,-0.39169 0.47414,-0.65968 0.0412,-0.43291 0.0618,-0.72152 -0.0618,-0.61845 -0.0618,-0.49476 -0.14431,-0.61845 -0.22676,-0.57722 -0.45353,-0.43291 -0.32984,-0.37107 -0.43292,-0.4123 -0.57721,-0.24738 -0.47415,-0.18554 h -1.05136 -0.61845 l -0.47415,0.0206 -0.49475,0.10307 -0.43292,0.20615 -0.51537,0.49476 -0.61845,0.6803 -0.47415,0.68029 -0.12369,0.68029 -0.18553,0.35046 z"
   id="path711-2"
   inkscape:connector-curvature="0" /><path
   style="fill:none;stroke:#ffcc00;stroke-width:1px;stroke-linecap:butt;stroke-linejoin:miter;stroke-opacity:1"
   d="m 241.56457,152.17207 v 0.47415 l 0.12369,0.45352 0.20615,0.49476 0.32984,0.6803 0.32984,0.43291 0.30922,0.28861 0.49476,0.55661 0.45353,0.20615 0.6803,0.28861 0.72152,-0.0206 h 0.72152 l 0.70091,-0.12369 0.61845,-0.20615 0.61845,-0.22676 0.32984,-0.4123 0.4123,-0.4123 0.32984,-0.39169 0.47414,-0.65968 0.0412,-0.43291 0.0618,-0.72152 -0.0618,-0.61845 -0.0618,-0.49476 -0.14431,-0.61845 -0.22676,-0.57722 -0.45353,-0.43291 -0.32984,-0.37107 -0.43292,-0.4123 -0.57721,-0.24738 -0.47415,-0.18554 h -1.05136 -0.61845 l -0.47415,0.0206 -0.49475,0.10307 -0.43292,0.20615 -0.51537,0.49476 -0.61845,0.6803 -0.47415,0.68029 -0.12369,0.68029 -0.18553,0.35046 z"
   id="path711-9"
   inkscape:connector-curvature="0" /><path
   style="fill:none;stroke:#ffcc00;stroke-width:1px;stroke-linecap:butt;stroke-linejoin:miter;stroke-opacity:1"
   d="m 235.26731,168.03184 v 0.47415 l 0.12369,0.45352 0.20615,0.49476 0.32984,0.6803 0.32984,0.43291 0.30922,0.28861 0.49476,0.55661 0.45353,0.20615 0.6803,0.28861 0.72152,-0.0206 h 0.72152 l 0.70091,-0.12369 0.61845,-0.20615 0.61845,-0.22676 0.32984,-0.4123 0.4123,-0.4123 0.32984,-0.39169 0.47414,-0.65968 0.0412,-0.43291 0.0618,-0.72152 -0.0618,-0.61846 -0.0618,-0.49476 -0.14431,-0.61845 -0.22676,-0.57722 -0.45353,-0.43291 -0.32984,-0.37107 -0.43292,-0.4123 -0.57721,-0.24738 -0.47415,-0.18554 h -1.05136 -0.61845 l -0.47415,0.0206 -0.49475,0.10307 -0.43292,0.20615 -0.51537,0.49476 -0.61845,0.6803 -0.47415,0.68029 -0.12369,0.68029 -0.18553,0.35046 z"
   id="path711-22"
   inkscape:connector-curvature="0" /><path
   style="fill:none;stroke:#ffcc00;stroke-width:1.01297px;stroke-linecap:butt;stroke-linejoin:miter;stroke-opacity:1"
   d="m 228.50359,183.17161 v 0.48653 l 0.12369,0.46536 0.20615,0.50768 0.32984,0.69806 0.32984,0.44421 0.30922,0.29615 0.49476,0.57114 0.45353,0.21153 0.6803,0.29614 0.72152,-0.0211 h 0.72152 l 0.70091,-0.12692 0.61845,-0.21153 0.61845,-0.23268 0.32984,-0.42307 0.4123,-0.42306 0.32984,-0.40192 0.47414,-0.6769 0.0412,-0.44421 0.0618,-0.74036 -0.0618,-0.63459 -0.0618,-0.50768 -0.14431,-0.6346 -0.22676,-0.59229 -0.45353,-0.44421 -0.32984,-0.38075 -0.43292,-0.42307 -0.57721,-0.25384 -0.47415,-0.19038 h -1.05136 -0.61845 l -0.47415,0.0211 -0.49475,0.10576 -0.43292,0.21153 -0.51537,0.50768 -0.61845,0.69806 -0.47415,0.69805 -0.12369,0.69805 -0.18553,0.35961 z"
   id="path711-8"
   inkscape:connector-curvature="0" /><path
   style="fill:none;stroke:#ffcc00;stroke-width:1px;stroke-linecap:butt;stroke-linejoin:miter;stroke-opacity:1"
   d="m 236.20024,208.1477 v 0.47415 l 0.12369,0.45352 0.20615,0.49476 0.32984,0.6803 0.32984,0.43291 0.30922,0.28861 0.49476,0.55661 0.45353,0.20615 0.6803,0.28861 0.72152,-0.0206 h 0.72152 l 0.70091,-0.12369 0.61845,-0.20615 0.61845,-0.22676 0.32984,-0.4123 0.4123,-0.4123 0.32984,-0.39169 0.47414,-0.65968 0.0412,-0.43291 0.0618,-0.72152 -0.0618,-0.61845 -0.0618,-0.49476 -0.14431,-0.61845 -0.22676,-0.57722 -0.45353,-0.43291 -0.32984,-0.37107 -0.43292,-0.4123 -0.57721,-0.24738 -0.47415,-0.18554 h -1.05136 -0.61845 l -0.47415,0.0206 -0.49475,0.10307 -0.43292,0.20615 -0.51537,0.49476 -0.61845,0.6803 -0.47415,0.68029 -0.12369,0.68029 -0.18553,0.35046 z"
   id="path711-97"
   inkscape:connector-curvature="0" /><path
   style="fill:none;stroke:#ffcc00;stroke-width:1px;stroke-linecap:butt;stroke-linejoin:miter;stroke-opacity:1"
   d="m 251.82676,214.44495 v 0.47415 l 0.12369,0.45352 0.20615,0.49476 0.32984,0.6803 0.32984,0.43291 0.30922,0.28861 0.49476,0.55661 0.45353,0.20615 0.6803,0.28861 0.72152,-0.0206 h 0.72152 l 0.70091,-0.12369 0.61845,-0.20615 0.61845,-0.22676 0.32984,-0.4123 0.4123,-0.4123 0.32984,-0.39169 0.47414,-0.65968 0.0412,-0.43291 0.0618,-0.72152 -0.0618,-0.61845 -0.0618,-0.49476 -0.14431,-0.61845 -0.22676,-0.57722 -0.45353,-0.43291 -0.32984,-0.37107 -0.43292,-0.4123 -0.57721,-0.24738 -0.47415,-0.18554 h -1.05136 -0.61845 l -0.47415,0.0206 -0.49475,0.10307 -0.43292,0.20615 -0.51537,0.49476 -0.61845,0.6803 -0.47415,0.68029 -0.12369,0.68029 -0.18553,0.35046 z"
   id="path711-36"
   inkscape:connector-curvature="0" /><path
   style="fill:none;stroke:#ffcc00;stroke-width:1px;stroke-linecap:butt;stroke-linejoin:miter;stroke-opacity:1"
   d="m 382.43652,118.70333 v 0.47415 l 0.12369,0.45352 0.20615,0.49476 0.32984,0.6803 0.32984,0.43291 0.30922,0.28861 0.49476,0.55661 0.45353,0.20615 0.6803,0.28861 0.72152,-0.0206 h 0.72152 l 0.70091,-0.12369 0.61845,-0.20615 0.61845,-0.22676 0.32984,-0.4123 0.4123,-0.4123 0.32984,-0.39169 0.47414,-0.65968 0.0412,-0.43291 0.0618,-0.72152 -0.0618,-0.61845 -0.0618,-0.49476 -0.14431,-0.61845 -0.22676,-0.57722 -0.45353,-0.43291 -0.32984,-0.37107 -0.43292,-0.4123 -0.57721,-0.24738 -0.47415,-0.18554 h -1.05136 -0.61845 l -0.47415,0.0206 -0.49475,0.10307 -0.43292,0.20615 -0.51537,0.49476 -0.61845,0.6803 -0.47415,0.68029 -0.12369,0.68029 -0.18553,0.35046 z"
   id="path711-1"
   inkscape:connector-curvature="0" /><path
   style="fill:none;stroke:#ffcc00;stroke-width:1px;stroke-linecap:butt;stroke-linejoin:miter;stroke-opacity:1"
   d="m 398.17966,125.23381 v 0.47415 l 0.12369,0.45352 0.20615,0.49476 0.32984,0.6803 0.32984,0.43291 0.30922,0.28861 0.49476,0.55661 0.45353,0.20615 0.6803,0.28861 0.72152,-0.0206 h 0.72152 l 0.70091,-0.12369 0.61845,-0.20615 0.61845,-0.22676 0.32984,-0.4123 0.4123,-0.4123 0.32984,-0.39169 0.47414,-0.65968 0.0412,-0.43291 0.0618,-0.72152 -0.0618,-0.61845 -0.0618,-0.49476 -0.14431,-0.61845 -0.22676,-0.57722 -0.45353,-0.43291 -0.32984,-0.37107 -0.43292,-0.4123 -0.57721,-0.24738 -0.47415,-0.18554 h -1.05136 -0.61845 l -0.47415,0.0206 -0.49475,0.10307 -0.43292,0.20615 -0.51537,0.49476 -0.61845,0.6803 -0.47415,0.68029 -0.12369,0.68029 -0.18553,0.35046 z"
   id="path711-29"
   inkscape:connector-curvature="0" /><path
   style="fill:none;stroke:#ffcc00;stroke-width:1px;stroke-linecap:butt;stroke-linejoin:miter;stroke-opacity:1"
   d="m 405.52646,149.83976 v 0.47415 l 0.12369,0.45352 0.20615,0.49476 0.32984,0.6803 0.32984,0.43291 0.30922,0.28861 0.49476,0.55661 0.45353,0.20615 0.6803,0.28861 0.72152,-0.0206 h 0.72152 l 0.70091,-0.12369 0.61845,-0.20615 0.61845,-0.22676 0.32984,-0.4123 0.4123,-0.4123 0.32984,-0.39169 0.47414,-0.65968 0.0412,-0.43291 0.0618,-0.72152 -0.0618,-0.61845 -0.0618,-0.49476 -0.14431,-0.61845 -0.22676,-0.57722 -0.45353,-0.43291 -0.32984,-0.37107 -0.43292,-0.4123 -0.57721,-0.24738 -0.47415,-0.18554 h -1.05136 -0.61845 l -0.47415,0.0206 -0.49475,0.10307 -0.43292,0.20615 -0.51537,0.49476 -0.61845,0.6803 -0.47415,0.68029 -0.12369,0.68029 -0.18553,0.35046 z"
   id="path711-31"
   inkscape:connector-curvature="0" /><path
   style="fill:none;stroke:#ffcc00;stroke-width:1px;stroke-linecap:butt;stroke-linejoin:miter;stroke-opacity:1"
   d="m 399.2292,165.34967 v 0.47415 l 0.12369,0.45352 0.20615,0.49476 0.32984,0.6803 0.32984,0.43291 0.30922,0.28862 0.49476,0.55661 0.45353,0.20615 0.6803,0.28861 0.72152,-0.0206 h 0.72152 l 0.70091,-0.12369 0.61845,-0.20615 0.61845,-0.22676 0.32984,-0.4123 0.4123,-0.41231 0.32984,-0.39169 0.47414,-0.65968 0.0412,-0.43291 0.0618,-0.72152 -0.0618,-0.61845 -0.0618,-0.49476 -0.14431,-0.61845 -0.22676,-0.57722 -0.45353,-0.43291 -0.32984,-0.37107 -0.43292,-0.4123 -0.57721,-0.24738 -0.47415,-0.18554 h -1.05136 -0.61845 l -0.47415,0.0206 -0.49475,0.10307 -0.43292,0.20615 -0.51537,0.49476 -0.61845,0.6803 -0.47415,0.68029 -0.12369,0.68029 -0.18553,0.35046 z"
   id="path711-94"
   inkscape:connector-curvature="0" /><path
   style="fill:none;stroke:#ffcc00;stroke-width:1px;stroke-linecap:butt;stroke-linejoin:miter;stroke-opacity:1"
   d="m 392.46548,180.85959 v 0.47415 l 0.12369,0.45352 0.20615,0.49476 0.32984,0.6803 0.32984,0.43291 0.30922,0.28861 0.49476,0.55661 0.45353,0.20615 0.6803,0.28861 0.72152,-0.0206 h 0.72152 l 0.70091,-0.12369 0.61845,-0.20615 0.61845,-0.22676 0.32984,-0.4123 0.4123,-0.4123 0.32984,-0.39169 0.47414,-0.65968 0.0412,-0.43291 0.0618,-0.72152 -0.0618,-0.61845 -0.0618,-0.49476 -0.14431,-0.61845 -0.22676,-0.57722 -0.45353,-0.43291 -0.32984,-0.37107 -0.43292,-0.4123 -0.57721,-0.24738 -0.47415,-0.18554 h -1.05136 -0.61845 l -0.47415,0.0206 -0.49475,0.10307 -0.43292,0.20615 -0.51537,0.49476 -0.61845,0.6803 -0.47415,0.68029 -0.12369,0.68029 -0.18553,0.35046 z"
   id="path711-7"
   inkscape:connector-curvature="0" /><path
   style="fill:none;stroke:#ffcc00;stroke-width:1px;stroke-linecap:butt;stroke-linejoin:miter;stroke-opacity:1"
   d="m 243.82514,302.71385 v 0.47415 l 0.12369,0.45352 0.20615,0.49476 0.32984,0.6803 0.32984,0.43291 0.30922,0.28861 0.49476,0.55661 0.45353,0.20615 0.6803,0.28861 0.72152,-0.0206 h 0.72152 l 0.70091,-0.12369 0.61845,-0.20615 0.61845,-0.22676 0.32984,-0.4123 0.4123,-0.4123 0.32984,-0.39169 0.47414,-0.65968 0.0412,-0.43291 0.0618,-0.72152 -0.0618,-0.61845 -0.0618,-0.49476 -0.14431,-0.61845 -0.22676,-0.57722 -0.45353,-0.43291 -0.32984,-0.37107 -0.43292,-0.4123 -0.57721,-0.24738 -0.47415,-0.18554 h -1.05136 -0.61845 l -0.47415,0.0206 -0.49475,0.10307 -0.43292,0.20615 -0.51537,0.49476 -0.61845,0.6803 -0.47415,0.68029 -0.12369,0.68029 -0.18553,0.35046 z"
   id="path711-84"
   inkscape:connector-curvature="0" /><path
   style="fill:none;stroke:#ffcc00;stroke-width:1px;stroke-linecap:butt;stroke-linejoin:miter;stroke-opacity:1"
   d="m 280.72991,302.63139 v 0.47415 l 0.12369,0.45352 0.20615,0.49476 0.32984,0.6803 0.32984,0.43291 0.30922,0.28861 0.49476,0.55661 0.45353,0.20615 0.6803,0.28861 0.72152,-0.0206 h 0.72152 l 0.70091,-0.12369 0.61845,-0.20615 0.61845,-0.22676 0.32984,-0.4123 0.4123,-0.4123 0.32984,-0.39169 0.47414,-0.65968 0.0412,-0.43291 0.0618,-0.72152 -0.0618,-0.61845 -0.0618,-0.49476 -0.14431,-0.61845 -0.22676,-0.57722 -0.45353,-0.43291 -0.32984,-0.37107 -0.43292,-0.4123 -0.57721,-0.24738 -0.47415,-0.18554 h -1.05136 -0.61845 l -0.47415,0.0206 -0.49475,0.10307 -0.43292,0.20615 -0.51537,0.49476 -0.61845,0.6803 -0.47415,0.68029 -0.12369,0.68029 -0.18553,0.35046 z"
   id="path711-5"
   inkscape:connector-curvature="0" /><path
   style="fill:none;stroke:#ffcc00;stroke-width:1px;stroke-linecap:butt;stroke-linejoin:miter;stroke-opacity:1"
   d="m 316.8984,302.60653 v 0.47415 l 0.12369,0.45352 0.20615,0.49476 0.32984,0.6803 0.32984,0.43291 0.30922,0.28861 0.49476,0.55661 0.45353,0.20615 0.6803,0.28861 0.72152,-0.0206 h 0.72152 l 0.70091,-0.12369 0.61845,-0.20615 0.61845,-0.22676 0.32984,-0.4123 0.4123,-0.4123 0.32984,-0.39169 0.47414,-0.65968 0.0412,-0.43291 0.0618,-0.72152 -0.0618,-0.61845 -0.0618,-0.49476 -0.14431,-0.61845 -0.22676,-0.57722 -0.45353,-0.43291 -0.32984,-0.37107 -0.43292,-0.4123 -0.57721,-0.24738 -0.47415,-0.18554 h -1.05136 -0.61845 l -0.47415,0.0206 -0.49475,0.10307 -0.43292,0.20615 -0.51537,0.49476 -0.61845,0.6803 -0.47415,0.68029 -0.12369,0.68029 -0.18553,0.35046 z"
   id="path711-0"
   inkscape:connector-curvature="0" /><path
   style="fill:none;stroke:#ffcc00;stroke-width:1px;stroke-linecap:butt;stroke-linejoin:miter;stroke-opacity:1"
   d="m 382.08667,312.28565 v 0.47415 l 0.12369,0.45352 0.20615,0.49476 0.32984,0.6803 0.32984,0.43291 0.30922,0.28861 0.49476,0.55661 0.45353,0.20615 0.6803,0.28861 0.72152,-0.0206 h 0.72152 l 0.70091,-0.12369 0.61845,-0.20615 0.61845,-0.22676 0.32984,-0.4123 0.4123,-0.4123 0.32984,-0.39169 0.47414,-0.65968 0.0412,-0.43291 0.0618,-0.72152 -0.0618,-0.61845 -0.0618,-0.49476 -0.14431,-0.61845 -0.22676,-0.57722 -0.45353,-0.43291 -0.32984,-0.37107 -0.43292,-0.4123 -0.57721,-0.24738 -0.47415,-0.18554 h -1.05136 -0.61845 l -0.47415,0.0206 -0.49475,0.10307 -0.43292,0.20615 -0.51537,0.49476 -0.61845,0.6803 -0.47415,0.68029 -0.12369,0.68029 -0.18553,0.35046 z"
   id="path711-361"
   inkscape:connector-curvature="0" /><path
   style="fill:none;stroke:#ffcc00;stroke-width:1px;stroke-linecap:butt;stroke-linejoin:miter;stroke-opacity:1"
   d="m 382.08667,293.62711 v 0.47415 l 0.12369,0.45352 0.20615,0.49476 0.32984,0.6803 0.32984,0.43291 0.30922,0.28861 0.49476,0.55661 0.45353,0.20615 0.6803,0.28861 0.72152,-0.0206 h 0.72152 l 0.70091,-0.12369 0.61845,-0.20615 0.61845,-0.22676 0.32984,-0.4123 0.4123,-0.4123 0.32984,-0.39169 0.47414,-0.65968 0.0412,-0.43291 0.0618,-0.72152 -0.0618,-0.61845 -0.0618,-0.49476 -0.14431,-0.61845 -0.22676,-0.57722 -0.45353,-0.43291 -0.32984,-0.37107 -0.43292,-0.4123 -0.57721,-0.24738 -0.47415,-0.18554 h -1.05136 -0.61845 l -0.47415,0.0206 -0.49475,0.10307 -0.43292,0.20615 -0.51537,0.49476 -0.61845,0.6803 -0.47415,0.68029 -0.12369,0.68029 -0.18553,0.35046 z"
   id="path711-06"
   inkscape:connector-curvature="0" /></svg>
