<?xml version="1.0" standalone="no"?>
<!DOCTYPE svg PUBLIC "-//W3C//DTD SVG 20010904//EN"
 "http://www.w3.org/TR/2001/REC-SVG-20010904/DTD/svg10.dtd">
<svg version="1.0" xmlns="http://www.w3.org/2000/svg"
 width="1584.000000pt" height="792.000000pt" viewBox="0 0 1584.000000 792.000000"
 preserveAspectRatio="xMidYMid meet">

<g transform="translate(0.000000,792.000000) scale(0.100000,-0.100000)"
fill="#000000" stroke="none">
<path d="M610 3985 l0 -3705 7305 0 7305 0 0 3705 0 3705 -7305 0 -7305 0 0
-3705z m14510 0 l0 -3605 -7205 0 -7205 0 0 3605 0 3605 7205 0 7205 0 0
-3605z"/>
<path d="M1837 6783 c-30 -86 -31 -93 -17 -93 5 0 12 11 16 25 5 21 12 25 40
25 28 0 36 -5 44 -25 9 -23 30 -35 30 -17 0 24 -60 157 -72 160 -10 2 -23 -22
-41 -75z m63 -10 c0 -7 -11 -13 -24 -13 -23 0 -24 2 -13 36 11 35 11 35 23 12
8 -13 13 -29 14 -35z"/>
<path d="M3017 6783 c-30 -86 -31 -93 -17 -93 5 0 12 11 16 25 5 21 12 25 40
25 28 0 36 -5 44 -25 9 -23 30 -35 30 -17 0 24 -60 157 -72 160 -10 2 -23 -22
-41 -75z m63 -10 c0 -7 -11 -13 -24 -13 -23 0 -24 2 -13 36 11 35 11 35 23 12
8 -13 13 -29 14 -35z"/>
<path d="M4217 6783 c-30 -86 -31 -93 -17 -93 5 0 12 11 16 25 5 21 12 25 40
25 28 0 36 -5 44 -25 9 -23 30 -35 30 -17 0 24 -60 157 -72 160 -10 2 -23 -22
-41 -75z m63 -10 c0 -7 -11 -13 -24 -13 -23 0 -24 2 -13 36 11 35 11 35 23 12
8 -13 13 -29 14 -35z"/>
<path d="M5417 6783 c-30 -86 -31 -93 -17 -93 5 0 12 11 16 25 5 21 12 25 40
25 28 0 36 -5 44 -25 9 -23 30 -35 30 -17 0 24 -60 157 -72 160 -10 2 -23 -22
-41 -75z m63 -10 c0 -7 -11 -13 -24 -13 -23 0 -24 2 -13 36 11 35 11 35 23 12
8 -13 13 -29 14 -35z"/>
<path d="M6617 6783 c-30 -86 -31 -93 -17 -93 5 0 12 11 16 25 5 21 12 25 40
25 28 0 36 -5 44 -25 9 -23 30 -35 30 -17 0 24 -60 157 -72 160 -10 2 -23 -22
-41 -75z m63 -10 c0 -7 -11 -13 -24 -13 -23 0 -24 2 -13 36 11 35 11 35 23 12
8 -13 13 -29 14 -35z"/>
<path d="M7817 6783 c-30 -86 -31 -93 -17 -93 5 0 12 11 16 25 5 21 12 25 40
25 28 0 36 -5 44 -25 9 -23 30 -35 30 -17 0 24 -60 157 -72 160 -10 2 -23 -22
-41 -75z m63 -10 c0 -7 -11 -13 -24 -13 -23 0 -24 2 -13 36 11 35 11 35 23 12
8 -13 13 -29 14 -35z"/>
<path d="M9027 6783 c-30 -86 -31 -93 -17 -93 5 0 12 11 16 25 5 21 12 25 40
25 28 0 36 -5 44 -25 9 -23 30 -35 30 -17 0 24 -60 157 -72 160 -10 2 -23 -22
-41 -75z m63 -10 c0 -7 -11 -13 -24 -13 -23 0 -24 2 -13 36 11 35 11 35 23 12
8 -13 13 -29 14 -35z"/>
<path d="M10217 6783 c-30 -86 -31 -93 -17 -93 5 0 12 11 16 25 5 21 12 25 40
25 28 0 36 -5 44 -25 9 -23 30 -35 30 -17 0 24 -60 157 -72 160 -10 2 -23 -22
-41 -75z m63 -10 c0 -7 -11 -13 -24 -13 -23 0 -24 2 -13 36 11 35 11 35 23 12
8 -13 13 -29 14 -35z"/>
<path d="M11417 6783 c-30 -86 -31 -93 -17 -93 5 0 12 11 16 25 5 21 12 25 40
25 28 0 36 -5 44 -25 9 -23 30 -35 30 -17 0 24 -60 157 -72 160 -10 2 -23 -22
-41 -75z m63 -10 c0 -7 -11 -13 -24 -13 -23 0 -24 2 -13 36 11 35 11 35 23 12
8 -13 13 -29 14 -35z"/>
<path d="M12557 6783 c-30 -86 -31 -93 -17 -93 5 0 12 11 16 25 5 21 12 25 40
25 28 0 36 -5 44 -25 9 -23 30 -35 30 -17 0 24 -60 157 -72 160 -10 2 -23 -22
-41 -75z m63 -10 c0 -7 -11 -13 -24 -13 -23 0 -24 2 -13 36 11 35 11 35 23 12
8 -13 13 -29 14 -35z"/>
<path d="M13787 6783 c-30 -86 -31 -93 -17 -93 5 0 12 11 16 25 5 21 12 25 40
25 28 0 36 -5 44 -25 9 -23 30 -35 30 -17 0 24 -60 157 -72 160 -10 2 -23 -22
-41 -75z m63 -10 c0 -7 -11 -13 -24 -13 -23 0 -24 2 -13 36 11 35 11 35 23 12
8 -13 13 -29 14 -35z"/>
<path d="M1988 6836 c-22 -16 -23 -30 -3 -22 12 4 15 -6 15 -59 0 -37 4 -65
10 -65 6 0 10 33 10 80 0 44 -3 80 -7 80 -5 0 -16 -7 -25 -14z"/>
<path d="M3160 6829 c-15 -26 -3 -40 14 -16 16 21 45 22 52 2 4 -9 -10 -32
-35 -60 -22 -24 -41 -49 -41 -55 0 -6 24 -10 55 -10 30 0 55 5 55 10 0 6 -19
10 -42 10 l-42 0 37 38 c38 39 46 69 25 90 -20 20 -66 15 -78 -9z"/>
<path d="M4364 6833 c-12 -12 -13 -18 -4 -21 7 -3 16 1 20 8 10 17 44 8 48
-13 2 -12 -3 -17 -17 -17 -12 0 -21 -4 -21 -10 0 -5 4 -10 8 -10 20 0 43 -27
36 -43 -7 -18 -54 -24 -54 -7 0 6 -7 10 -15 10 -8 0 -15 -4 -15 -8 0 -17 25
-32 55 -32 17 0 36 5 43 12 14 14 16 54 2 63 -5 3 -7 20 -3 36 4 21 1 34 -8
40 -22 14 -56 10 -75 -8z"/>
<path d="M5586 6801 c-20 -27 -36 -54 -36 -60 0 -6 16 -11 35 -11 28 0 35 -4
35 -20 0 -11 5 -20 10 -20 6 0 10 9 10 19 0 11 6 22 13 25 10 5 10 7 0 12 -8
3 -13 25 -13 55 0 27 -4 49 -9 49 -5 0 -25 -22 -45 -49z m34 -21 c0 -23 -4
-30 -20 -30 -24 0 -25 4 -4 35 21 32 24 31 24 -5z"/>
<path d="M6766 6834 c-7 -19 -8 -74 -1 -74 3 0 14 6 25 12 26 17 55 -10 45
-41 -6 -21 -55 -31 -55 -11 0 6 -7 10 -15 10 -13 0 -14 -4 -5 -20 15 -27 75
-28 90 -1 24 46 -3 97 -47 88 -18 -3 -23 -1 -19 10 3 8 6 17 6 19 0 2 14 4 30
4 17 0 30 5 30 10 0 17 -77 12 -84 -6z"/>
<path d="M7970 6835 c-6 -8 -14 -32 -17 -54 -7 -53 16 -91 55 -91 35 0 52 17
52 51 0 36 -27 62 -57 56 -15 -3 -23 0 -23 10 0 20 29 28 51 15 27 -17 31 -15
19 8 -13 24 -62 27 -80 5z m60 -70 c6 -8 10 -22 8 -32 -5 -25 -51 -25 -56 0
-8 42 23 63 48 32z"/>
<path d="M9150 6840 c0 -5 18 -10 40 -10 22 0 40 -1 40 -2 0 -2 -11 -25 -25
-52 -26 -51 -32 -86 -15 -86 6 0 10 6 10 14 0 7 13 40 30 72 16 32 30 62 30
67 0 4 -25 7 -55 7 -30 0 -55 -4 -55 -10z"/>
<path d="M10370 6835 c-7 -8 -10 -24 -7 -35 3 -11 0 -33 -6 -49 -8 -23 -8 -33
2 -45 16 -19 72 -21 89 -4 15 15 16 54 2 63 -7 4 -7 13 0 26 24 44 -47 84 -80
44z m60 -25 c0 -15 -7 -20 -25 -20 -24 0 -34 18 -18 33 15 15 43 7 43 -13z m8
-78 c-5 -24 -53 -28 -62 -5 -10 25 20 46 46 32 11 -6 18 -18 16 -27z"/>
<path d="M11566 6834 c-19 -18 -21 -55 -4 -72 7 -7 25 -12 40 -12 18 0 28 -5
28 -15 0 -21 -29 -31 -50 -17 -22 13 -34 4 -19 -15 15 -17 63 -17 79 2 21 25
24 92 6 120 -19 29 -56 33 -80 9z m62 -36 c3 -24 0 -28 -21 -28 -27 0 -40 20
-30 46 10 26 48 13 51 -18z"/>
<path d="M12708 6836 c-22 -16 -23 -30 -3 -22 12 4 15 -6 15 -59 0 -37 4 -65
10 -65 6 0 10 33 10 80 0 44 -3 80 -7 80 -5 0 -16 -7 -25 -14z"/>
<path d="M12796 6828 c-9 -12 -16 -38 -16 -58 0 -20 7 -46 16 -58 20 -28 69
-30 84 -3 16 30 12 107 -6 125 -22 23 -60 20 -78 -6z m62 -10 c13 -13 16 -66
6 -92 -7 -18 -39 -21 -50 -5 -8 13 -8 85 1 99 8 14 28 13 43 -2z"/>
<path d="M13938 6836 c-22 -16 -23 -30 -3 -22 12 4 15 -6 15 -59 0 -37 4 -65
10 -65 6 0 10 33 10 80 0 44 -3 80 -7 80 -5 0 -16 -7 -25 -14z"/>
<path d="M14018 6836 c-22 -16 -23 -30 -3 -22 12 4 15 -6 15 -59 0 -37 4 -65
10 -65 6 0 10 33 10 80 0 44 -3 80 -7 80 -5 0 -16 -7 -25 -14z"/>
<path d="M1830 6395 l0 -85 85 0 85 0 0 85 0 85 -85 0 -85 0 0 -85z"/>
<path d="M3030 6395 l0 -85 85 0 85 0 0 85 0 85 -85 0 -85 0 0 -85z"/>
<path d="M4230 6395 l0 -85 85 0 85 0 0 85 0 85 -85 0 -85 0 0 -85z"/>
<path d="M5430 6395 l0 -85 85 0 85 0 0 85 0 85 -85 0 -85 0 0 -85z"/>
<path d="M6630 6395 l0 -85 85 0 85 0 0 85 0 85 -85 0 -85 0 0 -85z"/>
<path d="M7830 6395 l0 -85 85 0 85 0 0 85 0 85 -85 0 -85 0 0 -85z"/>
<path d="M9030 6395 l0 -85 85 0 85 0 0 85 0 85 -85 0 -85 0 0 -85z"/>
<path d="M10230 6395 l0 -85 85 0 85 0 0 85 0 85 -85 0 -85 0 0 -85z"/>
<path d="M11430 6395 l0 -85 85 0 85 0 0 85 0 85 -85 0 -85 0 0 -85z"/>
<path d="M12630 6395 l0 -85 85 0 85 0 0 85 0 85 -85 0 -85 0 0 -85z"/>
<path d="M13830 6395 l0 -85 85 0 85 0 0 85 0 85 -85 0 -85 0 0 -85z"/>
<path d="M1840 5575 l0 -85 48 0 c26 0 53 5 60 12 15 15 16 68 2 68 -7 0 -7 6
0 19 14 27 13 37 -6 55 -9 10 -33 16 -60 16 l-44 0 0 -85z m88 38 c3 -20 -1
-23 -32 -23 -28 0 -36 4 -36 18 0 26 10 33 40 30 17 -2 26 -10 28 -25z m2 -58
c20 -24 4 -45 -35 -45 -30 0 -35 3 -35 23 0 13 3 27 7 30 12 12 50 7 63 -8z"/>
<path d="M3000 5575 l0 -85 48 0 c26 0 53 5 60 12 15 15 16 68 2 68 -7 0 -7 6
0 19 14 27 13 37 -6 55 -9 10 -33 16 -60 16 l-44 0 0 -85z m88 38 c3 -20 -1
-23 -32 -23 -28 0 -36 4 -36 18 0 26 10 33 40 30 17 -2 26 -10 28 -25z m2 -58
c20 -24 4 -45 -35 -45 -30 0 -35 3 -35 23 0 13 3 27 7 30 12 12 50 7 63 -8z"/>
<path d="M4220 5575 l0 -85 48 0 c26 0 53 5 60 12 15 15 16 68 2 68 -7 0 -7 6
0 19 14 27 13 37 -6 55 -9 10 -33 16 -60 16 l-44 0 0 -85z m88 38 c3 -20 -1
-23 -32 -23 -28 0 -36 4 -36 18 0 26 10 33 40 30 17 -2 26 -10 28 -25z m2 -58
c20 -24 4 -45 -35 -45 -30 0 -35 3 -35 23 0 13 3 27 7 30 12 12 50 7 63 -8z"/>
<path d="M5420 5575 l0 -85 48 0 c26 0 53 5 60 12 15 15 16 68 2 68 -7 0 -7 6
0 19 14 27 13 37 -6 55 -9 10 -33 16 -60 16 l-44 0 0 -85z m88 38 c3 -20 -1
-23 -32 -23 -28 0 -36 4 -36 18 0 26 10 33 40 30 17 -2 26 -10 28 -25z m2 -58
c20 -24 4 -45 -35 -45 -30 0 -35 3 -35 23 0 13 3 27 7 30 12 12 50 7 63 -8z"/>
<path d="M6600 5575 l0 -85 48 0 c26 0 53 5 60 12 15 15 16 68 2 68 -7 0 -7 6
0 19 14 27 13 37 -6 55 -9 10 -33 16 -60 16 l-44 0 0 -85z m88 38 c3 -20 -1
-23 -32 -23 -28 0 -36 4 -36 18 0 26 10 33 40 30 17 -2 26 -10 28 -25z m2 -58
c20 -24 4 -45 -35 -45 -30 0 -35 3 -35 23 0 13 3 27 7 30 12 12 50 7 63 -8z"/>
<path d="M7820 5575 l0 -85 48 0 c26 0 53 5 60 12 15 15 16 68 2 68 -7 0 -7 6
0 19 14 27 13 37 -6 55 -9 10 -33 16 -60 16 l-44 0 0 -85z m88 38 c3 -20 -1
-23 -32 -23 -28 0 -36 4 -36 18 0 26 10 33 40 30 17 -2 26 -10 28 -25z m2 -58
c20 -24 4 -45 -35 -45 -30 0 -35 3 -35 23 0 13 3 27 7 30 12 12 50 7 63 -8z"/>
<path d="M9030 5575 l0 -85 48 0 c26 0 53 5 60 12 15 15 16 68 2 68 -7 0 -7 6
0 19 14 27 13 37 -6 55 -9 10 -33 16 -60 16 l-44 0 0 -85z m88 38 c3 -20 -1
-23 -32 -23 -28 0 -36 4 -36 18 0 26 10 33 40 30 17 -2 26 -10 28 -25z m2 -58
c20 -24 4 -45 -35 -45 -30 0 -35 3 -35 23 0 13 3 27 7 30 12 12 50 7 63 -8z"/>
<path d="M10220 5575 l0 -85 48 0 c26 0 53 5 60 12 15 15 16 68 2 68 -7 0 -7
6 0 19 14 27 13 37 -6 55 -9 10 -33 16 -60 16 l-44 0 0 -85z m88 38 c3 -20 -1
-23 -32 -23 -28 0 -36 4 -36 18 0 26 10 33 40 30 17 -2 26 -10 28 -25z m2 -58
c20 -24 4 -45 -35 -45 -30 0 -35 3 -35 23 0 13 3 27 7 30 12 12 50 7 63 -8z"/>
<path d="M11420 5575 l0 -85 48 0 c26 0 53 5 60 12 15 15 16 68 2 68 -7 0 -7
6 0 19 14 27 13 37 -6 55 -9 10 -33 16 -60 16 l-44 0 0 -85z m88 38 c3 -20 -1
-23 -32 -23 -28 0 -36 4 -36 18 0 26 10 33 40 30 17 -2 26 -10 28 -25z m2 -58
c20 -24 4 -45 -35 -45 -30 0 -35 3 -35 23 0 13 3 27 7 30 12 12 50 7 63 -8z"/>
<path d="M12540 5575 l0 -85 48 0 c26 0 53 5 60 12 15 15 16 68 2 68 -7 0 -7
6 0 19 14 27 13 37 -6 55 -9 10 -33 16 -60 16 l-44 0 0 -85z m88 38 c3 -20 -1
-23 -32 -23 -28 0 -36 4 -36 18 0 26 10 33 40 30 17 -2 26 -10 28 -25z m2 -58
c20 -24 4 -45 -35 -45 -30 0 -35 3 -35 23 0 13 3 27 7 30 12 12 50 7 63 -8z"/>
<path d="M13780 5575 l0 -85 48 0 c26 0 53 5 60 12 15 15 16 68 2 68 -7 0 -7
6 0 19 14 27 13 37 -6 55 -9 10 -33 16 -60 16 l-44 0 0 -85z m88 38 c3 -20 -1
-23 -32 -23 -28 0 -36 4 -36 18 0 26 10 33 40 30 17 -2 26 -10 28 -25z m2 -58
c20 -24 4 -45 -35 -45 -30 0 -35 3 -35 23 0 13 3 27 7 30 12 12 50 7 63 -8z"/>
<path d="M2008 5636 c-22 -16 -23 -30 -3 -22 12 4 15 -6 15 -59 0 -37 4 -65
10 -65 6 0 10 33 10 80 0 44 -3 80 -7 80 -5 0 -16 -7 -25 -14z"/>
<path d="M3160 5629 c-15 -26 -3 -40 14 -16 16 21 45 22 52 2 4 -9 -10 -32
-35 -60 -22 -24 -41 -49 -41 -55 0 -6 24 -10 55 -10 30 0 55 5 55 10 0 6 -19
10 -42 10 l-42 0 37 38 c38 39 46 69 25 90 -20 20 -66 15 -78 -9z"/>
<path d="M4384 5633 c-12 -12 -13 -18 -4 -21 7 -3 16 1 20 8 10 17 44 8 48
-13 2 -12 -3 -17 -17 -17 -12 0 -21 -4 -21 -10 0 -5 4 -10 8 -10 20 0 43 -27
36 -43 -7 -18 -54 -24 -54 -7 0 6 -7 10 -15 10 -8 0 -15 -4 -15 -8 0 -17 25
-32 55 -32 17 0 36 5 43 12 14 14 16 54 2 63 -5 3 -7 20 -3 36 4 21 1 34 -8
40 -22 14 -56 10 -75 -8z"/>
<path d="M5606 5601 c-20 -27 -36 -54 -36 -60 0 -6 16 -11 35 -11 28 0 35 -4
35 -20 0 -11 5 -20 10 -20 6 0 10 9 10 19 0 11 6 22 13 25 10 5 10 7 0 12 -8
3 -13 25 -13 55 0 27 -4 49 -9 49 -5 0 -25 -22 -45 -49z m34 -21 c0 -23 -4
-30 -20 -30 -24 0 -25 4 -4 35 21 32 24 31 24 -5z"/>
<path d="M6766 5634 c-7 -19 -8 -74 -1 -74 3 0 14 6 25 12 26 17 55 -10 45
-41 -6 -21 -55 -31 -55 -11 0 6 -7 10 -15 10 -13 0 -14 -4 -5 -20 15 -27 75
-28 90 -1 24 46 -3 97 -47 88 -18 -3 -23 -1 -19 10 3 8 6 17 6 19 0 2 14 4 30
4 17 0 30 5 30 10 0 17 -77 12 -84 -6z"/>
<path d="M7990 5635 c-6 -8 -14 -32 -17 -54 -7 -53 16 -91 55 -91 35 0 52 17
52 51 0 36 -27 62 -57 56 -15 -3 -23 0 -23 10 0 20 29 28 51 15 27 -17 31 -15
19 8 -13 24 -62 27 -80 5z m60 -70 c6 -8 10 -22 8 -32 -5 -25 -51 -25 -56 0
-8 42 23 63 48 32z"/>
<path d="M9160 5640 c0 -5 18 -10 40 -10 22 0 40 -1 40 -2 0 -2 -11 -25 -25
-52 -26 -51 -32 -86 -15 -86 6 0 10 6 10 14 0 7 13 40 30 72 16 32 30 62 30
67 0 4 -25 7 -55 7 -30 0 -55 -4 -55 -10z"/>
<path d="M10390 5635 c-7 -8 -10 -24 -7 -35 3 -11 0 -33 -6 -49 -8 -23 -8 -33
2 -45 16 -19 72 -21 89 -4 15 15 16 54 2 63 -7 4 -7 13 0 26 24 44 -47 84 -80
44z m60 -25 c0 -15 -7 -20 -25 -20 -24 0 -34 18 -18 33 15 15 43 7 43 -13z m8
-78 c-5 -24 -53 -28 -62 -5 -10 25 20 46 46 32 11 -6 18 -18 16 -27z"/>
<path d="M11586 5634 c-19 -18 -21 -55 -4 -72 7 -7 25 -12 40 -12 18 0 28 -5
28 -15 0 -21 -29 -31 -50 -17 -22 13 -34 4 -19 -15 15 -17 63 -17 79 2 21 25
24 92 6 120 -19 29 -56 33 -80 9z m62 -36 c3 -24 0 -28 -21 -28 -27 0 -40 20
-30 46 10 26 48 13 51 -18z"/>
<path d="M12708 5636 c-22 -16 -23 -30 -3 -22 12 4 15 -6 15 -59 0 -37 4 -65
10 -65 6 0 10 33 10 80 0 44 -3 80 -7 80 -5 0 -16 -7 -25 -14z"/>
<path d="M12796 5628 c-9 -12 -16 -38 -16 -58 0 -20 7 -46 16 -58 20 -28 69
-30 84 -3 16 30 12 107 -6 125 -22 23 -60 20 -78 -6z m62 -10 c13 -13 16 -66
6 -92 -7 -18 -39 -21 -50 -5 -8 13 -8 85 1 99 8 14 28 13 43 -2z"/>
<path d="M13948 5636 c-22 -16 -23 -30 -3 -22 12 4 15 -6 15 -59 0 -37 4 -65
10 -65 6 0 10 33 10 80 0 44 -3 80 -7 80 -5 0 -16 -7 -25 -14z"/>
<path d="M14028 5636 c-22 -16 -23 -30 -3 -22 12 4 15 -6 15 -59 0 -37 4 -65
10 -65 6 0 10 33 10 80 0 44 -3 80 -7 80 -5 0 -16 -7 -25 -14z"/>
<path d="M1830 5195 l0 -85 85 0 85 0 0 85 0 85 -85 0 -85 0 0 -85z"/>
<path d="M3030 5195 l0 -85 85 0 85 0 0 85 0 85 -85 0 -85 0 0 -85z"/>
<path d="M4230 5195 l0 -85 85 0 85 0 0 85 0 85 -85 0 -85 0 0 -85z"/>
<path d="M5430 5195 l0 -85 85 0 85 0 0 85 0 85 -85 0 -85 0 0 -85z"/>
<path d="M6630 5195 l0 -85 85 0 85 0 0 85 0 85 -85 0 -85 0 0 -85z"/>
<path d="M7830 5195 l0 -85 85 0 85 0 0 85 0 85 -85 0 -85 0 0 -85z"/>
<path d="M9030 5195 l0 -85 85 0 85 0 0 85 0 85 -85 0 -85 0 0 -85z"/>
<path d="M10230 5195 l0 -85 85 0 85 0 0 85 0 85 -85 0 -85 0 0 -85z"/>
<path d="M11430 5195 l0 -85 85 0 85 0 0 85 0 85 -85 0 -85 0 0 -85z"/>
<path d="M12630 5195 l0 -85 85 0 85 0 0 85 0 85 -85 0 -85 0 0 -85z"/>
<path d="M13830 5195 l0 -85 85 0 85 0 0 85 0 85 -85 0 -85 0 0 -85z"/>
<path d="M1810 4315 l0 -85 48 0 c26 0 53 5 60 12 15 15 16 68 2 68 -7 0 -7 6
0 19 14 27 13 37 -6 55 -9 10 -33 16 -60 16 l-44 0 0 -85z m88 38 c3 -20 -1
-23 -32 -23 -28 0 -36 4 -36 18 0 26 10 33 40 30 17 -2 26 -10 28 -25z m2 -58
c20 -24 4 -45 -35 -45 -30 0 -35 3 -35 23 0 13 3 27 7 30 12 12 50 7 63 -8z"/>
<path d="M3010 4315 l0 -85 48 0 c26 0 53 5 60 12 15 15 16 68 2 68 -7 0 -7 6
0 19 14 27 13 37 -6 55 -9 10 -33 16 -60 16 l-44 0 0 -85z m88 38 c3 -20 -1
-23 -32 -23 -28 0 -36 4 -36 18 0 26 10 33 40 30 17 -2 26 -10 28 -25z m2 -58
c20 -24 4 -45 -35 -45 -30 0 -35 3 -35 23 0 13 3 27 7 30 12 12 50 7 63 -8z"/>
<path d="M4210 4382 c-13 -10 -23 -33 -27 -57 -7 -52 24 -95 68 -95 38 0 69
16 69 35 0 19 -14 19 -30 0 -18 -21 -57 -19 -70 4 -34 65 26 149 70 96 14 -17
30 -20 30 -6 0 38 -72 53 -110 23z"/>
<path d="M5390 4315 l0 -85 48 0 c26 0 53 5 60 12 15 15 16 68 2 68 -7 0 -7 6
0 19 14 27 13 37 -6 55 -9 10 -33 16 -60 16 l-44 0 0 -85z m88 38 c3 -20 -1
-23 -32 -23 -28 0 -36 4 -36 18 0 26 10 33 40 30 17 -2 26 -10 28 -25z m2 -58
c20 -24 4 -45 -35 -45 -30 0 -35 3 -35 23 0 13 3 27 7 30 12 12 50 7 63 -8z"/>
<path d="M6620 4315 l0 -85 48 0 c26 0 53 5 60 12 15 15 16 68 2 68 -7 0 -7 6
0 19 14 27 13 37 -6 55 -9 10 -33 16 -60 16 l-44 0 0 -85z m88 38 c3 -20 -1
-23 -32 -23 -28 0 -36 4 -36 18 0 26 10 33 40 30 17 -2 26 -10 28 -25z m2 -58
c20 -24 4 -45 -35 -45 -30 0 -35 3 -35 23 0 13 3 27 7 30 12 12 50 7 63 -8z"/>
<path d="M7780 4315 l0 -85 48 0 c26 0 53 5 60 12 15 15 16 68 2 68 -7 0 -7 6
0 19 14 27 13 37 -6 55 -9 10 -33 16 -60 16 l-44 0 0 -85z m88 38 c3 -20 -1
-23 -32 -23 -28 0 -36 4 -36 18 0 26 10 33 40 30 17 -2 26 -10 28 -25z m2 -58
c20 -24 4 -45 -35 -45 -30 0 -35 3 -35 23 0 13 3 27 7 30 12 12 50 7 63 -8z"/>
<path d="M8990 4315 l0 -85 48 0 c26 0 53 5 60 12 15 15 16 68 2 68 -7 0 -7 6
0 19 14 27 13 37 -6 55 -9 10 -33 16 -60 16 l-44 0 0 -85z m88 38 c3 -20 -1
-23 -32 -23 -28 0 -36 4 -36 18 0 26 10 33 40 30 17 -2 26 -10 28 -25z m2 -58
c20 -24 4 -45 -35 -45 -30 0 -35 3 -35 23 0 13 3 27 7 30 12 12 50 7 63 -8z"/>
<path d="M10200 4315 l0 -85 48 0 c26 0 53 5 60 12 15 15 16 68 2 68 -7 0 -7
6 0 19 14 27 13 37 -6 55 -9 10 -33 16 -60 16 l-44 0 0 -85z m88 38 c3 -20 -1
-23 -32 -23 -28 0 -36 4 -36 18 0 26 10 33 40 30 17 -2 26 -10 28 -25z m2 -58
c20 -24 4 -45 -35 -45 -30 0 -35 3 -35 23 0 13 3 27 7 30 12 12 50 7 63 -8z"/>
<path d="M11400 4382 c-13 -10 -23 -33 -27 -57 -7 -52 24 -95 68 -95 38 0 69
16 69 35 0 19 -14 19 -30 0 -18 -21 -57 -19 -70 4 -34 65 26 149 70 96 14 -17
30 -20 30 -6 0 38 -72 53 -110 23z"/>
<path d="M12540 4315 l0 -85 48 0 c26 0 53 5 60 12 15 15 16 68 2 68 -7 0 -7
6 0 19 14 27 13 37 -6 55 -9 10 -33 16 -60 16 l-44 0 0 -85z m88 38 c3 -20 -1
-23 -32 -23 -28 0 -36 4 -36 18 0 26 10 33 40 30 17 -2 26 -10 28 -25z m2 -58
c20 -24 4 -45 -35 -45 -30 0 -35 3 -35 23 0 13 3 27 7 30 12 12 50 7 63 -8z"/>
<path d="M13770 4315 l0 -85 48 0 c26 0 53 5 60 12 15 15 16 68 2 68 -7 0 -7
6 0 19 14 27 13 37 -6 55 -9 10 -33 16 -60 16 l-44 0 0 -85z m88 38 c3 -20 -1
-23 -32 -23 -28 0 -36 4 -36 18 0 26 10 33 40 30 17 -2 26 -10 28 -25z m2 -58
c20 -24 4 -45 -35 -45 -30 0 -35 3 -35 23 0 13 3 27 7 30 12 12 50 7 63 -8z"/>
<path d="M1978 4376 c-22 -16 -23 -30 -3 -22 12 4 15 -6 15 -59 0 -37 4 -65
10 -65 6 0 10 33 10 80 0 44 -3 80 -7 80 -5 0 -16 -7 -25 -14z"/>
<path d="M3170 4369 c-15 -26 -3 -40 14 -16 16 21 45 22 52 2 4 -9 -10 -32
-35 -60 -22 -24 -41 -49 -41 -55 0 -6 24 -10 55 -10 30 0 55 5 55 10 0 6 -19
10 -42 10 l-42 0 37 38 c38 39 46 69 25 90 -20 20 -66 15 -78 -9z"/>
<path d="M4354 4373 c-12 -12 -13 -18 -4 -21 7 -3 16 1 20 8 10 17 44 8 48
-13 2 -12 -3 -17 -17 -17 -12 0 -21 -4 -21 -10 0 -5 4 -10 8 -10 20 0 43 -27
36 -43 -7 -18 -54 -24 -54 -7 0 6 -7 10 -15 10 -8 0 -15 -4 -15 -8 0 -17 25
-32 55 -32 17 0 36 5 43 12 14 14 16 54 2 63 -5 3 -7 20 -3 36 4 21 1 34 -8
40 -22 14 -56 10 -75 -8z"/>
<path d="M5576 4341 c-20 -27 -36 -54 -36 -60 0 -6 16 -11 35 -11 28 0 35 -4
35 -20 0 -11 5 -20 10 -20 6 0 10 9 10 19 0 11 6 22 13 25 10 5 10 7 0 12 -8
3 -13 25 -13 55 0 27 -4 49 -9 49 -5 0 -25 -22 -45 -49z m34 -21 c0 -23 -4
-30 -20 -30 -24 0 -25 4 -4 35 21 32 24 31 24 -5z"/>
<path d="M6786 4374 c-7 -19 -8 -74 -1 -74 3 0 14 6 25 12 26 17 55 -10 45
-41 -6 -21 -55 -31 -55 -11 0 6 -7 10 -15 10 -13 0 -14 -4 -5 -20 15 -27 75
-28 90 -1 24 46 -3 97 -47 88 -18 -3 -23 -1 -19 10 3 8 6 17 6 19 0 2 14 4 30
4 17 0 30 5 30 10 0 17 -77 12 -84 -6z"/>
<path d="M7950 4375 c-6 -8 -14 -32 -17 -54 -7 -53 16 -91 55 -91 35 0 52 17
52 51 0 36 -27 62 -57 56 -15 -3 -23 0 -23 10 0 20 29 28 51 15 27 -17 31 -15
19 8 -13 24 -62 27 -80 5z m60 -70 c6 -8 10 -22 8 -32 -5 -25 -51 -25 -56 0
-8 42 23 63 48 32z"/>
<path d="M9120 4380 c0 -5 18 -10 40 -10 22 0 40 -1 40 -2 0 -2 -11 -25 -25
-52 -26 -51 -32 -86 -15 -86 6 0 10 6 10 14 0 7 13 40 30 72 16 32 30 62 30
67 0 4 -25 7 -55 7 -30 0 -55 -4 -55 -10z"/>
<path d="M10370 4375 c-7 -8 -10 -24 -7 -35 3 -11 0 -33 -6 -49 -8 -23 -8 -33
2 -45 16 -19 72 -21 89 -4 15 15 16 54 2 63 -7 4 -7 13 0 26 24 44 -47 84 -80
44z m60 -25 c0 -15 -7 -20 -25 -20 -24 0 -34 18 -18 33 15 15 43 7 43 -13z m8
-78 c-5 -24 -53 -28 -62 -5 -10 25 20 46 46 32 11 -6 18 -18 16 -27z"/>
<path d="M11546 4374 c-19 -18 -21 -55 -4 -72 7 -7 25 -12 40 -12 18 0 28 -5
28 -15 0 -21 -29 -31 -50 -17 -22 13 -34 4 -19 -15 15 -17 63 -17 79 2 21 25
24 92 6 120 -19 29 -56 33 -80 9z m62 -36 c3 -24 0 -28 -21 -28 -27 0 -40 20
-30 46 10 26 48 13 51 -18z"/>
<path d="M12708 4376 c-22 -16 -23 -30 -3 -22 12 4 15 -6 15 -59 0 -37 4 -65
10 -65 6 0 10 33 10 80 0 44 -3 80 -7 80 -5 0 -16 -7 -25 -14z"/>
<path d="M12796 4368 c-9 -12 -16 -38 -16 -58 0 -20 7 -46 16 -58 20 -28 69
-30 84 -3 16 30 12 107 -6 125 -22 23 -60 20 -78 -6z m62 -10 c13 -13 16 -66
6 -92 -7 -18 -39 -21 -50 -5 -8 13 -8 85 1 99 8 14 28 13 43 -2z"/>
<path d="M13938 4376 c-22 -16 -23 -30 -3 -22 12 4 15 -6 15 -59 0 -37 4 -65
10 -65 6 0 10 33 10 80 0 44 -3 80 -7 80 -5 0 -16 -7 -25 -14z"/>
<path d="M14018 4376 c-22 -16 -23 -30 -3 -22 12 4 15 -6 15 -59 0 -37 4 -65
10 -65 6 0 10 33 10 80 0 44 -3 80 -7 80 -5 0 -16 -7 -25 -14z"/>
<path d="M1830 3115 l0 -85 45 0 c59 0 95 32 95 85 0 53 -36 85 -95 85 l-45 0
0 -85z m86 57 c21 -13 34 -52 28 -77 -7 -29 -31 -45 -68 -45 -25 0 -26 2 -26
58 0 32 3 62 7 65 9 9 45 9 59 -1z"/>
<path d="M2990 3115 l0 -85 45 0 c59 0 95 32 95 85 0 53 -36 85 -95 85 l-45 0
0 -85z m86 57 c21 -13 34 -52 28 -77 -7 -29 -31 -45 -68 -45 -25 0 -26 2 -26
58 0 32 3 62 7 65 9 9 45 9 59 -1z"/>
<path d="M4210 3115 l0 -85 45 0 c59 0 95 32 95 85 0 53 -36 85 -95 85 l-45 0
0 -85z m86 57 c21 -13 34 -52 28 -77 -7 -29 -31 -45 -68 -45 -25 0 -26 2 -26
58 0 32 3 62 7 65 9 9 45 9 59 -1z"/>
<path d="M5410 3115 l0 -85 45 0 c59 0 95 32 95 85 0 53 -36 85 -95 85 l-45 0
0 -85z m86 57 c21 -13 34 -52 28 -77 -7 -29 -31 -45 -68 -45 -25 0 -26 2 -26
58 0 32 3 62 7 65 9 9 45 9 59 -1z"/>
<path d="M6590 3115 l0 -85 45 0 c59 0 95 32 95 85 0 53 -36 85 -95 85 l-45 0
0 -85z m86 57 c21 -13 34 -52 28 -77 -7 -29 -31 -45 -68 -45 -25 0 -26 2 -26
58 0 32 3 62 7 65 9 9 45 9 59 -1z"/>
<path d="M7810 3115 l0 -85 45 0 c59 0 95 32 95 85 0 53 -36 85 -95 85 l-45 0
0 -85z m86 57 c21 -13 34 -52 28 -77 -7 -29 -31 -45 -68 -45 -25 0 -26 2 -26
58 0 32 3 62 7 65 9 9 45 9 59 -1z"/>
<path d="M9010 3115 l0 -85 45 0 c59 0 95 32 95 85 0 53 -36 85 -95 85 l-45 0
0 -85z m86 57 c21 -13 34 -52 28 -77 -7 -29 -31 -45 -68 -45 -25 0 -26 2 -26
58 0 32 3 62 7 65 9 9 45 9 59 -1z"/>
<path d="M10210 3115 l0 -85 45 0 c59 0 95 32 95 85 0 53 -36 85 -95 85 l-45
0 0 -85z m86 57 c21 -13 34 -52 28 -77 -7 -29 -31 -45 -68 -45 -25 0 -26 2
-26 58 0 32 3 62 7 65 9 9 45 9 59 -1z"/>
<path d="M11410 3115 l0 -85 45 0 c59 0 95 32 95 85 0 53 -36 85 -95 85 l-45
0 0 -85z m86 57 c21 -13 34 -52 28 -77 -7 -29 -31 -45 -68 -45 -25 0 -26 2
-26 58 0 32 3 62 7 65 9 9 45 9 59 -1z"/>
<path d="M12560 3115 l0 -85 45 0 c59 0 95 32 95 85 0 53 -36 85 -95 85 l-45
0 0 -85z m86 57 c21 -13 34 -52 28 -77 -7 -29 -31 -45 -68 -45 -25 0 -26 2
-26 58 0 32 3 62 7 65 9 9 45 9 59 -1z"/>
<path d="M13770 3115 l0 -85 45 0 c59 0 95 32 95 85 0 53 -36 85 -95 85 l-45
0 0 -85z m86 57 c21 -13 34 -52 28 -77 -7 -29 -31 -45 -68 -45 -25 0 -26 2
-26 58 0 32 3 62 7 65 9 9 45 9 59 -1z"/>
<path d="M2018 3176 c-22 -16 -23 -30 -3 -22 12 4 15 -6 15 -59 0 -37 4 -65
10 -65 6 0 10 33 10 80 0 44 -3 80 -7 80 -5 0 -16 -7 -25 -14z"/>
<path d="M3170 3169 c-15 -26 -3 -40 14 -16 16 21 45 22 52 2 4 -9 -10 -32
-35 -60 -22 -24 -41 -49 -41 -55 0 -6 24 -10 55 -10 30 0 55 5 55 10 0 6 -19
10 -42 10 l-42 0 37 38 c38 39 46 69 25 90 -20 20 -66 15 -78 -9z"/>
<path d="M4384 3173 c-12 -12 -13 -18 -4 -21 7 -3 16 1 20 8 10 17 44 8 48
-13 2 -12 -3 -17 -17 -17 -12 0 -21 -4 -21 -10 0 -5 4 -10 8 -10 20 0 43 -27
36 -43 -7 -18 -54 -24 -54 -7 0 6 -7 10 -15 10 -8 0 -15 -4 -15 -8 0 -17 25
-32 55 -32 17 0 36 5 43 12 14 14 16 54 2 63 -5 3 -7 20 -3 36 4 21 1 34 -8
40 -22 14 -56 10 -75 -8z"/>
<path d="M5616 3141 c-20 -27 -36 -54 -36 -60 0 -6 16 -11 35 -11 28 0 35 -4
35 -20 0 -11 5 -20 10 -20 6 0 10 9 10 19 0 11 6 22 13 25 10 5 10 7 0 12 -8
3 -13 25 -13 55 0 27 -4 49 -9 49 -5 0 -25 -22 -45 -49z m34 -21 c0 -23 -4
-30 -20 -30 -24 0 -25 4 -4 35 21 32 24 31 24 -5z"/>
<path d="M6766 3174 c-7 -19 -8 -74 -1 -74 3 0 14 6 25 12 26 17 55 -10 45
-41 -6 -21 -55 -31 -55 -11 0 6 -7 10 -15 10 -13 0 -14 -4 -5 -20 15 -27 75
-28 90 -1 24 46 -3 97 -47 88 -18 -3 -23 -1 -19 10 3 8 6 17 6 19 0 2 14 4 30
4 17 0 30 5 30 10 0 17 -77 12 -84 -6z"/>
<path d="M7990 3175 c-6 -8 -14 -32 -17 -54 -7 -53 16 -91 55 -91 35 0 52 17
52 51 0 36 -27 62 -57 56 -15 -3 -23 0 -23 10 0 20 29 28 51 15 27 -17 31 -15
19 8 -13 24 -62 27 -80 5z m60 -70 c6 -8 10 -22 8 -32 -5 -25 -51 -25 -56 0
-8 42 23 63 48 32z"/>
<path d="M9160 3180 c0 -5 18 -10 40 -10 22 0 40 -1 40 -2 0 -2 -11 -25 -25
-52 -26 -51 -32 -86 -15 -86 6 0 10 6 10 14 0 7 13 40 30 72 16 32 30 62 30
67 0 4 -25 7 -55 7 -30 0 -55 -4 -55 -10z"/>
<path d="M10390 3175 c-7 -8 -10 -24 -7 -35 3 -11 0 -33 -6 -49 -8 -23 -8 -33
2 -45 16 -19 72 -21 89 -4 15 15 16 54 2 63 -7 4 -7 13 0 26 24 44 -47 84 -80
44z m60 -25 c0 -15 -7 -20 -25 -20 -24 0 -34 18 -18 33 15 15 43 7 43 -13z m8
-78 c-5 -24 -53 -28 -62 -5 -10 25 20 46 46 32 11 -6 18 -18 16 -27z"/>
<path d="M11596 3174 c-19 -18 -21 -55 -4 -72 7 -7 25 -12 40 -12 18 0 28 -5
28 -15 0 -21 -29 -31 -50 -17 -22 13 -34 4 -19 -15 15 -17 63 -17 79 2 21 25
24 92 6 120 -19 29 -56 33 -80 9z m62 -36 c3 -24 0 -28 -21 -28 -27 0 -40 20
-30 46 10 26 48 13 51 -18z"/>
<path d="M12738 3176 c-22 -16 -23 -30 -3 -22 12 4 15 -6 15 -59 0 -37 4 -65
10 -65 6 0 10 33 10 80 0 44 -3 80 -7 80 -5 0 -16 -7 -25 -14z"/>
<path d="M12826 3168 c-9 -12 -16 -38 -16 -58 0 -20 7 -46 16 -58 20 -28 69
-30 84 -3 16 30 12 107 -6 125 -22 23 -60 20 -78 -6z m62 -10 c13 -13 16 -66
6 -92 -7 -18 -39 -21 -50 -5 -8 13 -8 85 1 99 8 14 28 13 43 -2z"/>
<path d="M13958 3176 c-22 -16 -23 -30 -3 -22 12 4 15 -6 15 -59 0 -37 4 -65
10 -65 6 0 10 33 10 80 0 44 -3 80 -7 80 -5 0 -16 -7 -25 -14z"/>
<path d="M14038 3176 c-22 -16 -23 -30 -3 -22 12 4 15 -6 15 -59 0 -37 4 -65
10 -65 6 0 10 33 10 80 0 44 -3 80 -7 80 -5 0 -16 -7 -25 -14z"/>
<path d="M1820 1985 l0 -85 54 0 c30 0 58 5 61 10 4 6 -13 10 -45 10 -50 0
-51 1 -48 28 3 24 7 27 46 30 57 4 54 22 -4 22 -41 0 -45 2 -42 23 2 18 10 23
46 25 61 5 52 22 -13 22 l-55 0 0 -85z"/>
<path d="M3000 1985 l0 -85 48 0 c26 0 53 5 60 12 15 15 16 68 2 68 -7 0 -7 6
0 19 14 27 13 37 -6 55 -9 10 -33 16 -60 16 l-44 0 0 -85z m88 38 c3 -20 -1
-23 -32 -23 -28 0 -36 4 -36 18 0 26 10 33 40 30 17 -2 26 -10 28 -25z m2 -58
c20 -24 4 -45 -35 -45 -30 0 -35 3 -35 23 0 13 3 27 7 30 12 12 50 7 63 -8z"/>
<path d="M4200 1985 l0 -85 54 0 c30 0 58 5 61 10 4 6 -13 10 -45 10 -50 0
-51 1 -48 28 3 24 7 27 46 30 57 4 54 22 -4 22 -41 0 -45 2 -42 23 2 18 10 23
46 25 61 5 52 22 -13 22 l-55 0 0 -85z"/>
<path d="M5400 1985 l0 -85 54 0 c30 0 58 5 61 10 4 6 -13 10 -45 10 -50 0
-51 1 -48 28 3 24 7 27 46 30 57 4 54 22 -4 22 -41 0 -45 2 -42 23 2 18 10 23
46 25 61 5 52 22 -13 22 l-55 0 0 -85z"/>
<path d="M6600 1985 l0 -85 48 0 c26 0 53 5 60 12 15 15 16 68 2 68 -7 0 -7 6
0 19 14 27 13 37 -6 55 -9 10 -33 16 -60 16 l-44 0 0 -85z m88 38 c3 -20 -1
-23 -32 -23 -28 0 -36 4 -36 18 0 26 10 33 40 30 17 -2 26 -10 28 -25z m2 -58
c20 -24 4 -45 -35 -45 -30 0 -35 3 -35 23 0 13 3 27 7 30 12 12 50 7 63 -8z"/>
<path d="M7800 1985 l0 -85 54 0 c30 0 58 5 61 10 4 6 -13 10 -45 10 -50 0
-51 1 -48 28 3 24 7 27 46 30 57 4 54 22 -4 22 -41 0 -45 2 -42 23 2 18 10 23
46 25 61 5 52 22 -13 22 l-55 0 0 -85z"/>
<path d="M9000 1985 l0 -85 54 0 c30 0 58 5 61 10 4 6 -13 10 -45 10 -50 0
-51 1 -48 28 3 24 7 27 46 30 57 4 54 22 -4 22 -41 0 -45 2 -42 23 2 18 10 23
46 25 61 5 52 22 -13 22 l-55 0 0 -85z"/>
<path d="M10200 1985 l0 -85 54 0 c30 0 58 5 61 10 4 6 -13 10 -45 10 -50 0
-51 1 -48 28 3 24 7 27 46 30 57 4 54 22 -4 22 -41 0 -45 2 -42 23 2 18 10 23
46 25 61 5 52 22 -13 22 l-55 0 0 -85z"/>
<path d="M11400 1985 l0 -85 54 0 c30 0 58 5 61 10 4 6 -13 10 -45 10 -50 0
-51 1 -48 28 3 24 7 27 46 30 57 4 54 22 -4 22 -41 0 -45 2 -42 23 2 18 10 23
46 25 61 5 52 22 -13 22 l-55 0 0 -85z"/>
<path d="M12570 1985 l0 -85 54 0 c30 0 58 5 61 10 4 6 -13 10 -45 10 -50 0
-51 1 -48 28 3 24 7 27 46 30 57 4 54 22 -4 22 -41 0 -45 2 -42 23 2 18 10 23
46 25 61 5 52 22 -13 22 l-55 0 0 -85z"/>
<path d="M13780 1985 l0 -85 54 0 c30 0 58 5 61 10 4 6 -13 10 -45 10 -50 0
-51 1 -48 28 3 24 7 27 46 30 57 4 54 22 -4 22 -41 0 -45 2 -42 23 2 18 10 23
46 25 61 5 52 22 -13 22 l-55 0 0 -85z"/>
<path d="M1968 2046 c-22 -16 -23 -30 -3 -22 12 4 15 -6 15 -59 0 -37 4 -65
10 -65 6 0 10 33 10 80 0 44 -3 80 -7 80 -5 0 -16 -7 -25 -14z"/>
<path d="M3160 2039 c-15 -26 -3 -40 14 -16 16 21 45 22 52 2 4 -9 -10 -32
-35 -60 -22 -24 -41 -49 -41 -55 0 -6 24 -10 55 -10 30 0 55 5 55 10 0 6 -19
10 -42 10 l-42 0 37 38 c38 39 46 69 25 90 -20 20 -66 15 -78 -9z"/>
<path d="M4344 2043 c-12 -12 -13 -18 -4 -21 7 -3 16 1 20 8 10 17 44 8 48
-13 2 -12 -3 -17 -17 -17 -12 0 -21 -4 -21 -10 0 -5 4 -10 8 -10 20 0 43 -27
36 -43 -7 -18 -54 -24 -54 -7 0 6 -7 10 -15 10 -8 0 -15 -4 -15 -8 0 -17 25
-32 55 -32 17 0 36 5 43 12 14 14 16 54 2 63 -5 3 -7 20 -3 36 4 21 1 34 -8
40 -22 14 -56 10 -75 -8z"/>
<path d="M5566 2011 c-20 -27 -36 -54 -36 -60 0 -6 16 -11 35 -11 28 0 35 -4
35 -20 0 -11 5 -20 10 -20 6 0 10 9 10 19 0 11 6 22 13 25 10 5 10 7 0 12 -8
3 -13 25 -13 55 0 27 -4 49 -9 49 -5 0 -25 -22 -45 -49z m34 -21 c0 -23 -4
-30 -20 -30 -24 0 -25 4 -4 35 21 32 24 31 24 -5z"/>
<path d="M6766 2044 c-7 -19 -8 -74 -1 -74 3 0 14 6 25 12 26 17 55 -10 45
-41 -6 -21 -55 -31 -55 -11 0 6 -7 10 -15 10 -13 0 -14 -4 -5 -20 15 -27 75
-28 90 -1 24 46 -3 97 -47 88 -18 -3 -23 -1 -19 10 3 8 6 17 6 19 0 2 14 4 30
4 17 0 30 5 30 10 0 17 -77 12 -84 -6z"/>
<path d="M7950 2045 c-6 -8 -14 -32 -17 -54 -7 -53 16 -91 55 -91 35 0 52 17
52 51 0 36 -27 62 -57 56 -15 -3 -23 0 -23 10 0 20 29 28 51 15 27 -17 31 -15
19 8 -13 24 -62 27 -80 5z m60 -70 c6 -8 10 -22 8 -32 -5 -25 -51 -25 -56 0
-8 42 23 63 48 32z"/>
<path d="M9130 2050 c0 -5 18 -10 40 -10 22 0 40 -1 40 -2 0 -2 -11 -25 -25
-52 -26 -51 -32 -86 -15 -86 6 0 10 6 10 14 0 7 13 40 30 72 16 32 30 62 30
67 0 4 -25 7 -55 7 -30 0 -55 -4 -55 -10z"/>
<path d="M10350 2045 c-7 -8 -10 -24 -7 -35 3 -11 0 -33 -6 -49 -8 -23 -8 -33
2 -45 16 -19 72 -21 89 -4 15 15 16 54 2 63 -7 4 -7 13 0 26 24 44 -47 84 -80
44z m60 -25 c0 -15 -7 -20 -25 -20 -24 0 -34 18 -18 33 15 15 43 7 43 -13z m8
-78 c-5 -24 -53 -28 -62 -5 -10 25 20 46 46 32 11 -6 18 -18 16 -27z"/>
<path d="M11546 2044 c-19 -18 -21 -55 -4 -72 7 -7 25 -12 40 -12 18 0 28 -5
28 -15 0 -21 -29 -31 -50 -17 -22 13 -34 4 -19 -15 15 -17 63 -17 79 2 21 25
24 92 6 120 -19 29 -56 33 -80 9z m62 -36 c3 -24 0 -28 -21 -28 -27 0 -40 20
-30 46 10 26 48 13 51 -18z"/>
<path d="M12718 2046 c-22 -16 -23 -30 -3 -22 12 4 15 -6 15 -59 0 -37 4 -65
10 -65 6 0 10 33 10 80 0 44 -3 80 -7 80 -5 0 -16 -7 -25 -14z"/>
<path d="M12806 2038 c-9 -12 -16 -38 -16 -58 0 -20 7 -46 16 -58 20 -28 69
-30 84 -3 16 30 12 107 -6 125 -22 23 -60 20 -78 -6z m62 -10 c13 -13 16 -66
6 -92 -7 -18 -39 -21 -50 -5 -8 13 -8 85 1 99 8 14 28 13 43 -2z"/>
<path d="M13928 2046 c-22 -16 -23 -30 -3 -22 12 4 15 -6 15 -59 0 -37 4 -65
10 -65 6 0 10 33 10 80 0 44 -3 80 -7 80 -5 0 -16 -7 -25 -14z"/>
<path d="M14008 2046 c-22 -16 -23 -30 -3 -22 12 4 15 -6 15 -59 0 -37 4 -65
10 -65 6 0 10 33 10 80 0 44 -3 80 -7 80 -5 0 -16 -7 -25 -14z"/>
<path d="M1830 1605 l0 -85 85 0 85 0 0 85 0 85 -85 0 -85 0 0 -85z"/>
<path d="M3030 1605 l0 -85 85 0 85 0 0 85 0 85 -85 0 -85 0 0 -85z"/>
<path d="M4230 1605 l0 -85 85 0 85 0 0 85 0 85 -85 0 -85 0 0 -85z"/>
<path d="M5430 1605 l0 -85 85 0 85 0 0 85 0 85 -85 0 -85 0 0 -85z"/>
<path d="M6630 1605 l0 -85 85 0 85 0 0 85 0 85 -85 0 -85 0 0 -85z"/>
<path d="M7830 1605 l0 -85 85 0 85 0 0 85 0 85 -85 0 -85 0 0 -85z"/>
<path d="M9030 1605 l0 -85 85 0 85 0 0 85 0 85 -85 0 -85 0 0 -85z"/>
<path d="M10230 1605 l0 -85 85 0 85 0 0 85 0 85 -85 0 -85 0 0 -85z"/>
<path d="M11430 1605 l0 -85 85 0 85 0 0 85 0 85 -85 0 -85 0 0 -85z"/>
<path d="M12630 1605 l0 -85 85 0 85 0 0 85 0 85 -85 0 -85 0 0 -85z"/>
<path d="M13840 1605 l0 -85 85 0 85 0 0 85 0 85 -85 0 -85 0 0 -85z"/>
</g>
</svg>
